ISO-10303-21;
HEADER;
FILE_DESCRIPTION (( 'STEP AP214' ),
    '1' );
FILE_NAME ('down_plate_power.STEP',
    '2026-09-24T09:57:19',
    ( '' ),
    ( '' ),
    'SwSTEP 2.0',
    'SolidWorks 2026',
    '' );
FILE_SCHEMA (( 'AUTOMOTIVE_DESIGN' ));
ENDSEC;

DATA;
#1 = VERTEX_POINT ( 'NONE', #927 ) ;
#2 = CARTESIAN_POINT ( 'NONE',  ( 16.16647109493833412, -4.999999999999999112, 1.000000000000000000 ) ) ;
#3 = DIRECTION ( 'NONE',  ( 0.000000000000000000, 0.000000000000000000, 1.000000000000000000 ) ) ;
#4 = ORIENTED_EDGE ( 'NONE', *, *, #780, .F. ) ;
#5 = CARTESIAN_POINT ( 'NONE',  ( 47.83753885615624313, 0.7068829060252259655, 1.000000000000000000 ) ) ;
#6 = EDGE_LOOP ( 'NONE', ( #659, #586, #548, #1200 ) ) ;
#7 = EDGE_CURVE ( 'NONE', #1106, #644, #997, .T. ) ;
#8 = LINE ( 'NONE', #415, #449 ) ;
#9 = ORIENTED_EDGE ( 'NONE', *, *, #1045, .F. ) ;
#10 = CARTESIAN_POINT ( 'NONE',  ( -24.12667800987897238, 12.24999999999999467, 1.000000000000000000 ) ) ;
#11 = ORIENTED_EDGE ( 'NONE', *, *, #1163, .F. ) ;
#12 = CARTESIAN_POINT ( 'NONE',  ( 32.40910512408581923, -0.7068829060252251884, 1.000000000000000000 ) ) ;
#13 = ORIENTED_EDGE ( 'NONE', *, *, #544, .T. ) ;
#14 = EDGE_CURVE ( 'NONE', #242, #78, #300, .T. ) ;
#15 = DIRECTION ( 'NONE',  ( 3.050045567698648528E-15, 1.000000000000000000, -0.000000000000000000 ) ) ;
#16 = VECTOR ( 'NONE', #695, 1000.000000000000000 ) ;
#17 = DIRECTION ( 'NONE',  ( 1.000000000000000000, 0.000000000000000000, -0.000000000000000000 ) ) ;
#18 = EDGE_CURVE ( 'NONE', #249, #1215, #1212, .T. ) ;
#19 = DIRECTION ( 'NONE',  ( -0.000000000000000000, -0.000000000000000000, -1.000000000000000000 ) ) ;
#20 = ORIENTED_EDGE ( 'NONE', *, *, #861, .T. ) ;
#21 =( LENGTH_UNIT ( ) NAMED_UNIT ( * ) SI_UNIT ( .MILLI., .METRE. ) );
#22 = VERTEX_POINT ( 'NONE', #1225 ) ;
#23 = DIRECTION ( 'NONE',  ( -1.000000000000000000, 0.000000000000000000, 0.000000000000000000 ) ) ;
#24 = FACE_BOUND ( 'NONE', #1114, .T. ) ;
#25 = EDGE_CURVE ( 'NONE', #363, #644, #1220, .T. ) ;
#26 = DIRECTION ( 'NONE',  ( -1.000000000000000000, 0.000000000000000000, 0.000000000000000000 ) ) ;
#27 = VERTEX_POINT ( 'NONE', #105 ) ;
#28 = PLANE ( 'NONE',  #1139 ) ;
#29 = ORIENTED_EDGE ( 'NONE', *, *, #958, .F. ) ;
#30 = DIRECTION ( 'NONE',  ( -1.000000000000000000, 0.000000000000000000, 0.000000000000000000 ) ) ;
#31 = FACE_BOUND ( 'NONE', #739, .T. ) ;
#32 = ADVANCED_FACE ( 'NONE', ( #723 ), #1126, .T. ) ;
#33 = CARTESIAN_POINT ( 'NONE',  ( 40.16647109493833767, -9.974986807609294459, 0.000000000000000000 ) ) ;
#34 = EDGE_LOOP ( 'NONE', ( #756, #531 ) ) ;
#35 = CYLINDRICAL_SURFACE ( 'NONE', #57, 1.500000000000001332 ) ;
#36 = ORIENTED_EDGE ( 'NONE', *, *, #325, .F. ) ;
#37 = CARTESIAN_POINT ( 'NONE',  ( 24.16647109493833057, -5.000000000000000888, 1.000000000000000000 ) ) ;
#38 = AXIS2_PLACEMENT_3D ( 'NONE', #970, #671, #1209 ) ;
#39 = PLANE ( 'NONE',  #80 ) ;
#40 = VECTOR ( 'NONE', #899, 1000.000000000000000 ) ;
#41 = DIRECTION ( 'NONE',  ( -0.000000000000000000, -0.000000000000000000, -1.000000000000000000 ) ) ;
#42 = ORIENTED_EDGE ( 'NONE', *, *, #770, .F. ) ;
#43 = VECTOR ( 'NONE', #516, 1000.000000000000000 ) ;
#44 = PLANE ( 'NONE',  #1247 ) ;
#45 = ORIENTED_EDGE ( 'NONE', *, *, #508, .T. ) ;
#46 = DIRECTION ( 'NONE',  ( 1.000000000000000000, 0.000000000000000000, 0.000000000000000000 ) ) ;
#47 = FACE_OUTER_BOUND ( 'NONE', #133, .T. ) ;
#48 = PRODUCT ( 'down_plate_power', 'down_plate_power', '', ( #688 ) ) ;
#49 = FACE_OUTER_BOUND ( 'NONE', #1308, .T. ) ;
#50 = ORIENTED_EDGE ( 'NONE', *, *, #384, .T. ) ;
#51 = DIRECTION ( 'NONE',  ( 0.000000000000000000, 0.000000000000000000, 1.000000000000000000 ) ) ;
#52 = EDGE_LOOP ( 'NONE', ( #107, #1009, #960, #612 ) ) ;
#53 = LINE ( 'NONE', #678, #286 ) ;
#54 = EDGE_CURVE ( 'NONE', #27, #475, #814, .T. ) ;
#55 = CARTESIAN_POINT ( 'NONE',  ( -24.12667800987897238, -8.250000000000005329, 0.000000000000000000 ) ) ;
#56 = LINE ( 'NONE', #465, #102 ) ;
#57 = AXIS2_PLACEMENT_3D ( 'NONE', #443, #569, #856 ) ;
#58 = CARTESIAN_POINT ( 'NONE',  ( 16.16647109493833412, -9.000000000000001776, 1.000000000000000000 ) ) ;
#59 = ORIENTED_EDGE ( 'NONE', *, *, #887, .T. ) ;
#60 = CARTESIAN_POINT ( 'NONE',  ( 16.16647109493833057, 9.000000000000001776, 1.000000000000000000 ) ) ;
#61 = DIRECTION ( 'NONE',  ( -0.000000000000000000, -0.000000000000000000, -1.000000000000000000 ) ) ;
#62 = EDGE_CURVE ( 'NONE', #864, #198, #135, .T. ) ;
#63 = CARTESIAN_POINT ( 'NONE',  ( 2.873321990121035174, 8.249999999999998224, 1.000000000000000000 ) ) ;
#64 = AXIS2_PLACEMENT_3D ( 'NONE', #148, #1296, #46 ) ;
#65 = DIRECTION ( 'NONE',  ( 0.000000000000000000, 0.000000000000000000, 1.000000000000000000 ) ) ;
#66 = EDGE_LOOP ( 'NONE', ( #575, #589, #1236, #816 ) ) ;
#67 = EDGE_CURVE ( 'NONE', #917, #98, #1148, .T. ) ;
#68 = VECTOR ( 'NONE', #411, 1000.000000000000000 ) ;
#69 = CARTESIAN_POINT ( 'NONE',  ( 40.16647109493833767, -12.25000000000000000, 1.000000000000000000 ) ) ;
#70 = EDGE_CURVE ( 'NONE', #800, #502, #720, .T. ) ;
#71 = EDGE_LOOP ( 'NONE', ( #730, #604 ) ) ;
#72 = VECTOR ( 'NONE', #41, 1000.000000000000000 ) ;
#73 = CARTESIAN_POINT ( 'NONE',  ( -24.12667800987897238, 12.24999999999999467, 1.000000000000000000 ) ) ;
#74 = ORIENTED_EDGE ( 'NONE', *, *, #455, .F. ) ;
#75 = ADVANCED_FACE ( 'NONE', ( #24, #118, #947, #130, #1132, #745, #1257, #31, #736, #843, #1248, #628 ), #433, .F. ) ;
#76 = DIRECTION ( 'NONE',  ( 0.000000000000000000, 0.000000000000000000, 1.000000000000000000 ) ) ;
#77 = CARTESIAN_POINT ( 'NONE',  ( -21.12667800987896882, 10.00000000000000000, 1.000000000000000000 ) ) ;
#78 = VERTEX_POINT ( 'NONE', #1034 ) ;
#79 = PLANE ( 'NONE',  #100 ) ;
#80 = AXIS2_PLACEMENT_3D ( 'NONE', #1040, #1062, #655 ) ;
#81 = CIRCLE ( 'NONE', #1068, 1.500000000000001332 ) ;
#82 = CARTESIAN_POINT ( 'NONE',  ( 33.90910512408581923, -0.7068829060252251884, 0.000000000000000000 ) ) ;
#83 = DIRECTION ( 'NONE',  ( -2.168404344971009854E-16, -1.000000000000000000, 0.000000000000000000 ) ) ;
#84 = EDGE_LOOP ( 'NONE', ( #568, #988, #1205, #563 ) ) ;
#85 = CARTESIAN_POINT ( 'NONE',  ( 40.87332199012102762, 0.000000000000000000, 1.000000000000000000 ) ) ;
#86 = CARTESIAN_POINT ( 'NONE',  ( 47.83753885615624313, 0.7068829060252259655, 1.000000000000000000 ) ) ;
#87 = EDGE_CURVE ( 'NONE', #775, #421, #559, .T. ) ;
#88 = DIRECTION ( 'NONE',  ( -0.000000000000000000, -0.000000000000000000, -1.000000000000000000 ) ) ;
#89 = ORIENTED_EDGE ( 'NONE', *, *, #751, .F. ) ;
#90 = ORIENTED_EDGE ( 'NONE', *, *, #1100, .T. ) ;
#91 = DIRECTION ( 'NONE',  ( 0.000000000000000000, -1.000000000000000000, 0.000000000000000000 ) ) ;
#92 = AXIS2_PLACEMENT_3D ( 'NONE', #1298, #369, #790 ) ;
#93 = DIRECTION ( 'NONE',  ( 0.000000000000000000, 0.000000000000000000, 1.000000000000000000 ) ) ;
#94 = AXIS2_PLACEMENT_3D ( 'NONE', #5, #512, #302 ) ;
#95 = CARTESIAN_POINT ( 'NONE',  ( -23.12667800987896172, 10.00000000000000000, 1.000000000000000000 ) ) ;
#96 = EDGE_CURVE ( 'NONE', #639, #115, #1060, .T. ) ;
#97 = DIRECTION ( 'NONE',  ( 1.000000000000000000, 0.000000000000000000, 0.000000000000000000 ) ) ;
#98 = VERTEX_POINT ( 'NONE', #1241 ) ;
#99 = DIRECTION ( 'NONE',  ( -1.000000000000000000, 0.000000000000000000, 0.000000000000000000 ) ) ;
#100 = AXIS2_PLACEMENT_3D ( 'NONE', #778, #1201, #189 ) ;
#101 = ORIENTED_EDGE ( 'NONE', *, *, #436, .F. ) ;
#102 = VECTOR ( 'NONE', #680, 1000.000000000000000 ) ;
#103 = AXIS2_PLACEMENT_3D ( 'NONE', #823, #753, #558 ) ;
#104 = LINE ( 'NONE', #180, #1127 ) ;
#105 = CARTESIAN_POINT ( 'NONE',  ( 41.66643908409580632, 6.964216866035213727, 0.000000000000000000 ) ) ;
#106 = EDGE_CURVE ( 'NONE', #554, #581, #123, .T. ) ;
#107 = ORIENTED_EDGE ( 'NONE', *, *, #425, .F. ) ;
#108 = SURFACE_SIDE_STYLE ('',( #817 ) ) ;
#109 = ORIENTED_EDGE ( 'NONE', *, *, #18, .F. ) ;
#110 = FACE_OUTER_BOUND ( 'NONE', #293, .T. ) ;
#111 = ORIENTED_EDGE ( 'NONE', *, *, #903, .T. ) ;
#112 = ORIENTED_EDGE ( 'NONE', *, *, #617, .F. ) ;
#113 = DIRECTION ( 'NONE',  ( -0.000000000000000000, -0.000000000000000000, -1.000000000000000000 ) ) ;
#114 = ADVANCED_FACE ( 'NONE', ( #47 ), #529, .F. ) ;
#115 = VERTEX_POINT ( 'NONE', #1053 ) ;
#116 = CYLINDRICAL_SURFACE ( 'NONE', #339, 1.500000000000001332 ) ;
#117 = EDGE_CURVE ( 'NONE', #1074, #716, #426, .T. ) ;
#118 = FACE_BOUND ( 'NONE', #240, .T. ) ;
#119 = DIRECTION ( 'NONE',  ( 1.000000000000000000, 2.602085213965211135E-16, 0.000000000000000000 ) ) ;
#120 = EDGE_LOOP ( 'NONE', ( #855, #287, #347, #327 ) ) ;
#121 = ORIENTED_EDGE ( 'NONE', *, *, #1083, .T. ) ;
#122 = FACE_OUTER_BOUND ( 'NONE', #1116, .T. ) ;
#123 = LINE ( 'NONE', #222, #485 ) ;
#124 = ORIENTED_EDGE ( 'NONE', *, *, #425, .T. ) ;
#125 = CARTESIAN_POINT ( 'NONE',  ( 47.83753885615624313, 0.7068829060252259655, 0.000000000000000000 ) ) ;
#126 = EDGE_LOOP ( 'NONE', ( #9, #703 ) ) ;
#127 = DIRECTION ( 'NONE',  ( 1.000000000000000000, 0.000000000000000000, 0.000000000000000000 ) ) ;
#128 = ADVANCED_FACE ( 'NONE', ( #634 ), #39, .F. ) ;
#129 = AXIS2_PLACEMENT_3D ( 'NONE', #707, #1157, #981 ) ;
#130 = FACE_BOUND ( 'NONE', #905, .T. ) ;
#131 = DIRECTION ( 'NONE',  ( -1.000000000000000000, 0.000000000000000000, 0.000000000000000000 ) ) ;
#132 = ORIENTED_EDGE ( 'NONE', *, *, #1290, .T. ) ;
#133 = EDGE_LOOP ( 'NONE', ( #50, #1263, #669, #1025 ) ) ;
#134 = LINE ( 'NONE', #641, #1321 ) ;
#135 = LINE ( 'NONE', #837, #1207 ) ;
#136 = DIRECTION ( 'NONE',  ( 0.000000000000000000, -1.000000000000000000, 0.000000000000000000 ) ) ;
#137 = ORIENTED_EDGE ( 'NONE', *, *, #692, .T. ) ;
#138 = DIRECTION ( 'NONE',  ( 0.000000000000000000, -0.000000000000000000, 1.000000000000000000 ) ) ;
#139 = VERTEX_POINT ( 'NONE', #450 ) ;
#140 = AXIS2_PLACEMENT_3D ( 'NONE', #642, #852, #17 ) ;
#141 = FACE_OUTER_BOUND ( 'NONE', #461, .T. ) ;
#142 = DIRECTION ( 'NONE',  ( -0.000000000000000000, -0.000000000000000000, -1.000000000000000000 ) ) ;
#143 = VECTOR ( 'NONE', #19, 1000.000000000000000 ) ;
#144 = DIRECTION ( 'NONE',  ( -1.000000000000000000, 0.000000000000000000, 0.000000000000000000 ) ) ;
#145 = VERTEX_POINT ( 'NONE', #862 ) ;
#146 = DIRECTION ( 'NONE',  ( 0.000000000000000000, 0.000000000000000000, 1.000000000000000000 ) ) ;
#147 = ORIENTED_EDGE ( 'NONE', *, *, #14, .F. ) ;
#148 = CARTESIAN_POINT ( 'NONE',  ( -2.126678009878963937, -10.00000000000000000, 1.000000000000000000 ) ) ;
#149 = PLANE ( 'NONE',  #595 ) ;
#150 = LINE ( 'NONE', #863, #371 ) ;
#151 = ORIENTED_EDGE ( 'NONE', *, *, #829, .T. ) ;
#152 = LINE ( 'NONE', #1043, #1202 ) ;
#153 = ADVANCED_FACE ( 'NONE', ( #1266 ), #350, .F. ) ;
#154 = DIRECTION ( 'NONE',  ( 1.000000000000000000, 0.000000000000000000, 0.000000000000000000 ) ) ;
#155 = DIRECTION ( 'NONE',  ( 1.839858232096613368E-16, -1.000000000000000000, 0.000000000000000000 ) ) ;
#156 = LINE ( 'NONE', #1078, #254 ) ;
#157 = VECTOR ( 'NONE', #1167, 1000.000000000000000 ) ;
#158 = CARTESIAN_POINT ( 'NONE',  ( 37.37332199012102762, 0.000000000000000000, 1.000000000000000000 ) ) ;
#159 = ORIENTED_EDGE ( 'NONE', *, *, #571, .F. ) ;
#160 = STYLED_ITEM ( 'NONE', ( #1222 ), #759 ) ;
#161 = ORIENTED_EDGE ( 'NONE', *, *, #552, .F. ) ;
#162 = EDGE_CURVE ( 'NONE', #533, #645, #964, .T. ) ;
#163 = CARTESIAN_POINT ( 'NONE',  ( 40.87332199012102762, 10.00000000000000000, 0.000000000000000000 ) ) ;
#164 = AXIS2_PLACEMENT_3D ( 'NONE', #654, #215, #349 ) ;
#165 = ORIENTED_EDGE ( 'NONE', *, *, #883, .F. ) ;
#166 = CIRCLE ( 'NONE', #207, 1.500000000000001332 ) ;
#167 = VECTOR ( 'NONE', #647, 1000.000000000000000 ) ;
#168 = CARTESIAN_POINT ( 'NONE',  ( 24.16647109493832701, 4.999999999999998224, 1.000000000000000000 ) ) ;
#169 = DIRECTION ( 'NONE',  ( -0.000000000000000000, -0.000000000000000000, -1.000000000000000000 ) ) ;
#170 = EDGE_CURVE ( 'NONE', #767, #839, #156, .T. ) ;
#171 = DIRECTION ( 'NONE',  ( 1.000000000000000000, 0.000000000000000000, 0.000000000000000000 ) ) ;
#172 = ORIENTED_EDGE ( 'NONE', *, *, #606, .T. ) ;
#173 = VECTOR ( 'NONE', #545, 1000.000000000000000 ) ;
#174 = CARTESIAN_POINT ( 'NONE',  ( 24.16647109493833057, 9.000000000000001776, 1.000000000000000000 ) ) ;
#175 = DIRECTION ( 'NONE',  ( 1.000000000000000000, 0.000000000000000000, 0.000000000000000000 ) ) ;
#176 = VERTEX_POINT ( 'NONE', #1171 ) ;
#177 = DIRECTION ( 'NONE',  ( 1.000000000000000000, 3.469446951953614189E-16, 0.000000000000000000 ) ) ;
#178 = CARTESIAN_POINT ( 'NONE',  ( 2.873321990121038283, -8.250000000000001776, 0.000000000000000000 ) ) ;
#179 = PRODUCT_DEFINITION_FORMATION_WITH_SPECIFIED_SOURCE ( 'ANY', '', #48, .NOT_KNOWN. ) ;
#180 = CARTESIAN_POINT ( 'NONE',  ( 24.16647109493833057, 9.000000000000001776, 0.000000000000000000 ) ) ;
#181 = EDGE_LOOP ( 'NONE', ( #306, #338, #833, #526 ) ) ;
#182 = FACE_BOUND ( 'NONE', #34, .T. ) ;
#183 = CIRCLE ( 'NONE', #318, 1.500000000000001332 ) ;
#184 = CARTESIAN_POINT ( 'NONE',  ( -4.126678009878972375, 12.25000000000000000, 1.000000000000000000 ) ) ;
#185 = CYLINDRICAL_SURFACE ( 'NONE', #961, 1.500000000000001332 ) ;
#186 = APPLICATION_PROTOCOL_DEFINITION ( 'draft international standard', 'automotive_design', 1998, #471 ) ;
#187 = ORIENTED_EDGE ( 'NONE', *, *, #14, .T. ) ;
#188 = VERTEX_POINT ( 'NONE', #73 ) ;
#189 = DIRECTION ( 'NONE',  ( -0.000000000000000000, 0.000000000000000000, -1.000000000000000000 ) ) ;
#190 = VERTEX_POINT ( 'NONE', #785 ) ;
#191 = LINE ( 'NONE', #178, #832 ) ;
#192 = EDGE_CURVE ( 'NONE', #554, #247, #971, .T. ) ;
#193 = AXIS2_PLACEMENT_3D ( 'NONE', #673, #65, #344 ) ;
#194 = CARTESIAN_POINT ( 'NONE',  ( 46.33753885615624313, 0.7068829060252259655, 1.000000000000000000 ) ) ;
#195 = VERTEX_POINT ( 'NONE', #672 ) ;
#196 = ORIENTED_EDGE ( 'NONE', *, *, #25, .F. ) ;
#197 = DIRECTION ( 'NONE',  ( -0.000000000000000000, -0.000000000000000000, -1.000000000000000000 ) ) ;
#198 = VERTEX_POINT ( 'NONE', #366 ) ;
#199 = AXIS2_PLACEMENT_3D ( 'NONE', #403, #1011, #1325 ) ;
#200 = DIRECTION ( 'NONE',  ( 0.000000000000000000, 0.000000000000000000, 1.000000000000000000 ) ) ;
#201 = EDGE_CURVE ( 'NONE', #874, #1303, #980, .T. ) ;
#202 = ORIENTED_EDGE ( 'NONE', *, *, #62, .T. ) ;
#203 = VERTEX_POINT ( 'NONE', #665 ) ;
#204 = DIRECTION ( 'NONE',  ( 1.000000000000000000, 0.000000000000000000, 0.000000000000000000 ) ) ;
#205 = ORIENTED_EDGE ( 'NONE', *, *, #374, .T. ) ;
#206 = VECTOR ( 'NONE', #463, 1000.000000000000000 ) ;
#207 = AXIS2_PLACEMENT_3D ( 'NONE', #1213, #200, #721 ) ;
#208 = AXIS2_PLACEMENT_3D ( 'NONE', #285, #818, #696 ) ;
#209 = DIRECTION ( 'NONE',  ( -1.000000000000000000, 0.000000000000000000, 0.000000000000000000 ) ) ;
#210 = ADVANCED_FACE ( 'NONE', ( #573 ), #149, .F. ) ;
#211 = ORIENTED_EDGE ( 'NONE', *, *, #394, .F. ) ;
#212 = ORIENTED_EDGE ( 'NONE', *, *, #273, .T. ) ;
#213 = CARTESIAN_POINT ( 'NONE',  ( 37.37332199012102762, 0.000000000000000000, 0.000000000000000000 ) ) ;
#214 = VERTEX_POINT ( 'NONE', #1183 ) ;
#215 = DIRECTION ( 'NONE',  ( -1.000000000000000000, 0.000000000000000000, 0.000000000000000000 ) ) ;
#216 = DIRECTION ( 'NONE',  ( 0.000000000000000000, 0.000000000000000000, 1.000000000000000000 ) ) ;
#217 = DIRECTION ( 'NONE',  ( -1.000000000000000000, -1.284980352575412206E-16, 0.000000000000000000 ) ) ;
#218 = EDGE_LOOP ( 'NONE', ( #949, #147, #651, #847 ) ) ;
#219 = FILL_AREA_STYLE_COLOUR ( '', #611 ) ;
#220 = AXIS2_PLACEMENT_3D ( 'NONE', #125, #146, #950 ) ;
#221 = DIRECTION ( 'NONE',  ( 0.000000000000000000, 0.000000000000000000, 1.000000000000000000 ) ) ;
#222 = CARTESIAN_POINT ( 'NONE',  ( -24.12667800987897238, 8.249999999999998224, 1.000000000000000000 ) ) ;
#223 = PLANE ( 'NONE',  #1175 ) ;
#224 = VERTEX_POINT ( 'NONE', #375 ) ;
#225 = DIRECTION ( 'NONE',  ( -1.000000000000000000, 2.168404344971009854E-16, -0.000000000000000000 ) ) ;
#226 = ORIENTED_EDGE ( 'NONE', *, *, #791, .F. ) ;
#227 = EDGE_CURVE ( 'NONE', #907, #1161, #422, .T. ) ;
#228 = CIRCLE ( 'NONE', #1086, 1.000000000000001110 ) ;
#229 = CARTESIAN_POINT ( 'NONE',  ( 16.16647109493833412, -9.000000000000001776, 0.000000000000000000 ) ) ;
#230 = CARTESIAN_POINT ( 'NONE',  ( 40.16643908409580632, 6.964216866035213727, 0.000000000000000000 ) ) ;
#231 = DIRECTION ( 'NONE',  ( 1.000000000000000000, 0.000000000000000000, 0.000000000000000000 ) ) ;
#232 = ORIENTED_EDGE ( 'NONE', *, *, #192, .F. ) ;
#233 = DIRECTION ( 'NONE',  ( -0.000000000000000000, -0.000000000000000000, -1.000000000000000000 ) ) ;
#234 = ORIENTED_EDGE ( 'NONE', *, *, #787, .F. ) ;
#235 = EDGE_CURVE ( 'NONE', #145, #419, #1001, .T. ) ;
#236 = LINE ( 'NONE', #319, #1089 ) ;
#237 = VECTOR ( 'NONE', #497, 1000.000000000000000 ) ;
#238 = DIRECTION ( 'NONE',  ( 1.000000000000000000, 0.000000000000000000, 0.000000000000000000 ) ) ;
#239 = CARTESIAN_POINT ( 'NONE',  ( 41.58020489614625603, -6.964216866035213727, 1.000000000000000000 ) ) ;
#240 = EDGE_LOOP ( 'NONE', ( #402, #396 ) ) ;
#241 = DIRECTION ( 'NONE',  ( 1.000000000000000000, 0.000000000000000000, 0.000000000000000000 ) ) ;
#242 = VERTEX_POINT ( 'NONE', #69 ) ;
#243 = FACE_OUTER_BOUND ( 'NONE', #702, .T. ) ;
#244 = DIRECTION ( 'NONE',  ( -1.000000000000000000, 0.000000000000000000, 0.000000000000000000 ) ) ;
#245 = EDGE_CURVE ( 'NONE', #1324, #1311, #1188, .T. ) ;
#246 = CARTESIAN_POINT ( 'NONE',  ( 38.66643908409580632, 6.964216866035213727, 1.000000000000000000 ) ) ;
#247 = VERTEX_POINT ( 'NONE', #487 ) ;
#248 = CARTESIAN_POINT ( 'NONE',  ( 35.40910512408581923, -0.7068829060252249663, 1.000000000000000000 ) ) ;
#249 = VERTEX_POINT ( 'NONE', #885 ) ;
#250 = VECTOR ( 'NONE', #754, 1000.000000000000000 ) ;
#251 = VECTOR ( 'NONE', #142, 1000.000000000000000 ) ;
#252 = DIRECTION ( 'NONE',  ( 1.000000000000000000, 0.000000000000000000, 0.000000000000000000 ) ) ;
#253 = CARTESIAN_POINT ( 'NONE',  ( -24.12667800987897238, 8.249999999999998224, 1.000000000000000000 ) ) ;
#254 = VECTOR ( 'NONE', #1301, 1000.000000000000000 ) ;
#255 = AXIS2_PLACEMENT_3D ( 'NONE', #1177, #587, #994 ) ;
#256 = EDGE_CURVE ( 'NONE', #282, #511, #56, .T. ) ;
#257 = FACE_OUTER_BOUND ( 'NONE', #373, .T. ) ;
#258 = ORIENTED_EDGE ( 'NONE', *, *, #958, .T. ) ;
#259 = DIRECTION ( 'NONE',  ( 0.000000000000000000, -1.000000000000000000, 0.000000000000000000 ) ) ;
#260 = ORIENTED_EDGE ( 'NONE', *, *, #1083, .F. ) ;
#261 = EDGE_CURVE ( 'NONE', #352, #242, #476, .T. ) ;
#262 = CARTESIAN_POINT ( 'NONE',  ( 40.87332199012102762, 10.00000000000000000, 1.000000000000000000 ) ) ;
#263 = CARTESIAN_POINT ( 'NONE',  ( 2.873321990121035174, 8.249999999999998224, 0.000000000000000000 ) ) ;
#264 = CARTESIAN_POINT ( 'NONE',  ( 46.33753885615624313, 0.7068829060252259655, 1.000000000000000000 ) ) ;
#265 = CARTESIAN_POINT ( 'NONE',  ( 40.16643908409580632, 6.964216866035213727, 1.000000000000000000 ) ) ;
#266 = ORIENTED_EDGE ( 'NONE', *, *, #484, .T. ) ;
#267 = ADVANCED_FACE ( 'NONE', ( #1179 ), #1278, .F. ) ;
#268 = DIRECTION ( 'NONE',  ( 0.000000000000000000, 0.000000000000000000, 1.000000000000000000 ) ) ;
#269 = AXIS2_PLACEMENT_3D ( 'NONE', #1275, #346, #757 ) ;
#270 = VERTEX_POINT ( 'NONE', #482 ) ;
#271 = AXIS2_PLACEMENT_3D ( 'NONE', #429, #197, #99 ) ;
#272 = CARTESIAN_POINT ( 'NONE',  ( 16.16647109493833412, -9.000000000000001776, 1.000000000000000000 ) ) ;
#273 = EDGE_CURVE ( 'NONE', #367, #931, #1090, .T. ) ;
#274 = DIRECTION ( 'NONE',  ( -0.000000000000000000, -0.000000000000000000, -1.000000000000000000 ) ) ;
#275 = AXIS2_PLACEMENT_3D ( 'NONE', #664, #296, #1309 ) ;
#276 = EDGE_LOOP ( 'NONE', ( #442, #758, #151, #489 ) ) ;
#277 = AXIS2_PLACEMENT_3D ( 'NONE', #621, #1027, #1204 ) ;
#278 = VECTOR ( 'NONE', #1218, 1000.000000000000000 ) ;
#279 = LINE ( 'NONE', #969, #206 ) ;
#280 = DIRECTION ( 'NONE',  ( -1.000000000000000000, 0.000000000000000000, 0.000000000000000000 ) ) ;
#281 = DIRECTION ( 'NONE',  ( 0.000000000000000000, 0.000000000000000000, 1.000000000000000000 ) ) ;
#282 = VERTEX_POINT ( 'NONE', #163 ) ;
#283 = DIRECTION ( 'NONE',  ( -0.000000000000000000, -0.000000000000000000, -1.000000000000000000 ) ) ;
#284 = PLANE ( 'NONE',  #462 ) ;
#285 = CARTESIAN_POINT ( 'NONE',  ( -2.126678009878963937, -10.00000000000000000, 1.000000000000000000 ) ) ;
#286 = VECTOR ( 'NONE', #564, 1000.000000000000000 ) ;
#287 = ORIENTED_EDGE ( 'NONE', *, *, #477, .T. ) ;
#288 = CARTESIAN_POINT ( 'NONE',  ( -21.12667800987896882, -10.00000000000000000, 0.000000000000000000 ) ) ;
#289 = CARTESIAN_POINT ( 'NONE',  ( -4.126678009878972375, 12.25000000000000000, 0.000000000000000000 ) ) ;
#290 = UNCERTAINTY_MEASURE_WITH_UNIT (LENGTH_MEASURE( 1.000000000000000082E-05 ), #781, 'distance_accuracy_value', 'NONE');
#291 = LINE ( 'NONE', #1003, #1261 ) ;
#292 = VECTOR ( 'NONE', #915, 1000.000000000000000 ) ;
#293 = EDGE_LOOP ( 'NONE', ( #725, #1099, #509, #888 ) ) ;
#294 = ADVANCED_FACE ( 'NONE', ( #579 ), #1282, .F. ) ;
#295 = ORIENTED_EDGE ( 'NONE', *, *, #1063, .F. ) ;
#296 = DIRECTION ( 'NONE',  ( 0.000000000000000000, 0.000000000000000000, 1.000000000000000000 ) ) ;
#297 = ORIENTED_EDGE ( 'NONE', *, *, #235, .F. ) ;
#298 = CYLINDRICAL_SURFACE ( 'NONE', #129, 3.500000000000003109 ) ;
#299 = LINE ( 'NONE', #714, #686 ) ;
#300 = LINE ( 'NONE', #709, #292 ) ;
#301 = ORIENTED_EDGE ( 'NONE', *, *, #390, .F. ) ;
#302 = DIRECTION ( 'NONE',  ( -1.000000000000000000, 0.000000000000000000, 0.000000000000000000 ) ) ;
#303 = AXIS2_PLACEMENT_3D ( 'NONE', #239, #474, #231 ) ;
#304 = EDGE_CURVE ( 'NONE', #849, #775, #1190, .T. ) ;
#305 = PLANE ( 'NONE',  #342 ) ;
#306 = ORIENTED_EDGE ( 'NONE', *, *, #946, .T. ) ;
#307 = ORIENTED_EDGE ( 'NONE', *, *, #1100, .F. ) ;
#308 = ORIENTED_EDGE ( 'NONE', *, *, #67, .T. ) ;
#309 = EDGE_CURVE ( 'NONE', #1324, #1036, #750, .T. ) ;
#310 = CARTESIAN_POINT ( 'NONE',  ( -24.12667800987897238, -12.25000000000000533, 1.000000000000000000 ) ) ;
#311 =( GEOMETRIC_REPRESENTATION_CONTEXT ( 3 ) GLOBAL_UNCERTAINTY_ASSIGNED_CONTEXT ( ( #290 ) ) GLOBAL_UNIT_ASSIGNED_CONTEXT ( ( #781, #594, #379 ) ) REPRESENTATION_CONTEXT ( 'NONE', 'WORKASPACE' ) );
#312 = ORIENTED_EDGE ( 'NONE', *, *, #201, .T. ) ;
#313 = EDGE_CURVE ( 'NONE', #145, #907, #995, .T. ) ;
#314 = ORIENTED_EDGE ( 'NONE', *, *, #763, .T. ) ;
#315 = CARTESIAN_POINT ( 'NONE',  ( -24.12667800987897238, -8.250000000000005329, 1.000000000000000000 ) ) ;
#316 = EDGE_LOOP ( 'NONE', ( #266, #967, #4, #187 ) ) ;
#317 = VECTOR ( 'NONE', #769, 1000.000000000000000 ) ;
#318 = AXIS2_PLACEMENT_3D ( 'NONE', #1076, #76, #154 ) ;
#319 = CARTESIAN_POINT ( 'NONE',  ( 40.16647109493834478, -9.974986807609294459, 0.000000000000000000 ) ) ;
#320 = ORIENTED_EDGE ( 'NONE', *, *, #1024, .T. ) ;
#321 = CARTESIAN_POINT ( 'NONE',  ( 16.16647109493833412, -4.999999999999999112, 1.000000000000000000 ) ) ;
#322 = VERTEX_POINT ( 'NONE', #389 ) ;
#323 = DIRECTION ( 'NONE',  ( -0.000000000000000000, -0.000000000000000000, -1.000000000000000000 ) ) ;
#324 = CARTESIAN_POINT ( 'NONE',  ( 16.16647109493833412, -4.999999999999999112, 1.000000000000000000 ) ) ;
#325 = EDGE_CURVE ( 'NONE', #188, #270, #1223, .T. ) ;
#326 = DIRECTION ( 'NONE',  ( 1.000000000000000000, 0.000000000000000000, 0.000000000000000000 ) ) ;
#327 = ORIENTED_EDGE ( 'NONE', *, *, #432, .F. ) ;
#328 = ORIENTED_EDGE ( 'NONE', *, *, #861, .F. ) ;
#329 = CIRCLE ( 'NONE', #220, 1.500000000000001332 ) ;
#330 = DIRECTION ( 'NONE',  ( 1.000000000000000000, 0.000000000000000000, 0.000000000000000000 ) ) ;
#331 = CIRCLE ( 'NONE', #718, 1.500000000000001332 ) ;
#332 = CARTESIAN_POINT ( 'NONE',  ( -2.126678009878963937, -10.00000000000000000, 0.000000000000000000 ) ) ;
#333 = CIRCLE ( 'NONE', #362, 1.500000000000001332 ) ;
#334 = LINE ( 'NONE', #810, #423 ) ;
#335 = EDGE_LOOP ( 'NONE', ( #880, #111 ) ) ;
#336 = FACE_OUTER_BOUND ( 'NONE', #996, .T. ) ;
#337 = EDGE_CURVE ( 'NONE', #352, #966, #904, .T. ) ;
#338 = ORIENTED_EDGE ( 'NONE', *, *, #1217, .T. ) ;
#339 = AXIS2_PLACEMENT_3D ( 'NONE', #1032, #728, #528 ) ;
#340 = CARTESIAN_POINT ( 'NONE',  ( 16.16647109493833057, 5.000000000000000888, 1.000000000000000000 ) ) ;
#341 = CIRCLE ( 'NONE', #277, 0.9999999999999974465 ) ;
#342 = AXIS2_PLACEMENT_3D ( 'NONE', #2, #83, #804 ) ;
#343 = CARTESIAN_POINT ( 'NONE',  ( 32.40910512408581923, -0.7068829060252251884, 1.000000000000000000 ) ) ;
#344 = DIRECTION ( 'NONE',  ( 1.000000000000000000, 0.000000000000000000, 0.000000000000000000 ) ) ;
#345 = ORIENTED_EDGE ( 'NONE', *, *, #787, .T. ) ;
#346 = DIRECTION ( 'NONE',  ( 0.000000000000000000, 0.000000000000000000, 1.000000000000000000 ) ) ;
#347 = ORIENTED_EDGE ( 'NONE', *, *, #96, .F. ) ;
#348 = EDGE_CURVE ( 'NONE', #203, #839, #166, .T. ) ;
#349 = DIRECTION ( 'NONE',  ( 0.000000000000000000, 0.000000000000000000, 1.000000000000000000 ) ) ;
#350 = CYLINDRICAL_SURFACE ( 'NONE', #830, 1.500000000000001332 ) ;
#351 = CARTESIAN_POINT ( 'NONE',  ( 40.16643908409580632, 6.964216866035213727, 1.000000000000000000 ) ) ;
#352 = VERTEX_POINT ( 'NONE', #1124 ) ;
#353 = DIRECTION ( 'NONE',  ( -1.000000000000000000, -8.673617379884035472E-16, 0.000000000000000000 ) ) ;
#354 = EDGE_LOOP ( 'NONE', ( #405, #205 ) ) ;
#355 = LINE ( 'NONE', #383, #811 ) ;
#356 = EDGE_CURVE ( 'NONE', #249, #502, #299, .T. ) ;
#357 = CARTESIAN_POINT ( 'NONE',  ( -3.126678009878964826, 10.00000000000000000, 1.000000000000000000 ) ) ;
#358 = PLANE ( 'NONE',  #771 ) ;
#359 = ORIENTED_EDGE ( 'NONE', *, *, #606, .F. ) ;
#360 = LINE ( 'NONE', #60, #570 ) ;
#361 = ADVANCED_FACE ( 'NONE', ( #110 ), #185, .F. ) ;
#362 = AXIS2_PLACEMENT_3D ( 'NONE', #265, #560, #948 ) ;
#363 = VERTEX_POINT ( 'NONE', #593 ) ;
#364 = CARTESIAN_POINT ( 'NONE',  ( 41.66643908409580632, 6.964216866035213727, 1.000000000000000000 ) ) ;
#365 = CARTESIAN_POINT ( 'NONE',  ( -3.126678009878964826, -10.00000000000000000, 0.000000000000000000 ) ) ;
#366 = CARTESIAN_POINT ( 'NONE',  ( 24.16647109493833057, -5.000000000000000888, 1.000000000000000000 ) ) ;
#367 = VERTEX_POINT ( 'NONE', #194 ) ;
#368 = CARTESIAN_POINT ( 'NONE',  ( 16.16647109493833057, 9.000000000000001776, 0.000000000000000000 ) ) ;
#369 = DIRECTION ( 'NONE',  ( 0.000000000000000000, 0.000000000000000000, 1.000000000000000000 ) ) ;
#370 = DIRECTION ( 'NONE',  ( 1.000000000000000000, 1.839858232096613368E-16, -0.000000000000000000 ) ) ;
#371 = VECTOR ( 'NONE', #886, 1000.000000000000000 ) ;
#372 = CARTESIAN_POINT ( 'NONE',  ( -24.12667800987897238, -8.250000000000005329, 0.000000000000000000 ) ) ;
#373 = EDGE_LOOP ( 'NONE', ( #435, #13, #616, #1145 ) ) ;
#374 = EDGE_CURVE ( 'NONE', #195, #98, #382, .T. ) ;
#375 = CARTESIAN_POINT ( 'NONE',  ( 49.33753885615624313, 0.7068829060252261876, 0.000000000000000000 ) ) ;
#376 = ORIENTED_EDGE ( 'NONE', *, *, #867, .T. ) ;
#377 = CARTESIAN_POINT ( 'NONE',  ( -24.12667800987897238, -12.25000000000000533, 0.000000000000000000 ) ) ;
#378 = CARTESIAN_POINT ( 'NONE',  ( 40.16647109493833767, -12.25000000000000000, 1.000000000000000000 ) ) ;
#379 =( NAMED_UNIT ( * ) SI_UNIT ( $, .STERADIAN. ) SOLID_ANGLE_UNIT ( ) );
#380 = ORIENTED_EDGE ( 'NONE', *, *, #356, .F. ) ;
#381 = AXIS2_PLACEMENT_3D ( 'NONE', #1013, #434, #326 ) ;
#382 = CIRCLE ( 'NONE', #794, 1.000000000000001110 ) ;
#383 = CARTESIAN_POINT ( 'NONE',  ( -4.126678009878972375, -12.25000000000000533, 0.000000000000000000 ) ) ;
#384 = EDGE_CURVE ( 'NONE', #693, #363, #341, .T. ) ;
#385 = CYLINDRICAL_SURFACE ( 'NONE', #208, 1.000000000000000888 ) ;
#386 = ORIENTED_EDGE ( 'NONE', *, *, #527, .T. ) ;
#387 = CARTESIAN_POINT ( 'NONE',  ( -22.12667800987896527, -10.00000000000000000, 0.000000000000000000 ) ) ;
#388 = LINE ( 'NONE', #908, #1297 ) ;
#389 = CARTESIAN_POINT ( 'NONE',  ( 41.66643908409580632, 6.964216866035213727, 1.000000000000000000 ) ) ;
#390 = EDGE_CURVE ( 'NONE', #1036, #214, #708, .T. ) ;
#391 = VECTOR ( 'NONE', #865, 1000.000000000000000 ) ;
#392 = VERTEX_POINT ( 'NONE', #1014 ) ;
#393 = ORIENTED_EDGE ( 'NONE', *, *, #390, .T. ) ;
#394 = EDGE_CURVE ( 'NONE', #419, #1161, #926, .T. ) ;
#395 = LINE ( 'NONE', #263, #1021 ) ;
#396 = ORIENTED_EDGE ( 'NONE', *, *, #1283, .T. ) ;
#397 = DIRECTION ( 'NONE',  ( 1.000000000000000000, 0.000000000000000000, 0.000000000000000000 ) ) ;
#398 = CARTESIAN_POINT ( 'NONE',  ( -24.12667800987897238, 12.24999999999999467, 1.000000000000000000 ) ) ;
#399 = ORIENTED_EDGE ( 'NONE', *, *, #1206, .T. ) ;
#400 = AXIS2_PLACEMENT_3D ( 'NONE', #387, #456, #768 ) ;
#401 = EDGE_CURVE ( 'NONE', #188, #554, #1198, .T. ) ;
#402 = ORIENTED_EDGE ( 'NONE', *, *, #348, .T. ) ;
#403 = CARTESIAN_POINT ( 'NONE',  ( 24.16647109493833057, 9.000000000000001776, 1.000000000000000000 ) ) ;
#404 = DIRECTION ( 'NONE',  ( 1.000000000000000000, 0.000000000000000000, 0.000000000000000000 ) ) ;
#405 = ORIENTED_EDGE ( 'NONE', *, *, #648, .T. ) ;
#406 = ORIENTED_EDGE ( 'NONE', *, *, #432, .T. ) ;
#407 = CARTESIAN_POINT ( 'NONE',  ( 16.16647109493833057, 9.000000000000001776, 1.000000000000000000 ) ) ;
#408 = ADVANCED_FACE ( 'NONE', ( #812 ), #385, .F. ) ;
#409 = AXIS2_PLACEMENT_3D ( 'NONE', #506, #1312, #397 ) ;
#410 = LINE ( 'NONE', #701, #1300 ) ;
#411 = DIRECTION ( 'NONE',  ( -0.000000000000000000, -0.000000000000000000, -1.000000000000000000 ) ) ;
#412 = ORIENTED_EDGE ( 'NONE', *, *, #940, .F. ) ;
#413 = CARTESIAN_POINT ( 'NONE',  ( 40.16647109493834478, -9.974986807609294459, 1.000000000000000000 ) ) ;
#414 = ORIENTED_EDGE ( 'NONE', *, *, #877, .F. ) ;
#415 = CARTESIAN_POINT ( 'NONE',  ( -1.126678009878962827, -10.00000000000000000, 1.000000000000000000 ) ) ;
#416 = ORIENTED_EDGE ( 'NONE', *, *, #337, .F. ) ;
#417 = AXIS2_PLACEMENT_3D ( 'NONE', #1323, #1120, #819 ) ;
#418 = DIRECTION ( 'NONE',  ( 1.000000000000000000, 0.000000000000000000, 0.000000000000000000 ) ) ;
#419 = VERTEX_POINT ( 'NONE', #914 ) ;
#420 = LINE ( 'NONE', #1037, #505 ) ;
#421 = VERTEX_POINT ( 'NONE', #1322 ) ;
#422 = CIRCLE ( 'NONE', #1231, 0.9999999999999974465 ) ;
#423 = VECTOR ( 'NONE', #217, 1000.000000000000000 ) ;
#424 = LINE ( 'NONE', #842, #962 ) ;
#425 = EDGE_CURVE ( 'NONE', #626, #874, #104, .T. ) ;
#426 = LINE ( 'NONE', #324, #1228 ) ;
#427 = FACE_OUTER_BOUND ( 'NONE', #430, .T. ) ;
#428 = EDGE_LOOP ( 'NONE', ( #495, #121, #212, #165 ) ) ;
#429 = CARTESIAN_POINT ( 'NONE',  ( -2.126678009878963937, 10.00000000000000000, 1.000000000000000000 ) ) ;
#430 = EDGE_LOOP ( 'NONE', ( #813, #36, #681, #20 ) ) ;
#431 = CARTESIAN_POINT ( 'NONE',  ( 24.16647109493832701, 4.999999999999998224, 1.000000000000000000 ) ) ;
#432 = EDGE_CURVE ( 'NONE', #824, #639, #291, .T. ) ;
#433 = PLANE ( 'NONE',  #140 ) ;
#434 = DIRECTION ( 'NONE',  ( 0.000000000000000000, 0.000000000000000000, 1.000000000000000000 ) ) ;
#435 = ORIENTED_EDGE ( 'NONE', *, *, #999, .F. ) ;
#436 = EDGE_CURVE ( 'NONE', #637, #203, #920, .T. ) ;
#437 = ORIENTED_EDGE ( 'NONE', *, *, #557, .F. ) ;
#438 = CARTESIAN_POINT ( 'NONE',  ( 40.87332199012102762, 12.24999999999999822, 0.000000000000000000 ) ) ;
#439 =( GEOMETRIC_REPRESENTATION_CONTEXT ( 3 ) GLOBAL_UNCERTAINTY_ASSIGNED_CONTEXT ( ( #989 ) ) GLOBAL_UNIT_ASSIGNED_CONTEXT ( ( #21, #631, #1216 ) ) REPRESENTATION_CONTEXT ( 'NONE', 'WORKASPACE' ) );
#440 = DIRECTION ( 'NONE',  ( 1.000000000000000000, 0.000000000000000000, 0.000000000000000000 ) ) ;
#441 = CARTESIAN_POINT ( 'NONE',  ( 49.33753885615624313, 0.7068829060252261876, 1.000000000000000000 ) ) ;
#442 = ORIENTED_EDGE ( 'NONE', *, *, #201, .F. ) ;
#443 = CARTESIAN_POINT ( 'NONE',  ( 41.58020489614625603, -6.964216866035213727, 1.000000000000000000 ) ) ;
#444 = ADVANCED_FACE ( 'NONE', ( #1098 ), #305, .T. ) ;
#445 = EDGE_LOOP ( 'NONE', ( #172, #807 ) ) ;
#446 = VECTOR ( 'NONE', #627, 1000.000000000000000 ) ;
#447 = DIRECTION ( 'NONE',  ( -0.000000000000000000, -0.000000000000000000, -1.000000000000000000 ) ) ;
#448 = AXIS2_PLACEMENT_3D ( 'NONE', #788, #894, #1294 ) ;
#449 = VECTOR ( 'NONE', #542, 1000.000000000000000 ) ;
#450 = CARTESIAN_POINT ( 'NONE',  ( 24.16647109493833412, -9.000000000000001776, 0.000000000000000000 ) ) ;
#451 = CARTESIAN_POINT ( 'NONE',  ( -24.12667800987897238, -8.250000000000005329, 1.000000000000000000 ) ) ;
#452 = ORIENTED_EDGE ( 'NONE', *, *, #1232, .F. ) ;
#453 = PLANE ( 'NONE',  #803 ) ;
#454 = EDGE_LOOP ( 'NONE', ( #380, #1004, #376, #1254 ) ) ;
#455 = EDGE_CURVE ( 'NONE', #1036, #282, #410, .T. ) ;
#456 = DIRECTION ( 'NONE',  ( 0.000000000000000000, 0.000000000000000000, 1.000000000000000000 ) ) ;
#457 = CARTESIAN_POINT ( 'NONE',  ( 24.16647109493833057, 9.000000000000001776, 1.000000000000000000 ) ) ;
#458 = CARTESIAN_POINT ( 'NONE',  ( 24.16647109493833412, -9.000000000000001776, 1.000000000000000000 ) ) ;
#459 = ORIENTED_EDGE ( 'NONE', *, *, #705, .F. ) ;
#460 = CARTESIAN_POINT ( 'NONE',  ( -21.12667800987896882, 10.00000000000000000, 0.000000000000000000 ) ) ;
#461 = EDGE_LOOP ( 'NONE', ( #871, #1289, #42, #1214 ) ) ;
#462 = AXIS2_PLACEMENT_3D ( 'NONE', #798, #1088, #897 ) ;
#463 = DIRECTION ( 'NONE',  ( -0.000000000000000000, -0.000000000000000000, -1.000000000000000000 ) ) ;
#464 = LINE ( 'NONE', #491, #615 ) ;
#465 = CARTESIAN_POINT ( 'NONE',  ( 40.87332199012102762, 12.24999999999999822, 0.000000000000000000 ) ) ;
#466 = CARTESIAN_POINT ( 'NONE',  ( 2.873321990121035174, 8.249999999999998224, 0.000000000000000000 ) ) ;
#467 = ORIENTED_EDGE ( 'NONE', *, *, #780, .T. ) ;
#468 = CARTESIAN_POINT ( 'NONE',  ( 24.16647109493833412, -9.000000000000001776, 1.000000000000000000 ) ) ;
#469 = AXIS2_PLACEMENT_3D ( 'NONE', #230, #216, #543 ) ;
#470 = FACE_BOUND ( 'NONE', #1166, .T. ) ;
#471 = APPLICATION_CONTEXT ( 'automotive_design' ) ;
#472 = CARTESIAN_POINT ( 'NONE',  ( 40.16647109493833767, -9.974986807609294459, 1.000000000000000000 ) ) ;
#473 = ADVANCED_FACE ( 'NONE', ( #910 ), #1313, .F. ) ;
#474 = DIRECTION ( 'NONE',  ( 0.000000000000000000, 0.000000000000000000, 1.000000000000000000 ) ) ;
#475 = VERTEX_POINT ( 'NONE', #1039 ) ;
#476 = LINE ( 'NONE', #378, #1149 ) ;
#477 = EDGE_CURVE ( 'NONE', #176, #115, #8, .T. ) ;
#478 = VECTOR ( 'NONE', #755, 1000.000000000000000 ) ;
#479 = EDGE_LOOP ( 'NONE', ( #1173, #260 ) ) ;
#480 = PRODUCT_RELATED_PRODUCT_CATEGORY ( 'part', '', ( #48 ) ) ;
#481 = LINE ( 'NONE', #174, #1233 ) ;
#482 = CARTESIAN_POINT ( 'NONE',  ( -24.12667800987897238, 12.24999999999999467, 0.000000000000000000 ) ) ;
#483 = ORIENTED_EDGE ( 'NONE', *, *, #1199, .T. ) ;
#484 = EDGE_CURVE ( 'NONE', #78, #1311, #236, .T. ) ;
#485 = VECTOR ( 'NONE', #238, 1000.000000000000000 ) ;
#486 = CARTESIAN_POINT ( 'NONE',  ( -2.126678009878963937, 10.00000000000000000, 1.000000000000000000 ) ) ;
#487 = CARTESIAN_POINT ( 'NONE',  ( -24.12667800987897238, 8.249999999999998224, 0.000000000000000000 ) ) ;
#488 = VECTOR ( 'NONE', #986, 1000.000000000000000 ) ;
#489 = ORIENTED_EDGE ( 'NONE', *, *, #751, .T. ) ;
#490 = CIRCLE ( 'NONE', #255, 0.9999999999999974465 ) ;
#491 = CARTESIAN_POINT ( 'NONE',  ( 16.16647109493833057, 5.000000000000000888, 1.000000000000000000 ) ) ;
#492 = DIRECTION ( 'NONE',  ( 1.000000000000000000, 0.000000000000000000, -0.000000000000000000 ) ) ;
#493 = ADVANCED_FACE ( 'NONE', ( #836 ), #1059, .T. ) ;
#494 = DIRECTION ( 'NONE',  ( 8.673617379884029556E-16, 1.000000000000000000, -0.000000000000000000 ) ) ;
#495 = ORIENTED_EDGE ( 'NONE', *, *, #1217, .F. ) ;
#496 = DIRECTION ( 'NONE',  ( -0.000000000000000000, -0.000000000000000000, -1.000000000000000000 ) ) ;
#497 = DIRECTION ( 'NONE',  ( -1.000000000000000000, -2.602085213965211135E-16, 0.000000000000000000 ) ) ;
#498 = DIRECTION ( 'NONE',  ( -0.000000000000000000, -0.000000000000000000, -1.000000000000000000 ) ) ;
#499 = ADVANCED_FACE ( 'NONE', ( #122 ), #1246, .F. ) ;
#500 = SHAPE_DEFINITION_REPRESENTATION ( #656, #1061 ) ;
#501 = CIRCLE ( 'NONE', #269, 0.9999999999999974465 ) ;
#502 = VERTEX_POINT ( 'NONE', #1155 ) ;
#503 = VERTEX_POINT ( 'NONE', #340 ) ;
#504 = DIRECTION ( 'NONE',  ( 0.000000000000000000, 0.000000000000000000, 1.000000000000000000 ) ) ;
#505 = VECTOR ( 'NONE', #225, 1000.000000000000000 ) ;
#506 = CARTESIAN_POINT ( 'NONE',  ( -2.126678009878963937, -10.00000000000000000, 1.000000000000000000 ) ) ;
#507 = CARTESIAN_POINT ( 'NONE',  ( 40.08020489614625603, -6.964216866035213727, 1.000000000000000000 ) ) ;
#508 = EDGE_CURVE ( 'NONE', #214, #188, #761, .T. ) ;
#509 = ORIENTED_EDGE ( 'NONE', *, *, #436, .T. ) ;
#510 = CIRCLE ( 'NONE', #275, 1.000000000000001110 ) ;
#511 = VERTEX_POINT ( 'NONE', #438 ) ;
#512 = DIRECTION ( 'NONE',  ( -0.000000000000000000, -0.000000000000000000, -1.000000000000000000 ) ) ;
#513 = VECTOR ( 'NONE', #522, 1000.000000000000000 ) ;
#514 = AXIS2_PLACEMENT_3D ( 'NONE', #1146, #939, #30 ) ;
#515 = EDGE_LOOP ( 'NONE', ( #734, #1065, #1113, #1295 ) ) ;
#516 = DIRECTION ( 'NONE',  ( -0.000000000000000000, -0.000000000000000000, -1.000000000000000000 ) ) ;
#517 = EDGE_LOOP ( 'NONE', ( #258, #1316, #314, #1270 ) ) ;
#518 = ORIENTED_EDGE ( 'NONE', *, *, #67, .F. ) ;
#519 = DIRECTION ( 'NONE',  ( 0.000000000000000000, 0.000000000000000000, 1.000000000000000000 ) ) ;
#520 = ORIENTED_EDGE ( 'NONE', *, *, #1185, .F. ) ;
#521 = PRODUCT_DEFINITION ( 'UNKNOWN', '', #179, #719 ) ;
#522 = DIRECTION ( 'NONE',  ( -0.000000000000000000, 1.000000000000000000, -0.000000000000000000 ) ) ;
#523 = VERTEX_POINT ( 'NONE', #827 ) ;
#524 = ORIENTED_EDGE ( 'NONE', *, *, #1063, .T. ) ;
#525 = LINE ( 'NONE', #315, #1186 ) ;
#526 = ORIENTED_EDGE ( 'NONE', *, *, #273, .F. ) ;
#527 = EDGE_CURVE ( 'NONE', #503, #533, #535, .T. ) ;
#528 = DIRECTION ( 'NONE',  ( -1.000000000000000000, 0.000000000000000000, 0.000000000000000000 ) ) ;
#529 = CYLINDRICAL_SURFACE ( 'NONE', #657, 0.9999999999999974465 ) ;
#530 = LINE ( 'NONE', #289, #237 ) ;
#531 = ORIENTED_EDGE ( 'NONE', *, *, #544, .F. ) ;
#532 = PLANE ( 'NONE',  #199 ) ;
#533 = VERTEX_POINT ( 'NONE', #431 ) ;
#534 = EDGE_CURVE ( 'NONE', #419, #145, #916, .T. ) ;
#535 = LINE ( 'NONE', #744, #687 ) ;
#536 = DIRECTION ( 'NONE',  ( 3.252606517456514781E-16, 1.000000000000000000, -0.000000000000000000 ) ) ;
#537 = EDGE_CURVE ( 'NONE', #247, #1319, #424, .T. ) ;
#538 = PLANE ( 'NONE',  #898 ) ;
#539 = EDGE_LOOP ( 'NONE', ( #689, #416, #234, #1251 ) ) ;
#540 = ORIENTED_EDGE ( 'NONE', *, *, #384, .F. ) ;
#541 = CIRCLE ( 'NONE', #193, 10.00000000000000178 ) ;
#542 = DIRECTION ( 'NONE',  ( -0.000000000000000000, -0.000000000000000000, -1.000000000000000000 ) ) ;
#543 = DIRECTION ( 'NONE',  ( 1.000000000000000000, 0.000000000000000000, 0.000000000000000000 ) ) ;
#544 = EDGE_CURVE ( 'NONE', #322, #1229, #580, .T. ) ;
#545 = DIRECTION ( 'NONE',  ( 1.000000000000000000, 0.000000000000000000, 0.000000000000000000 ) ) ;
#546 = VERTEX_POINT ( 'NONE', #229 ) ;
#547 = FACE_OUTER_BOUND ( 'NONE', #1026, .T. ) ;
#548 = ORIENTED_EDGE ( 'NONE', *, *, #1290, .F. ) ;
#549 = LINE ( 'NONE', #1046, #747 ) ;
#550 = AXIS2_PLACEMENT_3D ( 'NONE', #603, #519, #204 ) ;
#551 = DIRECTION ( 'NONE',  ( -0.000000000000000000, -0.000000000000000000, -1.000000000000000000 ) ) ;
#552 = EDGE_CURVE ( 'NONE', #190, #716, #134, .T. ) ;
#553 = DIRECTION ( 'NONE',  ( -0.000000000000000000, -0.000000000000000000, -1.000000000000000000 ) ) ;
#554 = VERTEX_POINT ( 'NONE', #1052 ) ;
#555 = FACE_OUTER_BOUND ( 'NONE', #276, .T. ) ;
#556 = EDGE_LOOP ( 'NONE', ( #601, #1049, #857, #307, #459, #727, #1268, #1158, #1042, #1020 ) ) ;
#557 = EDGE_CURVE ( 'NONE', #1260, #626, #860, .T. ) ;
#558 = DIRECTION ( 'NONE',  ( -1.000000000000000000, 0.000000000000000000, 0.000000000000000000 ) ) ;
#559 = LINE ( 'NONE', #343, #250 ) ;
#560 = DIRECTION ( 'NONE',  ( 0.000000000000000000, 0.000000000000000000, 1.000000000000000000 ) ) ;
#561 = ORIENTED_EDGE ( 'NONE', *, *, #477, .F. ) ;
#562 = DIRECTION ( 'NONE',  ( 8.673617379884035472E-16, -1.000000000000000000, 0.000000000000000000 ) ) ;
#563 = ORIENTED_EDGE ( 'NONE', *, *, #877, .T. ) ;
#564 = DIRECTION ( 'NONE',  ( -0.000000000000000000, -0.000000000000000000, -1.000000000000000000 ) ) ;
#565 = DIRECTION ( 'NONE',  ( -1.000000000000000000, 0.000000000000000000, 0.000000000000000000 ) ) ;
#566 = DIRECTION ( 'NONE',  ( 1.000000000000000000, 0.000000000000000000, 0.000000000000000000 ) ) ;
#567 = LINE ( 'NONE', #58, #173 ) ;
#568 = ORIENTED_EDGE ( 'NONE', *, *, #705, .T. ) ;
#569 = DIRECTION ( 'NONE',  ( -0.000000000000000000, -0.000000000000000000, -1.000000000000000000 ) ) ;
#570 = VECTOR ( 'NONE', #848, 1000.000000000000000 ) ;
#571 = EDGE_CURVE ( 'NONE', #546, #139, #549, .T. ) ;
#572 = CARTESIAN_POINT ( 'NONE',  ( 2.873321990121038283, -8.250000000000001776, 1.000000000000000000 ) ) ;
#573 = FACE_OUTER_BOUND ( 'NONE', #84, .T. ) ;
#574 = DIRECTION ( 'NONE',  ( -0.000000000000000000, -0.000000000000000000, -1.000000000000000000 ) ) ;
#575 = ORIENTED_EDGE ( 'NONE', *, *, #791, .T. ) ;
#576 = LINE ( 'NONE', #272, #677 ) ;
#577 = AXIS2_PLACEMENT_3D ( 'NONE', #85, #808, #1271 ) ;
#578 = EDGE_CURVE ( 'NONE', #198, #190, #953, .T. ) ;
#579 = FACE_OUTER_BOUND ( 'NONE', #454, .T. ) ;
#580 = CIRCLE ( 'NONE', #859, 1.500000000000001332 ) ;
#581 = VERTEX_POINT ( 'NONE', #1230 ) ;
#582 = ADVANCED_FACE ( 'NONE', ( #243 ), #1265, .F. ) ;
#583 = DIRECTION ( 'NONE',  ( -0.000000000000000000, -0.000000000000000000, -1.000000000000000000 ) ) ;
#584 = CIRCLE ( 'NONE', #1112, 1.500000000000001332 ) ;
#585 = ADVANCED_FACE ( 'NONE', ( #141 ), #116, .F. ) ;
#586 = ORIENTED_EDGE ( 'NONE', *, *, #62, .F. ) ;
#587 = DIRECTION ( 'NONE',  ( 0.000000000000000000, 0.000000000000000000, 1.000000000000000000 ) ) ;
#588 = DIRECTION ( 'NONE',  ( -0.000000000000000000, -0.000000000000000000, -1.000000000000000000 ) ) ;
#589 = ORIENTED_EDGE ( 'NONE', *, *, #356, .T. ) ;
#590 = ADVANCED_FACE ( 'NONE', ( #1077 ), #1107, .F. ) ;
#591 = CARTESIAN_POINT ( 'NONE',  ( -2.126678009878963937, 10.00000000000000000, 0.000000000000000000 ) ) ;
#592 = FACE_OUTER_BOUND ( 'NONE', #609, .T. ) ;
#593 = CARTESIAN_POINT ( 'NONE',  ( -21.12667800987896882, -10.00000000000000000, 1.000000000000000000 ) ) ;
#594 =( NAMED_UNIT ( * ) PLANE_ANGLE_UNIT ( ) SI_UNIT ( $, .RADIAN. ) );
#595 = AXIS2_PLACEMENT_3D ( 'NONE', #63, #370, #1072 ) ;
#596 = ORIENTED_EDGE ( 'NONE', *, *, #822, .T. ) ;
#597 = AXIS2_PLACEMENT_3D ( 'NONE', #1006, #1203, #846 ) ;
#598 = FACE_BOUND ( 'NONE', #732, .T. ) ;
#599 = DIRECTION ( 'NONE',  ( 0.000000000000000000, 0.000000000000000000, 1.000000000000000000 ) ) ;
#600 = DIRECTION ( 'NONE',  ( -0.000000000000000000, -0.000000000000000000, -1.000000000000000000 ) ) ;
#601 = ORIENTED_EDGE ( 'NONE', *, *, #484, .F. ) ;
#602 = ORIENTED_EDGE ( 'NONE', *, *, #106, .T. ) ;
#603 = CARTESIAN_POINT ( 'NONE',  ( 33.90910512408581923, -0.7068829060252251884, 0.000000000000000000 ) ) ;
#604 = ORIENTED_EDGE ( 'NONE', *, *, #1224, .F. ) ;
#605 = DIRECTION ( 'NONE',  ( 0.000000000000000000, -1.000000000000000000, 0.000000000000000000 ) ) ;
#606 = EDGE_CURVE ( 'NONE', #475, #27, #983, .T. ) ;
#607 = CARTESIAN_POINT ( 'NONE',  ( -24.12667800987897238, 12.24999999999999467, 1.000000000000000000 ) ) ;
#608 = VERTEX_POINT ( 'NONE', #55 ) ;
#609 = EDGE_LOOP ( 'NONE', ( #90, #452, #1285, #742 ) ) ;
#610 = DIRECTION ( 'NONE',  ( 1.000000000000000000, 0.000000000000000000, 0.000000000000000000 ) ) ;
#611 = COLOUR_RGB ( '',0.7921568627450980005, 0.8196078431372548767, 0.9333333333333333481 ) ;
#612 = ORIENTED_EDGE ( 'NONE', *, *, #1007, .T. ) ;
#613 = CARTESIAN_POINT ( 'NONE',  ( -2.126678009878963937, 10.00000000000000000, 0.000000000000000000 ) ) ;
#614 = CARTESIAN_POINT ( 'NONE',  ( -22.12667800987896527, 10.00000000000000000, 1.000000000000000000 ) ) ;
#615 = VECTOR ( 'NONE', #61, 1000.000000000000000 ) ;
#616 = ORIENTED_EDGE ( 'NONE', *, *, #978, .T. ) ;
#617 = EDGE_CURVE ( 'NONE', #503, #1260, #464, .T. ) ;
#618 = LINE ( 'NONE', #413, #679 ) ;
#619 = AXIS2_PLACEMENT_3D ( 'NONE', #691, #890, #1288 ) ;
#620 = EDGE_LOOP ( 'NONE', ( #796, #925, #706, #211 ) ) ;
#621 = CARTESIAN_POINT ( 'NONE',  ( -22.12667800987896527, -10.00000000000000000, 1.000000000000000000 ) ) ;
#622 = CARTESIAN_POINT ( 'NONE',  ( 16.16647109493833057, 5.000000000000000888, 1.000000000000000000 ) ) ;
#623 = ADVANCED_FACE ( 'NONE', ( #963, #876, #182, #1071, #598, #977, #998, #470, #1304, #1169, #884, #868 ), #1277, .T. ) ;
#624 = VERTEX_POINT ( 'NONE', #1197 ) ;
#625 = LINE ( 'NONE', #1030, #1291 ) ;
#626 = VERTEX_POINT ( 'NONE', #694 ) ;
#627 = DIRECTION ( 'NONE',  ( 1.000000000000000000, -3.252606517456514781E-16, 0.000000000000000000 ) ) ;
#628 = FACE_BOUND ( 'NONE', #517, .T. ) ;
#629 = CARTESIAN_POINT ( 'NONE',  ( -23.12667800987896172, 10.00000000000000000, 0.000000000000000000 ) ) ;
#630 = VERTEX_POINT ( 'NONE', #572 ) ;
#631 =( NAMED_UNIT ( * ) PLANE_ANGLE_UNIT ( ) SI_UNIT ( $, .RADIAN. ) );
#632 = EDGE_CURVE ( 'NONE', #176, #824, #636, .T. ) ;
#633 = DIRECTION ( 'NONE',  ( -1.000000000000000000, 2.168404344971009854E-16, -0.000000000000000000 ) ) ;
#634 = FACE_OUTER_BOUND ( 'NONE', #539, .T. ) ;
#635 = FACE_OUTER_BOUND ( 'NONE', #1029, .T. ) ;
#636 = CIRCLE ( 'NONE', #64, 1.000000000000001110 ) ;
#637 = VERTEX_POINT ( 'NONE', #1096 ) ;
#638 = LINE ( 'NONE', #1075, #1310 ) ;
#639 = VERTEX_POINT ( 'NONE', #365 ) ;
#640 = EDGE_CURVE ( 'NONE', #966, #78, #355, .T. ) ;
#641 = CARTESIAN_POINT ( 'NONE',  ( 16.16647109493833412, -4.999999999999999112, 0.000000000000000000 ) ) ;
#642 = CARTESIAN_POINT ( 'NONE',  ( 40.87332199012102762, 0.000000000000000000, 0.000000000000000000 ) ) ;
#643 = DIRECTION ( 'NONE',  ( -0.000000000000000000, -0.000000000000000000, -1.000000000000000000 ) ) ;
#644 = VERTEX_POINT ( 'NONE', #288 ) ;
#645 = VERTEX_POINT ( 'NONE', #797 ) ;
#646 = VECTOR ( 'NONE', #574, 1000.000000000000000 ) ;
#647 = DIRECTION ( 'NONE',  ( -1.000000000000000000, -0.000000000000000000, -0.000000000000000000 ) ) ;
#648 = EDGE_CURVE ( 'NONE', #98, #195, #228, .T. ) ;
#649 = CARTESIAN_POINT ( 'NONE',  ( -22.12667800987896527, -10.00000000000000000, 1.000000000000000000 ) ) ;
#650 = LINE ( 'NONE', #441, #646 ) ;
#651 = ORIENTED_EDGE ( 'NONE', *, *, #261, .F. ) ;
#652 = DIRECTION ( 'NONE',  ( 0.000000000000000000, 0.000000000000000000, 1.000000000000000000 ) ) ;
#653 = ORIENTED_EDGE ( 'NONE', *, *, #632, .T. ) ;
#654 = CARTESIAN_POINT ( 'NONE',  ( 40.87332199012102762, 12.24999999999999822, 1.000000000000000000 ) ) ;
#655 = DIRECTION ( 'NONE',  ( -0.000000000000000000, 0.000000000000000000, -1.000000000000000000 ) ) ;
#656 = PRODUCT_DEFINITION_SHAPE ( 'NONE', 'NONE',  #521 ) ;
#657 = AXIS2_PLACEMENT_3D ( 'NONE', #649, #551, #934 ) ;
#658 = LINE ( 'NONE', #372, #1286 ) ;
#659 = ORIENTED_EDGE ( 'NONE', *, *, #815, .F. ) ;
#660 = DIRECTION ( 'NONE',  ( -0.000000000000000000, -0.000000000000000000, -1.000000000000000000 ) ) ;
#661 = ORIENTED_EDGE ( 'NONE', *, *, #1302, .T. ) ;
#662 = AXIS2_PLACEMENT_3D ( 'NONE', #614, #268, #175 ) ;
#663 = AXIS2_PLACEMENT_3D ( 'NONE', #10, #492, #1235 ) ;
#664 = CARTESIAN_POINT ( 'NONE',  ( -2.126678009878963937, -10.00000000000000000, 0.000000000000000000 ) ) ;
#665 = CARTESIAN_POINT ( 'NONE',  ( 40.08020489614625603, -6.964216866035213727, 0.000000000000000000 ) ) ;
#666 = DIRECTION ( 'NONE',  ( -3.050045567698648528E-15, -1.000000000000000000, 0.000000000000000000 ) ) ;
#667 = ORIENTED_EDGE ( 'NONE', *, *, #763, .F. ) ;
#668 = ADVANCED_FACE ( 'NONE', ( #901 ), #79, .T. ) ;
#669 = ORIENTED_EDGE ( 'NONE', *, *, #7, .F. ) ;
#670 = FACE_OUTER_BOUND ( 'NONE', #1012, .T. ) ;
#671 = DIRECTION ( 'NONE',  ( 0.000000000000000000, 0.000000000000000000, 1.000000000000000000 ) ) ;
#672 = CARTESIAN_POINT ( 'NONE',  ( -1.126678009878962827, 10.00000000000000000, 0.000000000000000000 ) ) ;
#673 = CARTESIAN_POINT ( 'NONE',  ( 40.87332199012102762, 0.000000000000000000, 0.000000000000000000 ) ) ;
#674 = ORIENTED_EDGE ( 'NONE', *, *, #534, .F. ) ;
#675 = APPLICATION_CONTEXT ( 'automotive_design' ) ;
#676 = EDGE_CURVE ( 'NONE', #644, #1106, #1318, .T. ) ;
#677 = VECTOR ( 'NONE', #1281, 1000.000000000000000 ) ;
#678 = CARTESIAN_POINT ( 'NONE',  ( 38.66643908409580632, 6.964216866035213727, 1.000000000000000000 ) ) ;
#679 = VECTOR ( 'NONE', #1227, 1000.000000000000000 ) ;
#680 = DIRECTION ( 'NONE',  ( -0.000000000000000000, 1.000000000000000000, -0.000000000000000000 ) ) ;
#681 = ORIENTED_EDGE ( 'NONE', *, *, #508, .F. ) ;
#682 = DIRECTION ( 'NONE',  ( 0.000000000000000000, -0.000000000000000000, -1.000000000000000000 ) ) ;
#683 = CARTESIAN_POINT ( 'NONE',  ( -4.126678009878972375, -12.25000000000000533, 1.000000000000000000 ) ) ;
#684 = ADVANCED_FACE ( 'NONE', ( #801 ), #698, .F. ) ;
#685 = CARTESIAN_POINT ( 'NONE',  ( 16.16647109493833057, 9.000000000000001776, 0.000000000000000000 ) ) ;
#686 = VECTOR ( 'NONE', #1104, 1000.000000000000000 ) ;
#687 = VECTOR ( 'NONE', #1138, 1000.000000000000000 ) ;
#688 = PRODUCT_CONTEXT ( 'NONE', #471, 'mechanical' ) ;
#689 = ORIENTED_EDGE ( 'NONE', *, *, #1264, .T. ) ;
#690 = LINE ( 'NONE', #168, #777 ) ;
#691 = CARTESIAN_POINT ( 'NONE',  ( 40.87332199012102762, 0.000000000000000000, 1.000000000000000000 ) ) ;
#692 = EDGE_CURVE ( 'NONE', #115, #639, #510, .T. ) ;
#693 = VERTEX_POINT ( 'NONE', #1178 ) ;
#694 = CARTESIAN_POINT ( 'NONE',  ( 24.16647109493832701, 4.999999999999998224, 0.000000000000000000 ) ) ;
#695 = DIRECTION ( 'NONE',  ( -0.000000000000000000, -0.000000000000000000, -1.000000000000000000 ) ) ;
#696 = DIRECTION ( 'NONE',  ( -1.000000000000000000, 0.000000000000000000, 0.000000000000000000 ) ) ;
#697 = ORIENTED_EDGE ( 'NONE', *, *, #1015, .T. ) ;
#698 = CYLINDRICAL_SURFACE ( 'NONE', #1256, 0.9999999999999974465 ) ;
#699 = DIRECTION ( 'NONE',  ( -0.000000000000000000, -0.000000000000000000, -1.000000000000000000 ) ) ;
#700 = CLOSED_SHELL ( 'NONE', ( #585, #892, #1094, #499, #1187, #114, #684, #267, #729, #623, #75, #1315, #493, #582, #1133, #1054, #845, #210, #1144, #128, #968, #473, #408, #590, #1279, #294, #1299, #741, #924, #668, #32, #713, #361, #153, #826, #444, #1154, #987 ) ) ;
#701 = CARTESIAN_POINT ( 'NONE',  ( 40.87332199012102762, 10.00000000000000000, 1.000000000000000000 ) ) ;
#702 = EDGE_LOOP ( 'NONE', ( #891, #328, #301, #912 ) ) ;
#703 = ORIENTED_EDGE ( 'NONE', *, *, #887, .F. ) ;
#704 = CARTESIAN_POINT ( 'NONE',  ( -22.12667800987896527, 10.00000000000000000, 1.000000000000000000 ) ) ;
#705 = EDGE_CURVE ( 'NONE', #1319, #956, #395, .T. ) ;
#706 = ORIENTED_EDGE ( 'NONE', *, *, #911, .F. ) ;
#707 = CARTESIAN_POINT ( 'NONE',  ( 40.87332199012102762, 0.000000000000000000, 1.000000000000000000 ) ) ;
#708 = LINE ( 'NONE', #1111, #513 ) ;
#709 = CARTESIAN_POINT ( 'NONE',  ( 40.16647109493833767, -12.25000000000000000, 1.000000000000000000 ) ) ;
#710 = VERTEX_POINT ( 'NONE', #711 ) ;
#711 = CARTESIAN_POINT ( 'NONE',  ( 49.33753885615624313, 0.7068829060252261876, 1.000000000000000000 ) ) ;
#712 = ORIENTED_EDGE ( 'NONE', *, *, #1163, .T. ) ;
#713 = ADVANCED_FACE ( 'NONE', ( #1244 ), #733, .F. ) ;
#714 = CARTESIAN_POINT ( 'NONE',  ( 44.37332199012103473, 4.286263797015736595E-16, 1.000000000000000000 ) ) ;
#715 = CARTESIAN_POINT ( 'NONE',  ( -21.12667800987896882, -10.00000000000000000, 1.000000000000000000 ) ) ;
#716 = VERTEX_POINT ( 'NONE', #918 ) ;
#717 = LINE ( 'NONE', #1123, #850 ) ;
#718 = AXIS2_PLACEMENT_3D ( 'NONE', #834, #1143, #610 ) ;
#719 = PRODUCT_DEFINITION_CONTEXT ( 'detailed design', #675, 'design' ) ;
#720 = CIRCLE ( 'NONE', #896, 3.500000000000003109 ) ;
#721 = DIRECTION ( 'NONE',  ( 1.000000000000000000, 0.000000000000000000, 0.000000000000000000 ) ) ;
#722 = EDGE_CURVE ( 'NONE', #637, #767, #331, .T. ) ;
#723 = FACE_OUTER_BOUND ( 'NONE', #1234, .T. ) ;
#724 = AXIS2_PLACEMENT_3D ( 'NONE', #86, #699, #26 ) ;
#725 = ORIENTED_EDGE ( 'NONE', *, *, #170, .F. ) ;
#726 = CARTESIAN_POINT ( 'NONE',  ( 40.87332199012102762, 0.000000000000000000, 1.000000000000000000 ) ) ;
#727 = ORIENTED_EDGE ( 'NONE', *, *, #537, .F. ) ;
#728 = DIRECTION ( 'NONE',  ( -0.000000000000000000, -0.000000000000000000, -1.000000000000000000 ) ) ;
#729 = ADVANCED_FACE ( 'NONE', ( #1237 ), #1019, .F. ) ;
#730 = ORIENTED_EDGE ( 'NONE', *, *, #722, .F. ) ;
#731 = CARTESIAN_POINT ( 'NONE',  ( -23.12667800987896172, -10.00000000000000000, 0.000000000000000000 ) ) ;
#732 = EDGE_LOOP ( 'NONE', ( #520, #841 ) ) ;
#733 = CYLINDRICAL_SURFACE ( 'NONE', #94, 1.500000000000001332 ) ;
#734 = ORIENTED_EDGE ( 'NONE', *, *, #313, .F. ) ;
#735 = DIRECTION ( 'NONE',  ( 0.000000000000000000, 0.000000000000000000, 1.000000000000000000 ) ) ;
#736 = FACE_BOUND ( 'NONE', #951, .T. ) ;
#737 = CIRCLE ( 'NONE', #909, 1.000000000000001110 ) ;
#738 = CYLINDRICAL_SURFACE ( 'NONE', #724, 1.500000000000001332 ) ;
#739 = EDGE_LOOP ( 'NONE', ( #932, #944 ) ) ;
#740 = SURFACE_STYLE_USAGE ( .BOTH. , #108 ) ;
#741 = ADVANCED_FACE ( 'NONE', ( #1115 ), #532, .T. ) ;
#742 = ORIENTED_EDGE ( 'NONE', *, *, #993, .T. ) ;
#743 = VECTOR ( 'NONE', #1136, 1000.000000000000000 ) ;
#744 = CARTESIAN_POINT ( 'NONE',  ( 16.16647109493833057, 5.000000000000000888, 1.000000000000000000 ) ) ;
#745 = FACE_BOUND ( 'NONE', #354, .T. ) ;
#746 = DIRECTION ( 'NONE',  ( 0.000000000000000000, 0.000000000000000000, 1.000000000000000000 ) ) ;
#747 = VECTOR ( 'NONE', #127, 1000.000000000000000 ) ;
#748 = ORIENTED_EDGE ( 'NONE', *, *, #822, .F. ) ;
#749 = EDGE_LOOP ( 'NONE', ( #540, #1142 ) ) ;
#750 = CIRCLE ( 'NONE', #1023, 10.00000000000000178 ) ;
#751 = EDGE_CURVE ( 'NONE', #624, #1303, #923, .T. ) ;
#752 = AXIS2_PLACEMENT_3D ( 'NONE', #945, #323, #23 ) ;
#753 = DIRECTION ( 'NONE',  ( -0.000000000000000000, -0.000000000000000000, -1.000000000000000000 ) ) ;
#754 = DIRECTION ( 'NONE',  ( -0.000000000000000000, -0.000000000000000000, -1.000000000000000000 ) ) ;
#755 = DIRECTION ( 'NONE',  ( 0.000000000000000000, -1.000000000000000000, 0.000000000000000000 ) ) ;
#756 = ORIENTED_EDGE ( 'NONE', *, *, #1302, .F. ) ;
#757 = DIRECTION ( 'NONE',  ( 1.000000000000000000, 0.000000000000000000, 0.000000000000000000 ) ) ;
#758 = ORIENTED_EDGE ( 'NONE', *, *, #1007, .F. ) ;
#759 = MANIFOLD_SOLID_BREP ( 'Boss-Extrude1', #700 ) ;
#760 = CIRCLE ( 'NONE', #820, 1.500000000000001332 ) ;
#761 = LINE ( 'NONE', #1239, #167 ) ;
#762 = CARTESIAN_POINT ( 'NONE',  ( 33.90910512408581923, -0.7068829060252251884, 1.000000000000000000 ) ) ;
#763 = EDGE_CURVE ( 'NONE', #716, #546, #717, .T. ) ;
#764 = DIRECTION ( 'NONE',  ( -0.000000000000000000, -0.000000000000000000, -1.000000000000000000 ) ) ;
#765 = EDGE_LOOP ( 'NONE', ( #1122, #137 ) ) ;
#766 = CARTESIAN_POINT ( 'NONE',  ( -24.12667800987897238, 8.249999999999998224, 1.000000000000000000 ) ) ;
#767 = VERTEX_POINT ( 'NONE', #840 ) ;
#768 = DIRECTION ( 'NONE',  ( 1.000000000000000000, 0.000000000000000000, 0.000000000000000000 ) ) ;
#769 = DIRECTION ( 'NONE',  ( 8.673617379884029556E-16, 1.000000000000000000, -0.000000000000000000 ) ) ;
#770 = EDGE_CURVE ( 'NONE', #421, #523, #1119, .T. ) ;
#771 = AXIS2_PLACEMENT_3D ( 'NONE', #965, #772, #666 ) ;
#772 = DIRECTION ( 'NONE',  ( -1.000000000000000000, 3.050045567698648528E-15, 0.000000000000000000 ) ) ;
#773 = ORIENTED_EDGE ( 'NONE', *, *, #805, .F. ) ;
#774 = CARTESIAN_POINT ( 'NONE',  ( 24.16647109493833057, 9.000000000000001776, 0.000000000000000000 ) ) ;
#775 = VERTEX_POINT ( 'NONE', #12 ) ;
#776 = DIRECTION ( 'NONE',  ( -0.000000000000000000, -0.000000000000000000, -1.000000000000000000 ) ) ;
#777 = VECTOR ( 'NONE', #1092, 1000.000000000000000 ) ;
#778 = CARTESIAN_POINT ( 'NONE',  ( 16.16647109493833057, 9.000000000000001776, 1.000000000000000000 ) ) ;
#779 = CARTESIAN_POINT ( 'NONE',  ( -22.12667800987896527, 10.00000000000000000, 0.000000000000000000 ) ) ;
#780 = EDGE_CURVE ( 'NONE', #242, #1324, #618, .T. ) ;
#781 =( LENGTH_UNIT ( ) NAMED_UNIT ( * ) SI_UNIT ( .MILLI., .METRE. ) );
#782 = ORIENTED_EDGE ( 'NONE', *, *, #527, .F. ) ;
#783 = DIRECTION ( 'NONE',  ( 0.000000000000000000, 1.000000000000000000, 0.000000000000000000 ) ) ;
#784 = CARTESIAN_POINT ( 'NONE',  ( 24.16647109493833057, -5.000000000000000888, 0.000000000000000000 ) ) ;
#785 = CARTESIAN_POINT ( 'NONE',  ( 24.16647109493833057, -5.000000000000000888, 0.000000000000000000 ) ) ;
#786 = ORIENTED_EDGE ( 'NONE', *, *, #1117, .F. ) ;
#787 = EDGE_CURVE ( 'NONE', #392, #352, #525, .T. ) ;
#788 = CARTESIAN_POINT ( 'NONE',  ( 33.90910512408581923, -0.7068829060252251884, 1.000000000000000000 ) ) ;
#789 = EDGE_LOOP ( 'NONE', ( #1280, #1226 ) ) ;
#790 = DIRECTION ( 'NONE',  ( 1.000000000000000000, 0.000000000000000000, 0.000000000000000000 ) ) ;
#791 = EDGE_CURVE ( 'NONE', #1215, #249, #1249, .T. ) ;
#792 = VECTOR ( 'NONE', #605, 1000.000000000000000 ) ;
#793 = CARTESIAN_POINT ( 'NONE',  ( 40.87332199012102762, 0.000000000000000000, 1.000000000000000000 ) ) ;
#794 = AXIS2_PLACEMENT_3D ( 'NONE', #613, #1118, #404 ) ;
#795 = VECTOR ( 'NONE', #1022, 1000.000000000000000 ) ;
#796 = ORIENTED_EDGE ( 'NONE', *, *, #534, .T. ) ;
#797 = CARTESIAN_POINT ( 'NONE',  ( 24.16647109493833057, 9.000000000000001776, 1.000000000000000000 ) ) ;
#798 = CARTESIAN_POINT ( 'NONE',  ( 16.16647109493833412, -9.000000000000001776, 1.000000000000000000 ) ) ;
#799 = CARTESIAN_POINT ( 'NONE',  ( 41.58020489614625603, -6.964216866035213727, 1.000000000000000000 ) ) ;
#800 = VERTEX_POINT ( 'NONE', #213 ) ;
#801 = FACE_OUTER_BOUND ( 'NONE', #620, .T. ) ;
#802 = DIRECTION ( 'NONE',  ( 1.284980352575412453E-16, -1.000000000000000000, 0.000000000000000000 ) ) ;
#803 = AXIS2_PLACEMENT_3D ( 'NONE', #766, #783, #138 ) ;
#804 = DIRECTION ( 'NONE',  ( 1.000000000000000000, -2.168404344971009854E-16, 0.000000000000000000 ) ) ;
#805 = EDGE_CURVE ( 'NONE', #22, #195, #625, .T. ) ;
#806 = ORIENTED_EDGE ( 'NONE', *, *, #374, .F. ) ;
#807 = ORIENTED_EDGE ( 'NONE', *, *, #54, .T. ) ;
#808 = DIRECTION ( 'NONE',  ( 0.000000000000000000, 0.000000000000000000, 1.000000000000000000 ) ) ;
#809 = ORIENTED_EDGE ( 'NONE', *, *, #87, .T. ) ;
#810 = CARTESIAN_POINT ( 'NONE',  ( 2.873321990121038283, -8.250000000000001776, 1.000000000000000000 ) ) ;
#811 = VECTOR ( 'NONE', #177, 1000.000000000000000 ) ;
#812 = FACE_OUTER_BOUND ( 'NONE', #1028, .T. ) ;
#813 = ORIENTED_EDGE ( 'NONE', *, *, #1181, .T. ) ;
#814 = CIRCLE ( 'NONE', #469, 1.500000000000001332 ) ;
#815 = EDGE_CURVE ( 'NONE', #198, #1074, #420, .T. ) ;
#816 = ORIENTED_EDGE ( 'NONE', *, *, #867, .F. ) ;
#817 = SURFACE_STYLE_FILL_AREA ( #930 ) ;
#818 = DIRECTION ( 'NONE',  ( -0.000000000000000000, -0.000000000000000000, -1.000000000000000000 ) ) ;
#819 = DIRECTION ( 'NONE',  ( 1.000000000000000000, 0.000000000000000000, 0.000000000000000000 ) ) ;
#820 = AXIS2_PLACEMENT_3D ( 'NONE', #1079, #870, #1267 ) ;
#821 = ORIENTED_EDGE ( 'NONE', *, *, #117, .F. ) ;
#822 = EDGE_CURVE ( 'NONE', #1303, #1260, #1152, .T. ) ;
#823 = CARTESIAN_POINT ( 'NONE',  ( -2.126678009878963937, 10.00000000000000000, 1.000000000000000000 ) ) ;
#824 = VERTEX_POINT ( 'NONE', #974 ) ;
#825 = ORIENTED_EDGE ( 'NONE', *, *, #117, .T. ) ;
#826 = ADVANCED_FACE ( 'NONE', ( #872 ), #28, .T. ) ;
#827 = CARTESIAN_POINT ( 'NONE',  ( 35.40910512408581923, -0.7068829060252249663, 0.000000000000000000 ) ) ;
#828 = EDGE_LOOP ( 'NONE', ( #29, #1056, #202, #1153 ) ) ;
#829 = EDGE_CURVE ( 'NONE', #645, #624, #360, .T. ) ;
#830 = AXIS2_PLACEMENT_3D ( 'NONE', #762, #1164, #244 ) ;
#831 = DIRECTION ( 'NONE',  ( -1.000000000000000000, -1.284980352575412206E-16, 0.000000000000000000 ) ) ;
#832 = VECTOR ( 'NONE', #831, 1000.000000000000000 ) ;
#833 = ORIENTED_EDGE ( 'NONE', *, *, #1103, .F. ) ;
#834 = CARTESIAN_POINT ( 'NONE',  ( 41.58020489614625603, -6.964216866035213727, 1.000000000000000000 ) ) ;
#835 = ORIENTED_EDGE ( 'NONE', *, *, #304, .F. ) ;
#836 = FACE_OUTER_BOUND ( 'NONE', #1274, .T. ) ;
#837 = CARTESIAN_POINT ( 'NONE',  ( 24.16647109493833057, -5.000000000000000888, 1.000000000000000000 ) ) ;
#838 = DIRECTION ( 'NONE',  ( 2.602085213965211135E-16, -1.000000000000000000, 0.000000000000000000 ) ) ;
#839 = VERTEX_POINT ( 'NONE', #1057 ) ;
#840 = CARTESIAN_POINT ( 'NONE',  ( 43.08020489614625603, -6.964216866035213727, 1.000000000000000000 ) ) ;
#841 = ORIENTED_EDGE ( 'NONE', *, *, #632, .F. ) ;
#842 = CARTESIAN_POINT ( 'NONE',  ( -24.12667800987897238, 8.249999999999998224, 0.000000000000000000 ) ) ;
#843 = FACE_BOUND ( 'NONE', #335, .T. ) ;
#844 = CIRCLE ( 'NONE', #92, 1.500000000000001332 ) ;
#845 = ADVANCED_FACE ( 'NONE', ( #547 ), #453, .F. ) ;
#846 = DIRECTION ( 'NONE',  ( -0.000000000000000000, 0.000000000000000000, -1.000000000000000000 ) ) ;
#847 = ORIENTED_EDGE ( 'NONE', *, *, #337, .T. ) ;
#848 = DIRECTION ( 'NONE',  ( -1.000000000000000000, -0.000000000000000000, -0.000000000000000000 ) ) ;
#849 = VERTEX_POINT ( 'NONE', #248 ) ;
#850 = VECTOR ( 'NONE', #937, 1000.000000000000000 ) ;
#851 = DIRECTION ( 'NONE',  ( 1.000000000000000000, 0.000000000000000000, 0.000000000000000000 ) ) ;
#852 = DIRECTION ( 'NONE',  ( 0.000000000000000000, 0.000000000000000000, 1.000000000000000000 ) ) ;
#853 = FACE_OUTER_BOUND ( 'NONE', #316, .T. ) ;
#854 = VECTOR ( 'NONE', #447, 1000.000000000000000 ) ;
#855 = ORIENTED_EDGE ( 'NONE', *, *, #1185, .T. ) ;
#856 = DIRECTION ( 'NONE',  ( -1.000000000000000000, 0.000000000000000000, 0.000000000000000000 ) ) ;
#857 = ORIENTED_EDGE ( 'NONE', *, *, #1264, .F. ) ;
#858 = VECTOR ( 'NONE', #588, 1000.000000000000000 ) ;
#859 = AXIS2_PLACEMENT_3D ( 'NONE', #1255, #221, #330 ) ;
#860 = LINE ( 'NONE', #1162, #446 ) ;
#861 = EDGE_CURVE ( 'NONE', #214, #511, #1066, .T. ) ;
#862 = CARTESIAN_POINT ( 'NONE',  ( -21.12667800987896882, 10.00000000000000000, 1.000000000000000000 ) ) ;
#863 = CARTESIAN_POINT ( 'NONE',  ( 2.873321990121035174, 8.249999999999998224, 1.000000000000000000 ) ) ;
#864 = VERTEX_POINT ( 'NONE', #468 ) ;
#865 = DIRECTION ( 'NONE',  ( 0.000000000000000000, -1.000000000000000000, 0.000000000000000000 ) ) ;
#866 = ORIENTED_EDGE ( 'NONE', *, *, #722, .T. ) ;
#867 = EDGE_CURVE ( 'NONE', #1215, #800, #638, .T. ) ;
#868 = FACE_BOUND ( 'NONE', #6, .T. ) ;
#869 = DIRECTION ( 'NONE',  ( 0.000000000000000000, 0.000000000000000000, 1.000000000000000000 ) ) ;
#870 = DIRECTION ( 'NONE',  ( 0.000000000000000000, 0.000000000000000000, 1.000000000000000000 ) ) ;
#871 = ORIENTED_EDGE ( 'NONE', *, *, #1038, .T. ) ;
#872 = FACE_OUTER_BOUND ( 'NONE', #828, .T. ) ;
#873 = VECTOR ( 'NONE', #1097, 1000.000000000000000 ) ;
#874 = VERTEX_POINT ( 'NONE', #774 ) ;
#875 = LINE ( 'NONE', #364, #16 ) ;
#876 = FACE_BOUND ( 'NONE', #1210, .T. ) ;
#877 = EDGE_CURVE ( 'NONE', #581, #1319, #152, .T. ) ;
#878 = DIRECTION ( 'NONE',  ( 1.000000000000000000, 5.058513205289516091E-17, -0.000000000000000000 ) ) ;
#879 = CARTESIAN_POINT ( 'NONE',  ( 40.16647109493833767, -9.974986807609294459, 1.000000000000000000 ) ) ;
#880 = ORIENTED_EDGE ( 'NONE', *, *, #70, .T. ) ;
#881 = CARTESIAN_POINT ( 'NONE',  ( 40.87332199012102762, 0.000000000000000000, 0.000000000000000000 ) ) ;
#882 = AXIS2_PLACEMENT_3D ( 'NONE', #1017, #3, #97 ) ;
#883 = EDGE_CURVE ( 'NONE', #224, #931, #329, .T. ) ;
#884 = FACE_BOUND ( 'NONE', #1243, .T. ) ;
#885 = CARTESIAN_POINT ( 'NONE',  ( 44.37332199012103473, 4.286263797015732651E-16, 1.000000000000000000 ) ) ;
#886 = DIRECTION ( 'NONE',  ( 1.839858232096613368E-16, -1.000000000000000000, 0.000000000000000000 ) ) ;
#887 = EDGE_CURVE ( 'NONE', #22, #917, #737, .T. ) ;
#888 = ORIENTED_EDGE ( 'NONE', *, *, #1283, .F. ) ;
#889 = CIRCLE ( 'NONE', #303, 1.500000000000001332 ) ;
#890 = DIRECTION ( 'NONE',  ( -0.000000000000000000, -0.000000000000000000, -1.000000000000000000 ) ) ;
#891 = ORIENTED_EDGE ( 'NONE', *, *, #256, .T. ) ;
#892 = ADVANCED_FACE ( 'NONE', ( #336 ), #35, .F. ) ;
#893 = CARTESIAN_POINT ( 'NONE',  ( 2.873321990121038283, -8.250000000000001776, 0.000000000000000000 ) ) ;
#894 = DIRECTION ( 'NONE',  ( 0.000000000000000000, 0.000000000000000000, 1.000000000000000000 ) ) ;
#895 = ORIENTED_EDGE ( 'NONE', *, *, #170, .T. ) ;
#896 = AXIS2_PLACEMENT_3D ( 'NONE', #1272, #869, #440 ) ;
#897 = DIRECTION ( 'NONE',  ( 0.000000000000000000, -0.000000000000000000, 1.000000000000000000 ) ) ;
#898 = AXIS2_PLACEMENT_3D ( 'NONE', #184, #838, #119 ) ;
#899 = DIRECTION ( 'NONE',  ( -0.000000000000000000, -0.000000000000000000, -1.000000000000000000 ) ) ;
#900 = ORIENTED_EDGE ( 'NONE', *, *, #815, .T. ) ;
#901 = FACE_OUTER_BOUND ( 'NONE', #1221, .T. ) ;
#902 = DIRECTION ( 'NONE',  ( 1.000000000000000000, 0.000000000000000000, 0.000000000000000000 ) ) ;
#903 = EDGE_CURVE ( 'NONE', #502, #800, #975, .T. ) ;
#904 = LINE ( 'NONE', #310, #1087 ) ;
#905 = EDGE_LOOP ( 'NONE', ( #124, #312, #596, #1058 ) ) ;
#906 = DIRECTION ( 'NONE',  ( -1.000000000000000000, 0.000000000000000000, 0.000000000000000000 ) ) ;
#907 = VERTEX_POINT ( 'NONE', #460 ) ;
#908 = CARTESIAN_POINT ( 'NONE',  ( 16.16647109493833057, 9.000000000000001776, 1.000000000000000000 ) ) ;
#909 = AXIS2_PLACEMENT_3D ( 'NONE', #1252, #51, #241 ) ;
#910 = FACE_OUTER_BOUND ( 'NONE', #1238, .T. ) ;
#911 = EDGE_CURVE ( 'NONE', #1161, #907, #501, .T. ) ;
#912 = ORIENTED_EDGE ( 'NONE', *, *, #455, .T. ) ;
#913 = EDGE_LOOP ( 'NONE', ( #943, #467, #1184, #393, #45, #1128, #602, #992, #1307, #345 ) ) ;
#914 = CARTESIAN_POINT ( 'NONE',  ( -23.12667800987896172, 10.00000000000000000, 1.000000000000000000 ) ) ;
#915 = DIRECTION ( 'NONE',  ( -0.000000000000000000, -0.000000000000000000, -1.000000000000000000 ) ) ;
#916 = CIRCLE ( 'NONE', #1192, 0.9999999999999974465 ) ;
#917 = VERTEX_POINT ( 'NONE', #1159 ) ;
#918 = CARTESIAN_POINT ( 'NONE',  ( 16.16647109493833412, -4.999999999999999112, 0.000000000000000000 ) ) ;
#919 = ORIENTED_EDGE ( 'NONE', *, *, #304, .T. ) ;
#920 = LINE ( 'NONE', #507, #278 ) ;
#921 = ORIENTED_EDGE ( 'NONE', *, *, #1045, .T. ) ;
#922 = ORIENTED_EDGE ( 'NONE', *, *, #770, .T. ) ;
#923 = LINE ( 'NONE', #407, #743 ) ;
#924 = ADVANCED_FACE ( 'NONE', ( #555 ), #44, .T. ) ;
#925 = ORIENTED_EDGE ( 'NONE', *, *, #313, .T. ) ;
#926 = LINE ( 'NONE', #95, #43 ) ;
#927 = CARTESIAN_POINT ( 'NONE',  ( 16.16647109493833412, -9.000000000000001776, 1.000000000000000000 ) ) ;
#928 = PLANE ( 'NONE',  #663 ) ;
#929 = ORIENTED_EDGE ( 'NONE', *, *, #1070, .T. ) ;
#930 = FILL_AREA_STYLE ('',( #219 ) ) ;
#931 = VERTEX_POINT ( 'NONE', #1292 ) ;
#932 = ORIENTED_EDGE ( 'NONE', *, *, #911, .T. ) ;
#933 = DIRECTION ( 'NONE',  ( 1.000000000000000000, 0.000000000000000000, 0.000000000000000000 ) ) ;
#934 = DIRECTION ( 'NONE',  ( -1.000000000000000000, 0.000000000000000000, 0.000000000000000000 ) ) ;
#935 = CARTESIAN_POINT ( 'NONE',  ( 47.83753885615624313, 0.7068829060252259655, 1.000000000000000000 ) ) ;
#936 = ORIENTED_EDGE ( 'NONE', *, *, #999, .T. ) ;
#937 = DIRECTION ( 'NONE',  ( 0.000000000000000000, -1.000000000000000000, 0.000000000000000000 ) ) ;
#938 = ORIENTED_EDGE ( 'NONE', *, *, #348, .F. ) ;
#939 = DIRECTION ( 'NONE',  ( -0.000000000000000000, -0.000000000000000000, -1.000000000000000000 ) ) ;
#940 = EDGE_CURVE ( 'NONE', #1, #546, #576, .T. ) ;
#941 = DIRECTION ( 'NONE',  ( -8.673617379884035472E-16, 1.000000000000000000, -0.000000000000000000 ) ) ;
#942 = DIRECTION ( 'NONE',  ( 1.000000000000000000, 0.000000000000000000, 0.000000000000000000 ) ) ;
#943 = ORIENTED_EDGE ( 'NONE', *, *, #261, .T. ) ;
#944 = ORIENTED_EDGE ( 'NONE', *, *, #227, .T. ) ;
#945 = CARTESIAN_POINT ( 'NONE',  ( 40.16643908409580632, 6.964216866035213727, 1.000000000000000000 ) ) ;
#946 = EDGE_CURVE ( 'NONE', #367, #710, #844, .T. ) ;
#947 = FACE_BOUND ( 'NONE', #789, .T. ) ;
#948 = DIRECTION ( 'NONE',  ( 1.000000000000000000, 0.000000000000000000, 0.000000000000000000 ) ) ;
#949 = ORIENTED_EDGE ( 'NONE', *, *, #640, .T. ) ;
#950 = DIRECTION ( 'NONE',  ( 1.000000000000000000, 0.000000000000000000, 0.000000000000000000 ) ) ;
#951 = EDGE_LOOP ( 'NONE', ( #1196, #1135 ) ) ;
#952 = MECHANICAL_DESIGN_GEOMETRIC_PRESENTATION_REPRESENTATION (  '', ( #160 ), #439 ) ;
#953 = LINE ( 'NONE', #37, #854 ) ;
#954 = DIRECTION ( 'NONE',  ( -0.000000000000000000, -0.000000000000000000, -1.000000000000000000 ) ) ;
#955 = LINE ( 'NONE', #1073, #478 ) ;
#956 = VERTEX_POINT ( 'NONE', #893 ) ;
#957 = CARTESIAN_POINT ( 'NONE',  ( 40.87332199012102762, 12.24999999999999822, 1.000000000000000000 ) ) ;
#958 = EDGE_CURVE ( 'NONE', #139, #190, #1191, .T. ) ;
#959 = CIRCLE ( 'NONE', #381, 1.500000000000001332 ) ;
#960 = ORIENTED_EDGE ( 'NONE', *, *, #162, .T. ) ;
#961 = AXIS2_PLACEMENT_3D ( 'NONE', #799, #498, #209 ) ;
#962 = VECTOR ( 'NONE', #933, 1000.000000000000000 ) ;
#963 = FACE_BOUND ( 'NONE', #71, .T. ) ;
#964 = LINE ( 'NONE', #457, #317 ) ;
#965 = CARTESIAN_POINT ( 'NONE',  ( 40.16647109493834478, -9.974986807609294459, 1.000000000000000000 ) ) ;
#966 = VERTEX_POINT ( 'NONE', #377 ) ;
#967 = ORIENTED_EDGE ( 'NONE', *, *, #245, .F. ) ;
#968 = ADVANCED_FACE ( 'NONE', ( #1182 ), #985, .F. ) ;
#969 = CARTESIAN_POINT ( 'NONE',  ( 2.873321990121038283, -8.250000000000001776, 1.000000000000000000 ) ) ;
#970 = CARTESIAN_POINT ( 'NONE',  ( 40.16643908409580632, 6.964216866035213727, 0.000000000000000000 ) ) ;
#971 = LINE ( 'NONE', #253, #1067 ) ;
#972 = CYLINDRICAL_SURFACE ( 'NONE', #1121, 1.500000000000001332 ) ;
#973 = ORIENTED_EDGE ( 'NONE', *, *, #162, .F. ) ;
#974 = CARTESIAN_POINT ( 'NONE',  ( -3.126678009878964826, -10.00000000000000000, 1.000000000000000000 ) ) ;
#975 = CIRCLE ( 'NONE', #1081, 3.500000000000003109 ) ;
#976 = DIRECTION ( 'NONE',  ( -3.469446951953614189E-16, 1.000000000000000000, 0.000000000000000000 ) ) ;
#977 = FACE_OUTER_BOUND ( 'NONE', #913, .T. ) ;
#978 = EDGE_CURVE ( 'NONE', #1229, #475, #53, .T. ) ;
#979 = AXIS2_PLACEMENT_3D ( 'NONE', #1195, #281, #171 ) ;
#980 = LINE ( 'NONE', #685, #488 ) ;
#981 = DIRECTION ( 'NONE',  ( -1.000000000000000000, 0.000000000000000000, 0.000000000000000000 ) ) ;
#982 = EDGE_LOOP ( 'NONE', ( #929, #232, #1168, #1018 ) ) ;
#983 = CIRCLE ( 'NONE', #38, 1.500000000000001332 ) ;
#984 = AXIS2_PLACEMENT_3D ( 'NONE', #1084, #583, #280 ) ;
#985 = PLANE ( 'NONE',  #1033 ) ;
#986 = DIRECTION ( 'NONE',  ( -1.000000000000000000, -0.000000000000000000, -0.000000000000000000 ) ) ;
#987 = ADVANCED_FACE ( 'NONE', ( #670 ), #284, .T. ) ;
#988 = ORIENTED_EDGE ( 'NONE', *, *, #993, .F. ) ;
#989 = UNCERTAINTY_MEASURE_WITH_UNIT (LENGTH_MEASURE( 1.000000000000000082E-05 ), #21, 'distance_accuracy_value', 'NONE');
#990 = VECTOR ( 'NONE', #553, 1000.000000000000000 ) ;
#991 = DIRECTION ( 'NONE',  ( 0.000000000000000000, 0.000000000000000000, 1.000000000000000000 ) ) ;
#992 = ORIENTED_EDGE ( 'NONE', *, *, #1253, .T. ) ;
#993 = EDGE_CURVE ( 'NONE', #630, #956, #279, .T. ) ;
#994 = DIRECTION ( 'NONE',  ( 1.000000000000000000, 0.000000000000000000, 0.000000000000000000 ) ) ;
#995 = LINE ( 'NONE', #77, #40 ) ;
#996 = EDGE_LOOP ( 'NONE', ( #866, #895, #938, #101 ) ) ;
#997 = CIRCLE ( 'NONE', #882, 0.9999999999999974465 ) ;
#998 = FACE_BOUND ( 'NONE', #126, .T. ) ;
#999 = EDGE_CURVE ( 'NONE', #322, #27, #875, .T. ) ;
#1000 = PLANE ( 'NONE',  #597 ) ;
#1001 = CIRCLE ( 'NONE', #662, 0.9999999999999974465 ) ;
#1002 = AXIS2_PLACEMENT_3D ( 'NONE', #486, #599, #418 ) ;
#1003 = CARTESIAN_POINT ( 'NONE',  ( -3.126678009878964826, -10.00000000000000000, 1.000000000000000000 ) ) ;
#1004 = ORIENTED_EDGE ( 'NONE', *, *, #18, .T. ) ;
#1005 = CARTESIAN_POINT ( 'NONE',  ( -22.12667800987896527, 10.00000000000000000, 1.000000000000000000 ) ) ;
#1006 = CARTESIAN_POINT ( 'NONE',  ( 16.16647109493833412, -4.999999999999999112, 1.000000000000000000 ) ) ;
#1007 = EDGE_CURVE ( 'NONE', #645, #874, #481, .T. ) ;
#1008 = DIRECTION ( 'NONE',  ( -0.000000000000000000, -0.000000000000000000, -1.000000000000000000 ) ) ;
#1009 = ORIENTED_EDGE ( 'NONE', *, *, #1015, .F. ) ;
#1010 = EDGE_LOOP ( 'NONE', ( #161, #1176, #900, #825 ) ) ;
#1011 = DIRECTION ( 'NONE',  ( -1.000000000000000000, 8.673617379884029556E-16, 0.000000000000000000 ) ) ;
#1012 = EDGE_LOOP ( 'NONE', ( #159, #412, #132, #399 ) ) ;
#1013 = CARTESIAN_POINT ( 'NONE',  ( 47.83753885615624313, 0.7068829060252259655, 0.000000000000000000 ) ) ;
#1014 = CARTESIAN_POINT ( 'NONE',  ( -24.12667800987897238, -8.250000000000005329, 1.000000000000000000 ) ) ;
#1015 = EDGE_CURVE ( 'NONE', #533, #626, #690, .T. ) ;
#1016 = PRESENTATION_LAYER_ASSIGNMENT (  '', '', ( #160 ) ) ;
#1017 = CARTESIAN_POINT ( 'NONE',  ( -22.12667800987896527, -10.00000000000000000, 0.000000000000000000 ) ) ;
#1018 = ORIENTED_EDGE ( 'NONE', *, *, #325, .T. ) ;
#1019 = CYLINDRICAL_SURFACE ( 'NONE', #271, 1.000000000000000888 ) ;
#1020 = ORIENTED_EDGE ( 'NONE', *, *, #1199, .F. ) ;
#1021 = VECTOR ( 'NONE', #155, 1000.000000000000000 ) ;
#1022 = DIRECTION ( 'NONE',  ( 0.000000000000000000, -1.000000000000000000, 0.000000000000000000 ) ) ;
#1023 = AXIS2_PLACEMENT_3D ( 'NONE', #793, #1194, #1093 ) ;
#1024 = EDGE_CURVE ( 'NONE', #363, #693, #490, .T. ) ;
#1025 = ORIENTED_EDGE ( 'NONE', *, *, #1240, .F. ) ;
#1026 = EDGE_LOOP ( 'NONE', ( #1080, #414, #1130, #1208 ) ) ;
#1027 = DIRECTION ( 'NONE',  ( 0.000000000000000000, 0.000000000000000000, 1.000000000000000000 ) ) ;
#1028 = EDGE_LOOP ( 'NONE', ( #561, #653, #406, #1051 ) ) ;
#1029 = EDGE_LOOP ( 'NONE', ( #667, #821, #1180, #1189 ) ) ;
#1030 = CARTESIAN_POINT ( 'NONE',  ( -1.126678009878962827, 10.00000000000000000, 1.000000000000000000 ) ) ;
#1031 = EDGE_LOOP ( 'NONE', ( #226, #109 ) ) ;
#1032 = CARTESIAN_POINT ( 'NONE',  ( 33.90910512408581923, -0.7068829060252251884, 1.000000000000000000 ) ) ;
#1033 = AXIS2_PLACEMENT_3D ( 'NONE', #683, #976, #1287 ) ;
#1034 = CARTESIAN_POINT ( 'NONE',  ( 40.16647109493833767, -12.25000000000000000, 0.000000000000000000 ) ) ;
#1035 = CARTESIAN_POINT ( 'NONE',  ( -24.12667800987897238, 12.24999999999999467, 0.000000000000000000 ) ) ;
#1036 = VERTEX_POINT ( 'NONE', #262 ) ;
#1037 = CARTESIAN_POINT ( 'NONE',  ( 16.16647109493833412, -4.999999999999999112, 1.000000000000000000 ) ) ;
#1038 = EDGE_CURVE ( 'NONE', #775, #849, #183, .T. ) ;
#1039 = CARTESIAN_POINT ( 'NONE',  ( 38.66643908409580632, 6.964216866035213727, 0.000000000000000000 ) ) ;
#1040 = CARTESIAN_POINT ( 'NONE',  ( -24.12667800987897238, -8.250000000000005329, 1.000000000000000000 ) ) ;
#1041 = FACE_OUTER_BOUND ( 'NONE', #982, .T. ) ;
#1042 = ORIENTED_EDGE ( 'NONE', *, *, #256, .F. ) ;
#1043 = CARTESIAN_POINT ( 'NONE',  ( 2.873321990121035174, 8.249999999999998224, 1.000000000000000000 ) ) ;
#1044 = ORIENTED_EDGE ( 'NONE', *, *, #617, .T. ) ;
#1045 = EDGE_CURVE ( 'NONE', #917, #22, #1125, .T. ) ;
#1046 = CARTESIAN_POINT ( 'NONE',  ( 16.16647109493833412, -9.000000000000001776, 0.000000000000000000 ) ) ;
#1047 = DIRECTION ( 'NONE',  ( 0.000000000000000000, 0.000000000000000000, 1.000000000000000000 ) ) ;
#1048 = CARTESIAN_POINT ( 'NONE',  ( -22.12667800987896527, -10.00000000000000000, 1.000000000000000000 ) ) ;
#1049 = ORIENTED_EDGE ( 'NONE', *, *, #640, .F. ) ;
#1050 = VECTOR ( 'NONE', #1172, 1000.000000000000000 ) ;
#1051 = ORIENTED_EDGE ( 'NONE', *, *, #692, .F. ) ;
#1052 = CARTESIAN_POINT ( 'NONE',  ( -24.12667800987897238, 8.249999999999998224, 1.000000000000000000 ) ) ;
#1053 = CARTESIAN_POINT ( 'NONE',  ( -1.126678009878962827, -10.00000000000000000, 0.000000000000000000 ) ) ;
#1054 = ADVANCED_FACE ( 'NONE', ( #1041 ), #928, .F. ) ;
#1055 = CARTESIAN_POINT ( 'NONE',  ( 16.16647109493833057, 5.000000000000000888, 0.000000000000000000 ) ) ;
#1056 = ORIENTED_EDGE ( 'NONE', *, *, #1206, .F. ) ;
#1057 = CARTESIAN_POINT ( 'NONE',  ( 43.08020489614625603, -6.964216866035213727, 0.000000000000000000 ) ) ;
#1058 = ORIENTED_EDGE ( 'NONE', *, *, #557, .T. ) ;
#1059 = CYLINDRICAL_SURFACE ( 'NONE', #514, 10.00000000000000178 ) ;
#1060 = CIRCLE ( 'NONE', #1293, 1.000000000000001110 ) ;
#1061 = ADVANCED_BREP_SHAPE_REPRESENTATION ( 'down_plate_power', ( #759, #979 ), #311 ) ;
#1062 = DIRECTION ( 'NONE',  ( 1.000000000000000000, 0.000000000000000000, -0.000000000000000000 ) ) ;
#1063 = EDGE_CURVE ( 'NONE', #624, #503, #388, .T. ) ;
#1064 = CYLINDRICAL_SURFACE ( 'NONE', #1160, 0.9999999999999974465 ) ;
#1065 = ORIENTED_EDGE ( 'NONE', *, *, #235, .T. ) ;
#1066 = LINE ( 'NONE', #957, #157 ) ;
#1067 = VECTOR ( 'NONE', #169, 1000.000000000000000 ) ;
#1068 = AXIS2_PLACEMENT_3D ( 'NONE', #935, #746, #942 ) ;
#1069 = ORIENTED_EDGE ( 'NONE', *, *, #648, .F. ) ;
#1070 = EDGE_CURVE ( 'NONE', #270, #247, #1102, .T. ) ;
#1071 = FACE_BOUND ( 'NONE', #749, .T. ) ;
#1072 = DIRECTION ( 'NONE',  ( -1.839858232096613368E-16, 1.000000000000000000, 0.000000000000000000 ) ) ;
#1073 = CARTESIAN_POINT ( 'NONE',  ( 16.16647109493833412, -4.999999999999999112, 1.000000000000000000 ) ) ;
#1074 = VERTEX_POINT ( 'NONE', #321 ) ;
#1075 = CARTESIAN_POINT ( 'NONE',  ( 37.37332199012102762, 0.000000000000000000, 1.000000000000000000 ) ) ;
#1076 = CARTESIAN_POINT ( 'NONE',  ( 33.90910512408581923, -0.7068829060252251884, 1.000000000000000000 ) ) ;
#1077 = FACE_OUTER_BOUND ( 'NONE', #515, .T. ) ;
#1078 = CARTESIAN_POINT ( 'NONE',  ( 43.08020489614625603, -6.964216866035213727, 1.000000000000000000 ) ) ;
#1079 = CARTESIAN_POINT ( 'NONE',  ( 41.58020489614625603, -6.964216866035213727, 0.000000000000000000 ) ) ;
#1080 = ORIENTED_EDGE ( 'NONE', *, *, #537, .T. ) ;
#1081 = AXIS2_PLACEMENT_3D ( 'NONE', #881, #652, #1262 ) ;
#1082 = AXIS2_PLACEMENT_3D ( 'NONE', #726, #504, #1129 ) ;
#1083 = EDGE_CURVE ( 'NONE', #710, #367, #81, .T. ) ;
#1084 = CARTESIAN_POINT ( 'NONE',  ( -2.126678009878963937, -10.00000000000000000, 1.000000000000000000 ) ) ;
#1085 = ORIENTED_EDGE ( 'NONE', *, *, #805, .T. ) ;
#1086 = AXIS2_PLACEMENT_3D ( 'NONE', #591, #1101, #252 ) ;
#1087 = VECTOR ( 'NONE', #88, 1000.000000000000000 ) ;
#1088 = DIRECTION ( 'NONE',  ( 0.000000000000000000, 1.000000000000000000, 0.000000000000000000 ) ) ;
#1089 = VECTOR ( 'NONE', #15, 1000.000000000000000 ) ;
#1090 = LINE ( 'NONE', #264, #858 ) ;
#1091 = ORIENTED_EDGE ( 'NONE', *, *, #829, .F. ) ;
#1092 = DIRECTION ( 'NONE',  ( -0.000000000000000000, -0.000000000000000000, -1.000000000000000000 ) ) ;
#1093 = DIRECTION ( 'NONE',  ( 1.000000000000000000, 0.000000000000000000, 0.000000000000000000 ) ) ;
#1094 = ADVANCED_FACE ( 'NONE', ( #1141 ), #738, .F. ) ;
#1095 = ORIENTED_EDGE ( 'NONE', *, *, #309, .F. ) ;
#1096 = CARTESIAN_POINT ( 'NONE',  ( 40.08020489614625603, -6.964216866035213727, 1.000000000000000000 ) ) ;
#1097 = DIRECTION ( 'NONE',  ( -8.673617379884035472E-16, 1.000000000000000000, -0.000000000000000000 ) ) ;
#1098 = FACE_OUTER_BOUND ( 'NONE', #1010, .T. ) ;
#1099 = ORIENTED_EDGE ( 'NONE', *, *, #1224, .T. ) ;
#1100 = EDGE_CURVE ( 'NONE', #956, #608, #191, .T. ) ;
#1101 = DIRECTION ( 'NONE',  ( 0.000000000000000000, 0.000000000000000000, 1.000000000000000000 ) ) ;
#1102 = LINE ( 'NONE', #1035, #792 ) ;
#1103 = EDGE_CURVE ( 'NONE', #931, #224, #959, .T. ) ;
#1104 = DIRECTION ( 'NONE',  ( -0.000000000000000000, -0.000000000000000000, -1.000000000000000000 ) ) ;
#1105 = ORIENTED_EDGE ( 'NONE', *, *, #1240, .T. ) ;
#1106 = VERTEX_POINT ( 'NONE', #731 ) ;
#1107 = CYLINDRICAL_SURFACE ( 'NONE', #1147, 0.9999999999999974465 ) ;
#1108 = ORIENTED_EDGE ( 'NONE', *, *, #978, .F. ) ;
#1109 = LINE ( 'NONE', #1242, #143 ) ;
#1110 = EDGE_CURVE ( 'NONE', #630, #392, #334, .T. ) ;
#1111 = CARTESIAN_POINT ( 'NONE',  ( 40.87332199012102762, 12.24999999999999822, 1.000000000000000000 ) ) ;
#1112 = AXIS2_PLACEMENT_3D ( 'NONE', #82, #93, #902 ) ;
#1113 = ORIENTED_EDGE ( 'NONE', *, *, #394, .T. ) ;
#1114 = EDGE_LOOP ( 'NONE', ( #922, #712 ) ) ;
#1115 = FACE_OUTER_BOUND ( 'NONE', #52, .T. ) ;
#1116 = EDGE_LOOP ( 'NONE', ( #661, #936, #359, #1108 ) ) ;
#1117 = EDGE_CURVE ( 'NONE', #849, #523, #1109, .T. ) ;
#1118 = DIRECTION ( 'NONE',  ( 0.000000000000000000, 0.000000000000000000, 1.000000000000000000 ) ) ;
#1119 = CIRCLE ( 'NONE', #550, 1.500000000000001332 ) ;
#1120 = DIRECTION ( 'NONE',  ( 0.000000000000000000, 0.000000000000000000, 1.000000000000000000 ) ) ;
#1121 = AXIS2_PLACEMENT_3D ( 'NONE', #351, #764, #144 ) ;
#1122 = ORIENTED_EDGE ( 'NONE', *, *, #96, .T. ) ;
#1123 = CARTESIAN_POINT ( 'NONE',  ( 16.16647109493833412, -4.999999999999999112, 0.000000000000000000 ) ) ;
#1124 = CARTESIAN_POINT ( 'NONE',  ( -24.12667800987897238, -12.25000000000000533, 1.000000000000000000 ) ) ;
#1125 = CIRCLE ( 'NONE', #1002, 1.000000000000001110 ) ;
#1126 = PLANE ( 'NONE',  #1170 ) ;
#1127 = VECTOR ( 'NONE', #494, 1000.000000000000000 ) ;
#1128 = ORIENTED_EDGE ( 'NONE', *, *, #401, .T. ) ;
#1129 = DIRECTION ( 'NONE',  ( 1.000000000000000000, 0.000000000000000000, 0.000000000000000000 ) ) ;
#1130 = ORIENTED_EDGE ( 'NONE', *, *, #106, .F. ) ;
#1131 = CARTESIAN_POINT ( 'NONE',  ( -22.12667800987896527, 10.00000000000000000, 1.000000000000000000 ) ) ;
#1132 = FACE_OUTER_BOUND ( 'NONE', #556, .T. ) ;
#1133 = ADVANCED_FACE ( 'NONE', ( #427 ), #538, .F. ) ;
#1134 = CARTESIAN_POINT ( 'NONE',  ( 2.873321990121038283, -8.250000000000001776, 1.000000000000000000 ) ) ;
#1135 = ORIENTED_EDGE ( 'NONE', *, *, #676, .T. ) ;
#1136 = DIRECTION ( 'NONE',  ( -0.000000000000000000, -0.000000000000000000, -1.000000000000000000 ) ) ;
#1137 = ORIENTED_EDGE ( 'NONE', *, *, #676, .F. ) ;
#1138 = DIRECTION ( 'NONE',  ( 1.000000000000000000, -3.252606517456514781E-16, 0.000000000000000000 ) ) ;
#1139 = AXIS2_PLACEMENT_3D ( 'NONE', #1269, #353, #562 ) ;
#1140 = DIRECTION ( 'NONE',  ( -1.000000000000000000, 3.252606517456514781E-16, 0.000000000000000000 ) ) ;
#1141 = FACE_OUTER_BOUND ( 'NONE', #181, .T. ) ;
#1142 = ORIENTED_EDGE ( 'NONE', *, *, #1024, .F. ) ;
#1143 = DIRECTION ( 'NONE',  ( 0.000000000000000000, 0.000000000000000000, 1.000000000000000000 ) ) ;
#1144 = ADVANCED_FACE ( 'NONE', ( #592 ), #223, .F. ) ;
#1145 = ORIENTED_EDGE ( 'NONE', *, *, #54, .F. ) ;
#1146 = CARTESIAN_POINT ( 'NONE',  ( 40.87332199012102762, 0.000000000000000000, 1.000000000000000000 ) ) ;
#1147 = AXIS2_PLACEMENT_3D ( 'NONE', #704, #283, #565 ) ;
#1148 = LINE ( 'NONE', #357, #251 ) ;
#1149 = VECTOR ( 'NONE', #878, 1000.000000000000000 ) ;
#1150 = LINE ( 'NONE', #1259, #72 ) ;
#1151 = ORIENTED_EDGE ( 'NONE', *, *, #1038, .F. ) ;
#1152 = LINE ( 'NONE', #368, #391 ) ;
#1153 = ORIENTED_EDGE ( 'NONE', *, *, #578, .T. ) ;
#1154 = ADVANCED_FACE ( 'NONE', ( #635 ), #1000, .T. ) ;
#1155 = CARTESIAN_POINT ( 'NONE',  ( 44.37332199012103473, 4.286263797015732651E-16, 0.000000000000000000 ) ) ;
#1156 = DIRECTION ( 'NONE',  ( 1.000000000000000000, 0.000000000000000000, 0.000000000000000000 ) ) ;
#1157 = DIRECTION ( 'NONE',  ( -0.000000000000000000, -0.000000000000000000, -1.000000000000000000 ) ) ;
#1158 = ORIENTED_EDGE ( 'NONE', *, *, #1181, .F. ) ;
#1159 = CARTESIAN_POINT ( 'NONE',  ( -3.126678009878964826, 10.00000000000000000, 1.000000000000000000 ) ) ;
#1160 = AXIS2_PLACEMENT_3D ( 'NONE', #1048, #643, #131 ) ;
#1161 = VERTEX_POINT ( 'NONE', #629 ) ;
#1162 = CARTESIAN_POINT ( 'NONE',  ( 16.16647109493833057, 5.000000000000000888, 0.000000000000000000 ) ) ;
#1163 = EDGE_CURVE ( 'NONE', #523, #421, #584, .T. ) ;
#1164 = DIRECTION ( 'NONE',  ( -0.000000000000000000, -0.000000000000000000, -1.000000000000000000 ) ) ;
#1165 = LINE ( 'NONE', #458, #990 ) ;
#1166 = EDGE_LOOP ( 'NONE', ( #674, #297 ) ) ;
#1167 = DIRECTION ( 'NONE',  ( -0.000000000000000000, -0.000000000000000000, -1.000000000000000000 ) ) ;
#1168 = ORIENTED_EDGE ( 'NONE', *, *, #401, .F. ) ;
#1169 = FACE_BOUND ( 'NONE', #479, .T. ) ;
#1170 = AXIS2_PLACEMENT_3D ( 'NONE', #622, #536, #1140 ) ;
#1171 = CARTESIAN_POINT ( 'NONE',  ( -1.126678009878962827, -10.00000000000000000, 1.000000000000000000 ) ) ;
#1172 = DIRECTION ( 'NONE',  ( -0.000000000000000000, -0.000000000000000000, -1.000000000000000000 ) ) ;
#1173 = ORIENTED_EDGE ( 'NONE', *, *, #946, .F. ) ;
#1174 = CARTESIAN_POINT ( 'NONE',  ( 16.16647109493833057, 9.000000000000001776, 1.000000000000000000 ) ) ;
#1175 = AXIS2_PLACEMENT_3D ( 'NONE', #1134, #802, #1305 ) ;
#1176 = ORIENTED_EDGE ( 'NONE', *, *, #578, .F. ) ;
#1177 = CARTESIAN_POINT ( 'NONE',  ( -22.12667800987896527, -10.00000000000000000, 1.000000000000000000 ) ) ;
#1178 = CARTESIAN_POINT ( 'NONE',  ( -23.12667800987896172, -10.00000000000000000, 1.000000000000000000 ) ) ;
#1179 = FACE_OUTER_BOUND ( 'NONE', #120, .T. ) ;
#1180 = ORIENTED_EDGE ( 'NONE', *, *, #1193, .T. ) ;
#1181 = EDGE_CURVE ( 'NONE', #511, #270, #530, .T. ) ;
#1182 = FACE_OUTER_BOUND ( 'NONE', #218, .T. ) ;
#1183 = CARTESIAN_POINT ( 'NONE',  ( 40.87332199012102762, 12.24999999999999822, 1.000000000000000000 ) ) ;
#1184 = ORIENTED_EDGE ( 'NONE', *, *, #309, .T. ) ;
#1185 = EDGE_CURVE ( 'NONE', #824, #176, #1219, .T. ) ;
#1186 = VECTOR ( 'NONE', #91, 1000.000000000000000 ) ;
#1187 = ADVANCED_FACE ( 'NONE', ( #1211 ), #298, .F. ) ;
#1188 = LINE ( 'NONE', #472, #1320 ) ;
#1189 = ORIENTED_EDGE ( 'NONE', *, *, #940, .T. ) ;
#1190 = CIRCLE ( 'NONE', #448, 1.500000000000001332 ) ;
#1191 = LINE ( 'NONE', #784, #873 ) ;
#1192 = AXIS2_PLACEMENT_3D ( 'NONE', #1131, #735, #851 ) ;
#1193 = EDGE_CURVE ( 'NONE', #1074, #1, #955, .T. ) ;
#1194 = DIRECTION ( 'NONE',  ( 0.000000000000000000, 0.000000000000000000, 1.000000000000000000 ) ) ;
#1195 = CARTESIAN_POINT ( 'NONE',  ( 0.000000000000000000, 0.000000000000000000, 0.000000000000000000 ) ) ;
#1196 = ORIENTED_EDGE ( 'NONE', *, *, #7, .T. ) ;
#1197 = CARTESIAN_POINT ( 'NONE',  ( 16.16647109493833057, 9.000000000000001776, 1.000000000000000000 ) ) ;
#1198 = LINE ( 'NONE', #398, #795 ) ;
#1199 = EDGE_CURVE ( 'NONE', #1311, #282, #541, .T. ) ;
#1200 = ORIENTED_EDGE ( 'NONE', *, *, #1193, .F. ) ;
#1201 = DIRECTION ( 'NONE',  ( 1.000000000000000000, 0.000000000000000000, -0.000000000000000000 ) ) ;
#1202 = VECTOR ( 'NONE', #233, 1000.000000000000000 ) ;
#1203 = DIRECTION ( 'NONE',  ( 1.000000000000000000, 0.000000000000000000, -0.000000000000000000 ) ) ;
#1204 = DIRECTION ( 'NONE',  ( 1.000000000000000000, 0.000000000000000000, 0.000000000000000000 ) ) ;
#1205 = ORIENTED_EDGE ( 'NONE', *, *, #1253, .F. ) ;
#1206 = EDGE_CURVE ( 'NONE', #864, #139, #1165, .T. ) ;
#1207 = VECTOR ( 'NONE', #941, 1000.000000000000000 ) ;
#1208 = ORIENTED_EDGE ( 'NONE', *, *, #192, .T. ) ;
#1209 = DIRECTION ( 'NONE',  ( 1.000000000000000000, 0.000000000000000000, 0.000000000000000000 ) ) ;
#1210 = EDGE_LOOP ( 'NONE', ( #1091, #973, #782, #295 ) ) ;
#1211 = FACE_OUTER_BOUND ( 'NONE', #66, .T. ) ;
#1212 = CIRCLE ( 'NONE', #417, 3.500000000000003109 ) ;
#1213 = CARTESIAN_POINT ( 'NONE',  ( 41.58020489614625603, -6.964216866035213727, 0.000000000000000000 ) ) ;
#1214 = ORIENTED_EDGE ( 'NONE', *, *, #87, .F. ) ;
#1215 = VERTEX_POINT ( 'NONE', #158 ) ;
#1216 =( NAMED_UNIT ( * ) SI_UNIT ( $, .STERADIAN. ) SOLID_ANGLE_UNIT ( ) );
#1217 = EDGE_CURVE ( 'NONE', #710, #224, #650, .T. ) ;
#1218 = DIRECTION ( 'NONE',  ( -0.000000000000000000, -0.000000000000000000, -1.000000000000000000 ) ) ;
#1219 = CIRCLE ( 'NONE', #409, 1.000000000000001110 ) ;
#1220 = LINE ( 'NONE', #715, #68 ) ;
#1221 = EDGE_LOOP ( 'NONE', ( #748, #89, #524, #1044 ) ) ;
#1222 = PRESENTATION_STYLE_ASSIGNMENT (( #740 ) ) ;
#1223 = LINE ( 'NONE', #607, #1258 ) ;
#1224 = EDGE_CURVE ( 'NONE', #767, #637, #889, .T. ) ;
#1225 = CARTESIAN_POINT ( 'NONE',  ( -1.126678009878962827, 10.00000000000000000, 1.000000000000000000 ) ) ;
#1226 = ORIENTED_EDGE ( 'NONE', *, *, #883, .T. ) ;
#1227 = DIRECTION ( 'NONE',  ( 3.050045567698648528E-15, 1.000000000000000000, -0.000000000000000000 ) ) ;
#1228 = VECTOR ( 'NONE', #954, 1000.000000000000000 ) ;
#1229 = VERTEX_POINT ( 'NONE', #246 ) ;
#1230 = CARTESIAN_POINT ( 'NONE',  ( 2.873321990121035174, 8.249999999999998224, 1.000000000000000000 ) ) ;
#1231 = AXIS2_PLACEMENT_3D ( 'NONE', #779, #991, #566 ) ;
#1232 = EDGE_CURVE ( 'NONE', #392, #608, #1284, .T. ) ;
#1233 = VECTOR ( 'NONE', #776, 1000.000000000000000 ) ;
#1234 = EDGE_LOOP ( 'NONE', ( #437, #112, #386, #697 ) ) ;
#1235 = DIRECTION ( 'NONE',  ( -0.000000000000000000, 0.000000000000000000, -1.000000000000000000 ) ) ;
#1236 = ORIENTED_EDGE ( 'NONE', *, *, #70, .F. ) ;
#1237 = FACE_OUTER_BOUND ( 'NONE', #1317, .T. ) ;
#1238 = EDGE_LOOP ( 'NONE', ( #773, #59, #308, #806 ) ) ;
#1239 = CARTESIAN_POINT ( 'NONE',  ( 5.873321990121027625, 12.24999999999999822, 1.000000000000000000 ) ) ;
#1240 = EDGE_CURVE ( 'NONE', #693, #1106, #1150, .T. ) ;
#1241 = CARTESIAN_POINT ( 'NONE',  ( -3.126678009878964826, 10.00000000000000000, 0.000000000000000000 ) ) ;
#1242 = CARTESIAN_POINT ( 'NONE',  ( 35.40910512408581923, -0.7068829060252249663, 1.000000000000000000 ) ) ;
#1243 = EDGE_LOOP ( 'NONE', ( #1151, #835 ) ) ;
#1244 = FACE_OUTER_BOUND ( 'NONE', #428, .T. ) ;
#1245 = EDGE_LOOP ( 'NONE', ( #786, #919, #809, #11 ) ) ;
#1246 = CYLINDRICAL_SURFACE ( 'NONE', #752, 1.500000000000001332 ) ;
#1247 = AXIS2_PLACEMENT_3D ( 'NONE', #1174, #259, #682 ) ;
#1248 = FACE_BOUND ( 'NONE', #445, .T. ) ;
#1249 = CIRCLE ( 'NONE', #1082, 3.500000000000003109 ) ;
#1250 = DIRECTION ( 'NONE',  ( 0.000000000000000000, -1.000000000000000000, 0.000000000000000000 ) ) ;
#1251 = ORIENTED_EDGE ( 'NONE', *, *, #1232, .T. ) ;
#1252 = CARTESIAN_POINT ( 'NONE',  ( -2.126678009878963937, 10.00000000000000000, 1.000000000000000000 ) ) ;
#1253 = EDGE_CURVE ( 'NONE', #581, #630, #150, .T. ) ;
#1254 = ORIENTED_EDGE ( 'NONE', *, *, #903, .F. ) ;
#1255 = CARTESIAN_POINT ( 'NONE',  ( 40.16643908409580632, 6.964216866035213727, 1.000000000000000000 ) ) ;
#1256 = AXIS2_PLACEMENT_3D ( 'NONE', #1005, #496, #906 ) ;
#1257 = FACE_BOUND ( 'NONE', #765, .T. ) ;
#1258 = VECTOR ( 'NONE', #1306, 1000.000000000000000 ) ;
#1259 = CARTESIAN_POINT ( 'NONE',  ( -23.12667800987896172, -10.00000000000000000, 1.000000000000000000 ) ) ;
#1260 = VERTEX_POINT ( 'NONE', #1055 ) ;
#1261 = VECTOR ( 'NONE', #600, 1000.000000000000000 ) ;
#1262 = DIRECTION ( 'NONE',  ( 1.000000000000000000, 0.000000000000000000, 0.000000000000000000 ) ) ;
#1263 = ORIENTED_EDGE ( 'NONE', *, *, #25, .T. ) ;
#1264 = EDGE_CURVE ( 'NONE', #608, #966, #658, .T. ) ;
#1265 = PLANE ( 'NONE',  #164 ) ;
#1266 = FACE_OUTER_BOUND ( 'NONE', #1245, .T. ) ;
#1267 = DIRECTION ( 'NONE',  ( 1.000000000000000000, 0.000000000000000000, 0.000000000000000000 ) ) ;
#1268 = ORIENTED_EDGE ( 'NONE', *, *, #1070, .F. ) ;
#1269 = CARTESIAN_POINT ( 'NONE',  ( 24.16647109493833057, -5.000000000000000888, 1.000000000000000000 ) ) ;
#1270 = ORIENTED_EDGE ( 'NONE', *, *, #571, .T. ) ;
#1271 = DIRECTION ( 'NONE',  ( 1.000000000000000000, 0.000000000000000000, -0.000000000000000000 ) ) ;
#1272 = CARTESIAN_POINT ( 'NONE',  ( 40.87332199012102762, 0.000000000000000000, 0.000000000000000000 ) ) ;
#1273 = CARTESIAN_POINT ( 'NONE',  ( 16.16647109493833057, 9.000000000000001776, 0.000000000000000000 ) ) ;
#1274 = EDGE_LOOP ( 'NONE', ( #483, #74, #1095, #1276 ) ) ;
#1275 = CARTESIAN_POINT ( 'NONE',  ( -22.12667800987896527, 10.00000000000000000, 0.000000000000000000 ) ) ;
#1276 = ORIENTED_EDGE ( 'NONE', *, *, #245, .T. ) ;
#1277 = PLANE ( 'NONE',  #577 ) ;
#1278 = CYLINDRICAL_SURFACE ( 'NONE', #984, 1.000000000000000888 ) ;
#1279 = ADVANCED_FACE ( 'NONE', ( #49 ), #1064, .F. ) ;
#1280 = ORIENTED_EDGE ( 'NONE', *, *, #1103, .T. ) ;
#1281 = DIRECTION ( 'NONE',  ( -0.000000000000000000, -0.000000000000000000, -1.000000000000000000 ) ) ;
#1282 = CYLINDRICAL_SURFACE ( 'NONE', #619, 3.500000000000003109 ) ;
#1283 = EDGE_CURVE ( 'NONE', #839, #203, #760, .T. ) ;
#1284 = LINE ( 'NONE', #451, #1050 ) ;
#1285 = ORIENTED_EDGE ( 'NONE', *, *, #1110, .F. ) ;
#1286 = VECTOR ( 'NONE', #136, 1000.000000000000000 ) ;
#1287 = DIRECTION ( 'NONE',  ( -1.000000000000000000, -3.469446951953614189E-16, 0.000000000000000000 ) ) ;
#1288 = DIRECTION ( 'NONE',  ( -1.000000000000000000, 0.000000000000000000, 0.000000000000000000 ) ) ;
#1289 = ORIENTED_EDGE ( 'NONE', *, *, #1117, .T. ) ;
#1290 = EDGE_CURVE ( 'NONE', #1, #864, #567, .T. ) ;
#1291 = VECTOR ( 'NONE', #113, 1000.000000000000000 ) ;
#1292 = CARTESIAN_POINT ( 'NONE',  ( 46.33753885615624313, 0.7068829060252259655, 0.000000000000000000 ) ) ;
#1293 = AXIS2_PLACEMENT_3D ( 'NONE', #332, #1047, #1156 ) ;
#1294 = DIRECTION ( 'NONE',  ( 1.000000000000000000, 0.000000000000000000, 0.000000000000000000 ) ) ;
#1295 = ORIENTED_EDGE ( 'NONE', *, *, #227, .F. ) ;
#1296 = DIRECTION ( 'NONE',  ( 0.000000000000000000, 0.000000000000000000, 1.000000000000000000 ) ) ;
#1297 = VECTOR ( 'NONE', #1250, 1000.000000000000000 ) ;
#1298 = CARTESIAN_POINT ( 'NONE',  ( 47.83753885615624313, 0.7068829060252259655, 1.000000000000000000 ) ) ;
#1299 = ADVANCED_FACE ( 'NONE', ( #257 ), #972, .F. ) ;
#1300 = VECTOR ( 'NONE', #1008, 1000.000000000000000 ) ;
#1301 = DIRECTION ( 'NONE',  ( -0.000000000000000000, -0.000000000000000000, -1.000000000000000000 ) ) ;
#1302 = EDGE_CURVE ( 'NONE', #1229, #322, #333, .T. ) ;
#1303 = VERTEX_POINT ( 'NONE', #1273 ) ;
#1304 = FACE_BOUND ( 'NONE', #1031, .T. ) ;
#1305 = DIRECTION ( 'NONE',  ( 1.000000000000000000, 1.284980352575412453E-16, 0.000000000000000000 ) ) ;
#1306 = DIRECTION ( 'NONE',  ( -0.000000000000000000, -0.000000000000000000, -1.000000000000000000 ) ) ;
#1307 = ORIENTED_EDGE ( 'NONE', *, *, #1110, .T. ) ;
#1308 = EDGE_LOOP ( 'NONE', ( #196, #320, #1105, #1137 ) ) ;
#1309 = DIRECTION ( 'NONE',  ( 1.000000000000000000, 0.000000000000000000, 0.000000000000000000 ) ) ;
#1310 = VECTOR ( 'NONE', #660, 1000.000000000000000 ) ;
#1311 = VERTEX_POINT ( 'NONE', #33 ) ;
#1312 = DIRECTION ( 'NONE',  ( 0.000000000000000000, 0.000000000000000000, 1.000000000000000000 ) ) ;
#1313 = CYLINDRICAL_SURFACE ( 'NONE', #103, 1.000000000000000888 ) ;
#1314 = APPLICATION_PROTOCOL_DEFINITION ( 'draft international standard', 'automotive_design', 1998, #675 ) ;
#1315 = ADVANCED_FACE ( 'NONE', ( #853 ), #358, .F. ) ;
#1316 = ORIENTED_EDGE ( 'NONE', *, *, #552, .T. ) ;
#1317 = EDGE_LOOP ( 'NONE', ( #921, #1085, #1069, #518 ) ) ;
#1318 = CIRCLE ( 'NONE', #400, 0.9999999999999974465 ) ;
#1319 = VERTEX_POINT ( 'NONE', #466 ) ;
#1320 = VECTOR ( 'NONE', #274, 1000.000000000000000 ) ;
#1321 = VECTOR ( 'NONE', #633, 1000.000000000000000 ) ;
#1322 = CARTESIAN_POINT ( 'NONE',  ( 32.40910512408581923, -0.7068829060252251884, 0.000000000000000000 ) ) ;
#1323 = CARTESIAN_POINT ( 'NONE',  ( 40.87332199012102762, 0.000000000000000000, 1.000000000000000000 ) ) ;
#1324 = VERTEX_POINT ( 'NONE', #879 ) ;
#1325 = DIRECTION ( 'NONE',  ( -8.673617379884029556E-16, -1.000000000000000000, 0.000000000000000000 ) ) ;
ENDSEC;
END-ISO-10303-21;
