ISO-10303-21;
HEADER;
FILE_DESCRIPTION (( 'STEP AP214' ),
    '1' );
FILE_NAME ('esp_transmittor_case_shell.STEP',
    '2026-09-26T12:23:29',
    ( '' ),
    ( '' ),
    'SwSTEP 2.0',
    'SolidWorks 2026',
    '' );
FILE_SCHEMA (( 'AUTOMOTIVE_DESIGN' ));
ENDSEC;

DATA;
#1 = EDGE_CURVE ( 'NONE', #611, #879, #909, .T. ) ;
#2 = DIRECTION ( 'NONE',  ( 0.000000000000000000, -1.000000000000000000, 0.000000000000000000 ) ) ;
#3 = CIRCLE ( 'NONE', #315, 1.000000000000000888 ) ;
#4 = LINE ( 'NONE', #527, #1040 ) ;
#5 = DIRECTION ( 'NONE',  ( 1.000000000000000000, 0.000000000000000000, 0.000000000000000000 ) ) ;
#6 = EDGE_LOOP ( 'NONE', ( #510, #977, #965, #717 ) ) ;
#7 = DIRECTION ( 'NONE',  ( 0.000000000000000000, 3.469446951953614189E-16, -1.000000000000000000 ) ) ;
#8 = DIRECTION ( 'NONE',  ( 0.000000000000000000, -0.000000000000000000, -1.000000000000000000 ) ) ;
#9 = ORIENTED_EDGE ( 'NONE', *, *, #272, .T. ) ;
#10 = VECTOR ( 'NONE', #649, 1000.000000000000000 ) ;
#11 = LINE ( 'NONE', #1087, #359 ) ;
#12 = VERTEX_POINT ( 'NONE', #1084 ) ;
#13 = DIRECTION ( 'NONE',  ( 1.000000000000000000, 0.000000000000000000, -0.000000000000000000 ) ) ;
#14 = AXIS2_PLACEMENT_3D ( 'NONE', #572, #493, #1039 ) ;
#15 = CYLINDRICAL_SURFACE ( 'NONE', #840, 1.000000000000000000 ) ;
#16 = EDGE_CURVE ( 'NONE', #423, #175, #699, .T. ) ;
#17 = DIRECTION ( 'NONE',  ( -1.000000000000000000, 0.000000000000000000, 0.000000000000000000 ) ) ;
#18 = ORIENTED_EDGE ( 'NONE', *, *, #588, .F. ) ;
#19 = CIRCLE ( 'NONE', #176, 1.000000000000000888 ) ;
#20 = CARTESIAN_POINT ( 'NONE',  ( 26.00000000000000355, 17.00000000000000000, 19.00000000000000355 ) ) ;
#21 = ORIENTED_EDGE ( 'NONE', *, *, #300, .T. ) ;
#22 = ADVANCED_FACE ( 'NONE', ( #453, #366 ), #902, .T. ) ;
#23 = LINE ( 'NONE', #271, #752 ) ;
#24 = CARTESIAN_POINT ( 'NONE',  ( 3.000000000000002665, -12.99999999999999822, 2.000000000000000000 ) ) ;
#25 = DIRECTION ( 'NONE',  ( 1.020425574104004122E-16, -1.000000000000000000, 0.000000000000000000 ) ) ;
#26 = ORIENTED_EDGE ( 'NONE', *, *, #66, .T. ) ;
#27 = LINE ( 'NONE', #57, #920 ) ;
#28 = AXIS2_PLACEMENT_3D ( 'NONE', #950, #498, #869 ) ;
#29 = EDGE_CURVE ( 'NONE', #73, #51, #156, .T. ) ;
#30 = EDGE_LOOP ( 'NONE', ( #385, #264, #1066, #985 ) ) ;
#31 = CARTESIAN_POINT ( 'NONE',  ( 26.00000000000000000, -17.00000000000000000, 0.000000000000000000 ) ) ;
#32 = CARTESIAN_POINT ( 'NONE',  ( -25.99999999999999645, 16.00000000000000000, 2.000000000000000000 ) ) ;
#33 = VECTOR ( 'NONE', #1068, 1000.000000000000000 ) ;
#34 = ADVANCED_FACE ( 'NONE', ( #640, #1080 ), #542, .F. ) ;
#35 = CARTESIAN_POINT ( 'NONE',  ( 26.00000000000000000, -4.000000000000000888, 6.999999999999999112 ) ) ;
#36 = EDGE_LOOP ( 'NONE', ( #256, #871, #438, #193 ) ) ;
#37 = CARTESIAN_POINT ( 'NONE',  ( 10.00000000000000178, 3.999999999999999112, 4.000000000000001776 ) ) ;
#38 = AXIS2_PLACEMENT_3D ( 'NONE', #813, #17, #354 ) ;
#39 = CARTESIAN_POINT ( 'NONE',  ( -23.99999999999999645, 14.00000000000000355, 2.000000000000000000 ) ) ;
#40 = LINE ( 'NONE', #383, #167 ) ;
#41 = ORIENTED_EDGE ( 'NONE', *, *, #345, .F. ) ;
#42 = CARTESIAN_POINT ( 'NONE',  ( 25.99999999999999645, 15.00000000000000000, 2.000000000000000000 ) ) ;
#43 = VERTEX_POINT ( 'NONE', #819 ) ;
#44 = CARTESIAN_POINT ( 'NONE',  ( -26.99999999999999645, 16.00000000000000000, 2.000000000000000000 ) ) ;
#45 = CARTESIAN_POINT ( 'NONE',  ( -23.99999999999999645, -13.00000000000000000, 0.000000000000000000 ) ) ;
#46 = EDGE_CURVE ( 'NONE', #683, #128, #605, .T. ) ;
#47 = ADVANCED_FACE ( 'NONE', ( #279, #103 ), #636, .T. ) ;
#48 = DIRECTION ( 'NONE',  ( 1.084202172485504434E-16, -1.000000000000000000, 0.000000000000000000 ) ) ;
#49 = ORIENTED_EDGE ( 'NONE', *, *, #807, .T. ) ;
#50 = DIRECTION ( 'NONE',  ( 0.000000000000000000, -1.000000000000000000, -3.469446951953614189E-16 ) ) ;
#51 = VERTEX_POINT ( 'NONE', #442 ) ;
#52 = CARTESIAN_POINT ( 'NONE',  ( 2.999999999999992450, 14.00000000000000355, 0.000000000000000000 ) ) ;
#53 = AXIS2_PLACEMENT_3D ( 'NONE', #851, #592, #1098 ) ;
#54 = CARTESIAN_POINT ( 'NONE',  ( -24.99999999999999645, -16.00000000000000000, 2.000000000000000000 ) ) ;
#55 = ADVANCED_FACE ( 'NONE', ( #1000 ), #371, .T. ) ;
#56 = ORIENTED_EDGE ( 'NONE', *, *, #266, .T. ) ;
#57 = CARTESIAN_POINT ( 'NONE',  ( -24.99999999999999645, -16.00000000000000000, 19.00000000000000355 ) ) ;
#58 = VERTEX_POINT ( 'NONE', #913 ) ;
#59 = EDGE_CURVE ( 'NONE', #12, #475, #11, .T. ) ;
#60 = CARTESIAN_POINT ( 'NONE',  ( 24.99999999999999645, -16.00000000000000000, 2.000000000000000000 ) ) ;
#61 = AXIS2_PLACEMENT_3D ( 'NONE', #364, #725, #895 ) ;
#62 = LINE ( 'NONE', #615, #384 ) ;
#63 = ORIENTED_EDGE ( 'NONE', *, *, #730, .F. ) ;
#64 = CARTESIAN_POINT ( 'NONE',  ( 24.99999999999999289, 15.00000000000000000, 19.00000000000000355 ) ) ;
#65 = AXIS2_PLACEMENT_3D ( 'NONE', #501, #242, #122 ) ;
#66 = EDGE_CURVE ( 'NONE', #128, #349, #916, .T. ) ;
#67 = ORIENTED_EDGE ( 'NONE', *, *, #585, .F. ) ;
#68 = DIRECTION ( 'NONE',  ( -0.000000000000000000, -0.000000000000000000, 1.000000000000000000 ) ) ;
#69 =( NAMED_UNIT ( * ) SI_UNIT ( $, .STERADIAN. ) SOLID_ANGLE_UNIT ( ) );
#70 = DIRECTION ( 'NONE',  ( 1.000000000000000000, 0.000000000000000000, 0.000000000000000000 ) ) ;
#71 = ORIENTED_EDGE ( 'NONE', *, *, #288, .T. ) ;
#72 = ADVANCED_FACE ( 'NONE', ( #830 ), #462, .T. ) ;
#73 = VERTEX_POINT ( 'NONE', #667 ) ;
#74 = LINE ( 'NONE', #92, #387 ) ;
#75 = VECTOR ( 'NONE', #1095, 1000.000000000000000 ) ;
#76 = CARTESIAN_POINT ( 'NONE',  ( 26.00000000000000355, -16.00000000000000000, 0.000000000000000000 ) ) ;
#77 = ORIENTED_EDGE ( 'NONE', *, *, #413, .T. ) ;
#78 = CARTESIAN_POINT ( 'NONE',  ( 10.00000000000000178, 4.999999999999999112, 8.000000000000001776 ) ) ;
#79 = ORIENTED_EDGE ( 'NONE', *, *, #358, .T. ) ;
#80 = CARTESIAN_POINT ( 'NONE',  ( 4.000000000000000000, 14.00000000000000355, 2.000000000000000000 ) ) ;
#81 = CARTESIAN_POINT ( 'NONE',  ( -22.99999999999999645, -13.99999999999999645, 0.000000000000000000 ) ) ;
#82 = ORIENTED_EDGE ( 'NONE', *, *, #670, .T. ) ;
#83 = CARTESIAN_POINT ( 'NONE',  ( -24.99999999999999645, -16.00000000000000000, 19.00000000000000355 ) ) ;
#84 = EDGE_LOOP ( 'NONE', ( #513, #472, #979, #170 ) ) ;
#85 = AXIS2_PLACEMENT_3D ( 'NONE', #760, #404, #1122 ) ;
#86 = LINE ( 'NONE', #350, #849 ) ;
#87 = EDGE_CURVE ( 'NONE', #297, #444, #1032, .T. ) ;
#88 = FACE_OUTER_BOUND ( 'NONE', #36, .T. ) ;
#89 = EDGE_CURVE ( 'NONE', #704, #879, #564, .T. ) ;
#90 = AXIS2_PLACEMENT_3D ( 'NONE', #78, #966, #617 ) ;
#91 = DIRECTION ( 'NONE',  ( -0.000000000000000000, 0.000000000000000000, 1.000000000000000000 ) ) ;
#92 = CARTESIAN_POINT ( 'NONE',  ( -25.99999999999999645, 17.00000000000000000, 2.000000000000000000 ) ) ;
#93 = AXIS2_PLACEMENT_3D ( 'NONE', #805, #1074, #627 ) ;
#94 = DIRECTION ( 'NONE',  ( 1.000000000000000000, 0.000000000000000000, 0.000000000000000000 ) ) ;
#95 = ORIENTED_EDGE ( 'NONE', *, *, #1051, .F. ) ;
#96 = ORIENTED_EDGE ( 'NONE', *, *, #29, .F. ) ;
#97 = EDGE_CURVE ( 'NONE', #433, #573, #40, .T. ) ;
#98 = DIRECTION ( 'NONE',  ( 0.000000000000000000, -0.000000000000000000, -1.000000000000000000 ) ) ;
#99 = AXIS2_PLACEMENT_3D ( 'NONE', #744, #7, #281 ) ;
#100 = CARTESIAN_POINT ( 'NONE',  ( 2.999999999999992450, 14.00000000000000355, 2.000000000000000000 ) ) ;
#101 = EDGE_LOOP ( 'NONE', ( #1081, #663, #754, #774 ) ) ;
#102 = EDGE_CURVE ( 'NONE', #758, #601, #427, .T. ) ;
#103 = FACE_OUTER_BOUND ( 'NONE', #651, .T. ) ;
#104 = PRODUCT_DEFINITION_FORMATION_WITH_SPECIFIED_SOURCE ( 'ANY', '', #212, .NOT_KNOWN. ) ;
#105 = ORIENTED_EDGE ( 'NONE', *, *, #267, .F. ) ;
#106 = PLANE ( 'NONE',  #523 ) ;
#107 = VECTOR ( 'NONE', #1025, 1000.000000000000000 ) ;
#108 = PLANE ( 'NONE',  #411 ) ;
#109 = AXIS2_PLACEMENT_3D ( 'NONE', #1005, #197, #552 ) ;
#110 = ADVANCED_FACE ( 'NONE', ( #570 ), #398, .F. ) ;
#111 = DIRECTION ( 'NONE',  ( -1.000000000000000000, 0.000000000000000000, 0.000000000000000000 ) ) ;
#112 = ORIENTED_EDGE ( 'NONE', *, *, #723, .T. ) ;
#113 = DIRECTION ( 'NONE',  ( 0.000000000000000000, -1.000000000000000000, 0.000000000000000000 ) ) ;
#114 = CARTESIAN_POINT ( 'NONE',  ( 26.00000000000000000, 4.999999999999999112, 7.000000000000002665 ) ) ;
#115 = DIRECTION ( 'NONE',  ( 0.000000000000000000, 0.000000000000000000, 1.000000000000000000 ) ) ;
#116 = VECTOR ( 'NONE', #508, 1000.000000000000000 ) ;
#117 = EDGE_CURVE ( 'NONE', #1112, #543, #471, .T. ) ;
#118 = CARTESIAN_POINT ( 'NONE',  ( -22.99999999999999645, 13.00000000000000533, 2.000000000000000000 ) ) ;
#119 = ORIENTED_EDGE ( 'NONE', *, *, #821, .T. ) ;
#120 = CARTESIAN_POINT ( 'NONE',  ( 27.00000000000000355, -16.00000000000000000, 0.000000000000000000 ) ) ;
#121 = ORIENTED_EDGE ( 'NONE', *, *, #158, .T. ) ;
#122 = DIRECTION ( 'NONE',  ( 0.000000000000000000, -0.000000000000000000, 1.000000000000000000 ) ) ;
#123 = CARTESIAN_POINT ( 'NONE',  ( -25.00000000000000000, 15.00000000000000000, 19.00000000000000355 ) ) ;
#124 = DIRECTION ( 'NONE',  ( 1.000000000000000000, 1.020425574104004122E-16, -0.000000000000000000 ) ) ;
#125 = EDGE_LOOP ( 'NONE', ( #759, #287, #160, #618 ) ) ;
#126 = PLANE ( 'NONE',  #668 ) ;
#127 = VECTOR ( 'NONE', #420, 1000.000000000000000 ) ;
#128 = VERTEX_POINT ( 'NONE', #855 ) ;
#129 = CARTESIAN_POINT ( 'NONE',  ( -24.99999999999999645, -15.00000000000000000, 2.000000000000001776 ) ) ;
#130 = DIRECTION ( 'NONE',  ( -1.000000000000000000, -0.000000000000000000, -0.000000000000000000 ) ) ;
#131 = FACE_OUTER_BOUND ( 'NONE', #499, .T. ) ;
#132 = VERTEX_POINT ( 'NONE', #1104 ) ;
#133 = CARTESIAN_POINT ( 'NONE',  ( -26.00000000000000000, -15.00000000000000000, 2.000000000000001776 ) ) ;
#134 = VERTEX_POINT ( 'NONE', #933 ) ;
#135 = DIRECTION ( 'NONE',  ( 0.000000000000000000, 0.000000000000000000, 1.000000000000000000 ) ) ;
#136 = PRODUCT_CONTEXT ( 'NONE', #829, 'mechanical' ) ;
#137 = EDGE_CURVE ( 'NONE', #175, #426, #1009, .T. ) ;
#138 = DIRECTION ( 'NONE',  ( 0.000000000000000000, -1.000000000000000000, 0.000000000000000000 ) ) ;
#139 = ORIENTED_EDGE ( 'NONE', *, *, #390, .T. ) ;
#140 = FACE_BOUND ( 'NONE', #779, .T. ) ;
#141 = ORIENTED_EDGE ( 'NONE', *, *, #563, .T. ) ;
#142 = LINE ( 'NONE', #39, #107 ) ;
#143 = DIRECTION ( 'NONE',  ( -1.000000000000000000, -0.000000000000000000, -0.000000000000000000 ) ) ;
#144 = VERTEX_POINT ( 'NONE', #296 ) ;
#145 = FACE_OUTER_BOUND ( 'NONE', #332, .T. ) ;
#146 = AXIS2_PLACEMENT_3D ( 'NONE', #540, #1070, #261 ) ;
#147 = ORIENTED_EDGE ( 'NONE', *, *, #329, .F. ) ;
#148 = DIRECTION ( 'NONE',  ( -0.000000000000000000, 0.000000000000000000, 1.000000000000000000 ) ) ;
#149 = COLOUR_RGB ( '',0.7921568627450980005, 0.8196078431372548767, 0.9333333333333333481 ) ;
#150 = CARTESIAN_POINT ( 'NONE',  ( 4.000000000000000000, 14.00000000000000355, 0.000000000000000000 ) ) ;
#151 = ADVANCED_FACE ( 'NONE', ( #927 ), #377, .F. ) ;
#152 = ORIENTED_EDGE ( 'NONE', *, *, #372, .T. ) ;
#153 = LINE ( 'NONE', #324, #494 ) ;
#154 = ORIENTED_EDGE ( 'NONE', *, *, #988, .F. ) ;
#155 = DIRECTION ( 'NONE',  ( -0.000000000000000000, -0.000000000000000000, 1.000000000000000000 ) ) ;
#156 = CIRCLE ( 'NONE', #1107, 1.000000000000000888 ) ;
#157 = LINE ( 'NONE', #1125, #939 ) ;
#158 = EDGE_CURVE ( 'NONE', #361, #809, #1091, .T. ) ;
#159 = EDGE_LOOP ( 'NONE', ( #747, #26, #525, #1042 ) ) ;
#160 = ORIENTED_EDGE ( 'NONE', *, *, #981, .F. ) ;
#161 = DIRECTION ( 'NONE',  ( -1.000000000000000000, -1.239088197126291063E-16, 0.000000000000000000 ) ) ;
#162 = AXIS2_PLACEMENT_3D ( 'NONE', #32, #680, #710 ) ;
#163 = DIRECTION ( 'NONE',  ( -1.239088197126290817E-16, 1.000000000000000000, -0.000000000000000000 ) ) ;
#164 = VERTEX_POINT ( 'NONE', #20 ) ;
#165 = EDGE_LOOP ( 'NONE', ( #147, #1004, #379, #139, #721, #532, #1067, #712 ) ) ;
#166 = CARTESIAN_POINT ( 'NONE',  ( -22.99999999999999645, 14.00000000000000355, 0.000000000000000000 ) ) ;
#167 = VECTOR ( 'NONE', #582, 1000.000000000000000 ) ;
#168 = DIRECTION ( 'NONE',  ( 1.000000000000000000, 0.000000000000000000, 0.000000000000000000 ) ) ;
#169 = AXIS2_PLACEMENT_3D ( 'NONE', #37, #394, #952 ) ;
#170 = ORIENTED_EDGE ( 'NONE', *, *, #325, .F. ) ;
#171 = ORIENTED_EDGE ( 'NONE', *, *, #834, .T. ) ;
#172 = CARTESIAN_POINT ( 'NONE',  ( -26.00000000000000000, -15.00000000000000000, 2.000000000000000000 ) ) ;
#173 = EDGE_CURVE ( 'NONE', #1121, #291, #575, .T. ) ;
#174 = DIRECTION ( 'NONE',  ( 0.000000000000000000, -1.000000000000000000, 0.000000000000000000 ) ) ;
#175 = VERTEX_POINT ( 'NONE', #757 ) ;
#176 = AXIS2_PLACEMENT_3D ( 'NONE', #429, #357, #445 ) ;
#177 = CARTESIAN_POINT ( 'NONE',  ( 27.00000000000000355, 4.999999999999999112, 8.000000000000001776 ) ) ;
#178 = CARTESIAN_POINT ( 'NONE',  ( -26.99999999999999289, -17.00000000000000000, 0.000000000000000000 ) ) ;
#179 = VECTOR ( 'NONE', #130, 1000.000000000000000 ) ;
#180 = CARTESIAN_POINT ( 'NONE',  ( -25.99999999999999645, 16.00000000000000000, 19.00000000000000355 ) ) ;
#181 = ORIENTED_EDGE ( 'NONE', *, *, #994, .T. ) ;
#182 = FILL_AREA_STYLE ('',( #986 ) ) ;
#183 = CARTESIAN_POINT ( 'NONE',  ( 26.00000000000000000, 4.000000000000000000, 8.000000000000001776 ) ) ;
#184 = VECTOR ( 'NONE', #230, 1000.000000000000000 ) ;
#185 = DIRECTION ( 'NONE',  ( -0.000000000000000000, 0.000000000000000000, 1.000000000000000000 ) ) ;
#186 = EDGE_CURVE ( 'NONE', #595, #43, #764, .T. ) ;
#187 = ORIENTED_EDGE ( 'NONE', *, *, #838, .F. ) ;
#188 = SURFACE_SIDE_STYLE ('',( #992 ) ) ;
#189 = AXIS2_PLACEMENT_3D ( 'NONE', #260, #619, #980 ) ;
#190 = DIRECTION ( 'NONE',  ( 1.000000000000000000, -1.734723475976807094E-15, 0.000000000000000000 ) ) ;
#191 = CARTESIAN_POINT ( 'NONE',  ( -23.99999999999999645, 14.00000000000000355, 2.000000000000000000 ) ) ;
#192 = EDGE_CURVE ( 'NONE', #349, #275, #1111, .T. ) ;
#193 = ORIENTED_EDGE ( 'NONE', *, *, #97, .T. ) ;
#194 = DIRECTION ( 'NONE',  ( 0.000000000000000000, -1.000000000000000000, 0.000000000000000000 ) ) ;
#195 = CARTESIAN_POINT ( 'NONE',  ( 26.00000000000000000, 3.999999999999999112, 3.000000000000001332 ) ) ;
#196 = ORIENTED_EDGE ( 'NONE', *, *, #816, .T. ) ;
#197 = DIRECTION ( 'NONE',  ( 0.000000000000000000, -0.000000000000000000, -1.000000000000000000 ) ) ;
#198 = CARTESIAN_POINT ( 'NONE',  ( 10.00000000000000178, -4.000000000000000888, 6.999999999999999112 ) ) ;
#199 = EDGE_LOOP ( 'NONE', ( #507, #56, #95, #866 ) ) ;
#200 = CARTESIAN_POINT ( 'NONE',  ( 26.00000000000000000, 4.999999999999999112, 4.000000000000001776 ) ) ;
#201 = AXIS2_PLACEMENT_3D ( 'NONE', #677, #1113, #303 ) ;
#202 = MECHANICAL_DESIGN_GEOMETRIC_PRESENTATION_REPRESENTATION (  '', ( #503 ), #293 ) ;
#203 = EDGE_CURVE ( 'NONE', #132, #629, #1117, .T. ) ;
#204 = ADVANCED_FACE ( 'NONE', ( #737 ), #1027, .F. ) ;
#205 = CARTESIAN_POINT ( 'NONE',  ( -25.99999999999999289, -17.00000000000000000, 19.00000000000000355 ) ) ;
#206 = AXIS2_PLACEMENT_3D ( 'NONE', #720, #456, #715 ) ;
#207 = ORIENTED_EDGE ( 'NONE', *, *, #697, .F. ) ;
#208 = DIRECTION ( 'NONE',  ( -0.000000000000000000, -0.000000000000000000, 1.000000000000000000 ) ) ;
#209 = DIRECTION ( 'NONE',  ( 1.000000000000000000, 0.000000000000000000, 0.000000000000000000 ) ) ;
#210 = CARTESIAN_POINT ( 'NONE',  ( 26.00000000000000355, -15.00000000000000000, 2.000000000000000000 ) ) ;
#211 = CARTESIAN_POINT ( 'NONE',  ( -26.99999999999999645, 17.00000000000000000, 2.000000000000000000 ) ) ;
#212 = PRODUCT ( 'esp_transmittor_case_shell', 'esp_transmittor_case_shell', '', ( #136 ) ) ;
#213 = ORIENTED_EDGE ( 'NONE', *, *, #137, .T. ) ;
#214 = FACE_OUTER_BOUND ( 'NONE', #449, .T. ) ;
#215 = ORIENTED_EDGE ( 'NONE', *, *, #556, .F. ) ;
#216 = DIRECTION ( 'NONE',  ( -0.000000000000000000, 0.000000000000000000, 1.000000000000000000 ) ) ;
#217 = DIRECTION ( 'NONE',  ( 0.000000000000000000, 0.000000000000000000, 1.000000000000000000 ) ) ;
#218 = VECTOR ( 'NONE', #48, 1000.000000000000000 ) ;
#219 = ORIENTED_EDGE ( 'NONE', *, *, #117, .F. ) ;
#220 = EDGE_CURVE ( 'NONE', #275, #1011, #576, .T. ) ;
#221 = FACE_OUTER_BOUND ( 'NONE', #388, .T. ) ;
#222 = CARTESIAN_POINT ( 'NONE',  ( 25.99999999999999645, 16.00000000000000355, 8.000000000000005329 ) ) ;
#223 = CARTESIAN_POINT ( 'NONE',  ( 27.00000000000000355, -16.00000000000000000, 19.00000000000000355 ) ) ;
#224 = DIRECTION ( 'NONE',  ( -1.000000000000000000, 0.000000000000000000, -0.000000000000000000 ) ) ;
#225 = VERTEX_POINT ( 'NONE', #205 ) ;
#226 = DIRECTION ( 'NONE',  ( 0.000000000000000000, -0.000000000000000000, 1.000000000000000000 ) ) ;
#227 = CARTESIAN_POINT ( 'NONE',  ( 27.00000000000000355, 4.999999999999999112, 3.000000000000001776 ) ) ;
#228 = ADVANCED_FACE ( 'NONE', ( #131 ), #485, .F. ) ;
#229 = CIRCLE ( 'NONE', #681, 1.000000000000000888 ) ;
#230 = DIRECTION ( 'NONE',  ( -1.000000000000000000, -0.000000000000000000, -0.000000000000000000 ) ) ;
#231 = ORIENTED_EDGE ( 'NONE', *, *, #1, .F. ) ;
#232 = DIRECTION ( 'NONE',  ( -1.000000000000000000, -2.168404344971008868E-16, 0.000000000000000000 ) ) ;
#233 = ORIENTED_EDGE ( 'NONE', *, *, #654, .F. ) ;
#234 = FACE_OUTER_BOUND ( 'NONE', #551, .T. ) ;
#235 = AXIS2_PLACEMENT_3D ( 'NONE', #671, #226, #584 ) ;
#236 = EDGE_CURVE ( 'NONE', #676, #1151, #959, .T. ) ;
#237 = DIRECTION ( 'NONE',  ( -1.239088197126290817E-16, 1.000000000000000000, -0.000000000000000000 ) ) ;
#238 = ORIENTED_EDGE ( 'NONE', *, *, #648, .F. ) ;
#239 = CARTESIAN_POINT ( 'NONE',  ( 10.00000000000000178, -4.000000000000001776, 3.999999999999998224 ) ) ;
#240 = AXIS2_PLACEMENT_3D ( 'NONE', #1083, #8, #5 ) ;
#241 = ORIENTED_EDGE ( 'NONE', *, *, #816, .F. ) ;
#242 = DIRECTION ( 'NONE',  ( 0.000000000000000000, 1.000000000000000000, 0.000000000000000000 ) ) ;
#243 = AXIS2_PLACEMENT_3D ( 'NONE', #246, #599, #70 ) ;
#244 = CARTESIAN_POINT ( 'NONE',  ( -27.00000000000000355, 17.00000000000000000, 19.00000000000000355 ) ) ;
#245 = VECTOR ( 'NONE', #639, 1000.000000000000000 ) ;
#246 = CARTESIAN_POINT ( 'NONE',  ( -24.99999999999999645, -15.00000000000000000, 19.00000000000000355 ) ) ;
#247 = ORIENTED_EDGE ( 'NONE', *, *, #821, .F. ) ;
#248 = ORIENTED_EDGE ( 'NONE', *, *, #534, .T. ) ;
#249 = CARTESIAN_POINT ( 'NONE',  ( 3.000000000000000000, 13.00000000000000533, 2.000000000000000000 ) ) ;
#250 = CARTESIAN_POINT ( 'NONE',  ( -25.00000000000000000, 15.00000000000000000, 19.00000000000000355 ) ) ;
#251 = ORIENTED_EDGE ( 'NONE', *, *, #89, .T. ) ;
#252 = EDGE_LOOP ( 'NONE', ( #1158, #399, #41, #850 ) ) ;
#253 = FACE_OUTER_BOUND ( 'NONE', #766, .T. ) ;
#254 = AXIS2_PLACEMENT_3D ( 'NONE', #1135, #355, #628 ) ;
#255 = CARTESIAN_POINT ( 'NONE',  ( 27.00000000000000355, 4.999999999999999112, 4.000000000000001776 ) ) ;
#256 = ORIENTED_EDGE ( 'NONE', *, *, #341, .T. ) ;
#257 = ADVANCED_FACE ( 'NONE', ( #969 ), #874, .F. ) ;
#258 = EDGE_CURVE ( 'NONE', #600, #616, #609, .T. ) ;
#259 = ORIENTED_EDGE ( 'NONE', *, *, #626, .T. ) ;
#260 = CARTESIAN_POINT ( 'NONE',  ( 27.00000000000000355, -4.000000000000000888, 6.999999999999999112 ) ) ;
#261 = DIRECTION ( 'NONE',  ( 0.000000000000000000, -0.000000000000000000, 1.000000000000000000 ) ) ;
#262 = DIRECTION ( 'NONE',  ( 0.000000000000000000, 0.000000000000000000, 1.000000000000000000 ) ) ;
#263 = DIRECTION ( 'NONE',  ( 0.000000000000000000, 0.000000000000000000, -1.000000000000000000 ) ) ;
#264 = ORIENTED_EDGE ( 'NONE', *, *, #451, .T. ) ;
#265 = DIRECTION ( 'NONE',  ( 0.000000000000000000, 0.000000000000000000, -1.000000000000000000 ) ) ;
#266 = EDGE_CURVE ( 'NONE', #283, #586, #62, .T. ) ;
#267 = EDGE_CURVE ( 'NONE', #669, #836, #406, .T. ) ;
#268 = CARTESIAN_POINT ( 'NONE',  ( -23.99999999999999645, 14.00000000000000355, 2.000000000000000000 ) ) ;
#269 = ORIENTED_EDGE ( 'NONE', *, *, #1150, .T. ) ;
#270 = AXIS2_PLACEMENT_3D ( 'NONE', #673, #216, #1134 ) ;
#271 = CARTESIAN_POINT ( 'NONE',  ( -26.00000000000000355, 15.00000000000000000, 19.00000000000000355 ) ) ;
#272 = EDGE_CURVE ( 'NONE', #134, #414, #157, .T. ) ;
#273 = CARTESIAN_POINT ( 'NONE',  ( 26.00000000000000000, -5.000000000000000888, 3.999999999999998224 ) ) ;
#274 = CARTESIAN_POINT ( 'NONE',  ( 27.00000000000000355, 17.00000000000000000, 2.000000000000000000 ) ) ;
#275 = VERTEX_POINT ( 'NONE', #425 ) ;
#276 = EDGE_CURVE ( 'NONE', #1072, #659, #509, .T. ) ;
#277 = DIRECTION ( 'NONE',  ( 1.000000000000000000, 1.084202172485504434E-16, -0.000000000000000000 ) ) ;
#278 = AXIS2_PLACEMENT_3D ( 'NONE', #250, #1045, #504 ) ;
#279 = FACE_BOUND ( 'NONE', #795, .T. ) ;
#280 = ORIENTED_EDGE ( 'NONE', *, *, #102, .T. ) ;
#281 = DIRECTION ( 'NONE',  ( 0.000000000000000000, 1.000000000000000000, 3.469446951953614189E-16 ) ) ;
#282 = DIRECTION ( 'NONE',  ( -1.000000000000000000, -0.000000000000000000, -0.000000000000000000 ) ) ;
#283 = VERTEX_POINT ( 'NONE', #322 ) ;
#284 = CARTESIAN_POINT ( 'NONE',  ( 27.00000000000000355, -5.000000000000000888, 6.999999999999999112 ) ) ;
#285 = DIRECTION ( 'NONE',  ( 1.000000000000000000, 0.000000000000000000, 0.000000000000000000 ) ) ;
#286 = EDGE_CURVE ( 'NONE', #1131, #1015, #516, .T. ) ;
#287 = ORIENTED_EDGE ( 'NONE', *, *, #372, .F. ) ;
#288 = EDGE_CURVE ( 'NONE', #573, #676, #750, .T. ) ;
#289 = CARTESIAN_POINT ( 'NONE',  ( -22.99999999999999645, 13.00000000000000533, 2.000000000000000000 ) ) ;
#290 = CARTESIAN_POINT ( 'NONE',  ( 10.00000000000000178, 3.999999999999999112, 7.000000000000001776 ) ) ;
#291 = VERTEX_POINT ( 'NONE', #1058 ) ;
#292 = CARTESIAN_POINT ( 'NONE',  ( -26.00000000000000000, -16.00000000000000000, 2.000000000000000000 ) ) ;
#293 =( GEOMETRIC_REPRESENTATION_CONTEXT ( 3 ) GLOBAL_UNCERTAINTY_ASSIGNED_CONTEXT ( ( #1082 ) ) GLOBAL_UNIT_ASSIGNED_CONTEXT ( ( #538, #1086, #915 ) ) REPRESENTATION_CONTEXT ( 'NONE', 'WORKASPACE' ) );
#294 = CARTESIAN_POINT ( 'NONE',  ( -27.00000000000000355, 17.00000000000000000, 19.00000000000000355 ) ) ;
#295 = CARTESIAN_POINT ( 'NONE',  ( 26.00000000000000000, -4.000000000000000000, 7.999999999999998224 ) ) ;
#296 = CARTESIAN_POINT ( 'NONE',  ( -23.99999999999999645, 13.00000000000000533, 0.000000000000000000 ) ) ;
#297 = VERTEX_POINT ( 'NONE', #878 ) ;
#298 = DIRECTION ( 'NONE',  ( 0.000000000000000000, 0.000000000000000000, -1.000000000000000000 ) ) ;
#299 = DIRECTION ( 'NONE',  ( 0.000000000000000000, 0.000000000000000000, -1.000000000000000000 ) ) ;
#300 = EDGE_CURVE ( 'NONE', #820, #683, #788, .T. ) ;
#301 = CARTESIAN_POINT ( 'NONE',  ( 25.99999999999999645, 16.00000000000000711, 3.000000000000006217 ) ) ;
#302 = ORIENTED_EDGE ( 'NONE', *, *, #258, .F. ) ;
#303 = DIRECTION ( 'NONE',  ( 1.000000000000000000, 0.000000000000000000, 0.000000000000000000 ) ) ;
#304 = CIRCLE ( 'NONE', #455, 1.000000000000000888 ) ;
#305 = ORIENTED_EDGE ( 'NONE', *, *, #300, .F. ) ;
#306 = FACE_OUTER_BOUND ( 'NONE', #348, .T. ) ;
#307 = CARTESIAN_POINT ( 'NONE',  ( 26.00000000000000355, 16.00000000000000000, 0.000000000000000000 ) ) ;
#308 = EDGE_CURVE ( 'NONE', #1001, #595, #847, .T. ) ;
#309 = DIRECTION ( 'NONE',  ( -1.000000000000000000, -0.000000000000000000, -0.000000000000000000 ) ) ;
#310 = ORIENTED_EDGE ( 'NONE', *, *, #341, .F. ) ;
#311 = CARTESIAN_POINT ( 'NONE',  ( 26.00000000000000000, -4.000000000000000888, 7.999999999999998224 ) ) ;
#312 = ORIENTED_EDGE ( 'NONE', *, *, #854, .T. ) ;
#313 = CARTESIAN_POINT ( 'NONE',  ( -25.00000000000000000, 16.00000000000000000, 2.000000000000000000 ) ) ;
#314 = FACE_OUTER_BOUND ( 'NONE', #486, .T. ) ;
#315 = AXIS2_PLACEMENT_3D ( 'NONE', #872, #1034, #652 ) ;
#316 = CARTESIAN_POINT ( 'NONE',  ( 24.99999999999998224, 16.00000000000000000, 19.00000000000000355 ) ) ;
#317 = ORIENTED_EDGE ( 'NONE', *, *, #430, .T. ) ;
#318 = CARTESIAN_POINT ( 'NONE',  ( 27.00000000000000355, 16.00000000000000000, 0.000000000000000000 ) ) ;
#319 = ORIENTED_EDGE ( 'NONE', *, *, #358, .F. ) ;
#320 = LINE ( 'NONE', #44, #589 ) ;
#321 = CIRCLE ( 'NONE', #1132, 1.000000000000000000 ) ;
#322 = CARTESIAN_POINT ( 'NONE',  ( -25.00000000000000000, 16.00000000000000000, 19.00000000000000355 ) ) ;
#323 = ORIENTED_EDGE ( 'NONE', *, *, #735, .T. ) ;
#324 = CARTESIAN_POINT ( 'NONE',  ( -27.00000000000000355, -17.00000000000000000, 19.00000000000000355 ) ) ;
#325 = EDGE_CURVE ( 'NONE', #291, #876, #794, .T. ) ;
#326 = ORIENTED_EDGE ( 'NONE', *, *, #87, .F. ) ;
#327 = CARTESIAN_POINT ( 'NONE',  ( -25.99999999999999289, -16.00000000000000000, 2.000000000000000000 ) ) ;
#328 =( LENGTH_UNIT ( ) NAMED_UNIT ( * ) SI_UNIT ( .MILLI., .METRE. ) );
#329 = EDGE_CURVE ( 'NONE', #342, #283, #590, .T. ) ;
#330 = VECTOR ( 'NONE', #687, 1000.000000000000000 ) ;
#331 = DIRECTION ( 'NONE',  ( 1.000000000000000000, 0.000000000000000000, 0.000000000000000000 ) ) ;
#332 = EDGE_LOOP ( 'NONE', ( #247, #565, #1155, #305 ) ) ;
#333 = ORIENTED_EDGE ( 'NONE', *, *, #370, .T. ) ;
#334 = DIRECTION ( 'NONE',  ( 0.000000000000000000, 0.000000000000000000, -1.000000000000000000 ) ) ;
#335 = VECTOR ( 'NONE', #336, 1000.000000000000000 ) ;
#336 = DIRECTION ( 'NONE',  ( 1.000000000000000000, 0.000000000000000000, 0.000000000000000000 ) ) ;
#337 = ORIENTED_EDGE ( 'NONE', *, *, #557, .T. ) ;
#338 = ORIENTED_EDGE ( 'NONE', *, *, #158, .F. ) ;
#339 = DIRECTION ( 'NONE',  ( 0.000000000000000000, -0.000000000000000000, -1.000000000000000000 ) ) ;
#340 = CARTESIAN_POINT ( 'NONE',  ( -23.99999999999999645, 14.00000000000000355, 0.000000000000000000 ) ) ;
#341 = EDGE_CURVE ( 'NONE', #573, #657, #976, .T. ) ;
#342 = VERTEX_POINT ( 'NONE', #316 ) ;
#343 = ORIENTED_EDGE ( 'NONE', *, *, #173, .T. ) ;
#344 = CARTESIAN_POINT ( 'NONE',  ( -23.99999999999999645, -13.00000000000000000, 2.000000000000000000 ) ) ;
#345 = EDGE_CURVE ( 'NONE', #1151, #433, #539, .T. ) ;
#346 = AXIS2_PLACEMENT_3D ( 'NONE', #289, #396, #945 ) ;
#347 = PLANE ( 'NONE',  #146 ) ;
#348 = EDGE_LOOP ( 'NONE', ( #700, #319, #231, #506 ) ) ;
#349 = VERTEX_POINT ( 'NONE', #689 ) ;
#350 = CARTESIAN_POINT ( 'NONE',  ( 27.00000000000000355, -16.00000000000000000, 2.000000000000000000 ) ) ;
#351 = CARTESIAN_POINT ( 'NONE',  ( -25.99999999999999645, 17.00000000000000000, 0.000000000000000000 ) ) ;
#352 = CIRCLE ( 'NONE', #978, 1.000000000000000888 ) ;
#353 = VECTOR ( 'NONE', #968, 1000.000000000000000 ) ;
#354 = DIRECTION ( 'NONE',  ( 0.000000000000000000, 0.000000000000000000, 1.000000000000000000 ) ) ;
#355 = DIRECTION ( 'NONE',  ( 0.000000000000000000, 0.000000000000000000, 1.000000000000000000 ) ) ;
#356 = VERTEX_POINT ( 'NONE', #54 ) ;
#357 = DIRECTION ( 'NONE',  ( -0.000000000000000000, 0.000000000000000000, 1.000000000000000000 ) ) ;
#358 = EDGE_CURVE ( 'NONE', #879, #641, #1052, .T. ) ;
#359 = VECTOR ( 'NONE', #282, 1000.000000000000000 ) ;
#360 = PLANE ( 'NONE',  #956 ) ;
#361 = VERTEX_POINT ( 'NONE', #412 ) ;
#362 = DIRECTION ( 'NONE',  ( -0.000000000000000000, -0.000000000000000000, 1.000000000000000000 ) ) ;
#363 = LINE ( 'NONE', #724, #806 ) ;
#364 = CARTESIAN_POINT ( 'NONE',  ( 27.00000000000000355, 3.999999999999999112, 4.000000000000001776 ) ) ;
#365 = ORIENTED_EDGE ( 'NONE', *, *, #186, .F. ) ;
#366 = FACE_BOUND ( 'NONE', #165, .T. ) ;
#367 = ORIENTED_EDGE ( 'NONE', *, *, #762, .F. ) ;
#368 = CARTESIAN_POINT ( 'NONE',  ( 27.00000000000000355, 3.999999999999999112, 8.000000000000001776 ) ) ;
#369 = DIRECTION ( 'NONE',  ( 1.000000000000000000, 2.168404344971008868E-16, -0.000000000000000000 ) ) ;
#370 = EDGE_CURVE ( 'NONE', #426, #820, #776, .T. ) ;
#371 = PLANE ( 'NONE',  #716 ) ;
#372 = EDGE_CURVE ( 'NONE', #144, #758, #719, .T. ) ;
#373 = ORIENTED_EDGE ( 'NONE', *, *, #390, .F. ) ;
#374 = PRESENTATION_STYLE_ASSIGNMENT (( #630 ) ) ;
#375 = VECTOR ( 'NONE', #1062, 1000.000000000000000 ) ;
#376 = DIRECTION ( 'NONE',  ( 1.000000000000000000, 0.000000000000000000, 0.000000000000000000 ) ) ;
#377 = PLANE ( 'NONE',  #726 ) ;
#378 = AXIS2_PLACEMENT_3D ( 'NONE', #1071, #263, #781 ) ;
#379 = ORIENTED_EDGE ( 'NONE', *, *, #557, .F. ) ;
#380 = CARTESIAN_POINT ( 'NONE',  ( -26.99999999999999645, 17.00000000000000000, 2.000000000000000000 ) ) ;
#381 = EDGE_LOOP ( 'NONE', ( #333, #21, #1133, #213 ) ) ;
#382 = LINE ( 'NONE', #452, #1096 ) ;
#383 = CARTESIAN_POINT ( 'NONE',  ( -22.99999999999999645, -13.99999999999999645, 2.000000000000000000 ) ) ;
#384 = VECTOR ( 'NONE', #675, 1000.000000000000000 ) ;
#385 = ORIENTED_EDGE ( 'NONE', *, *, #1044, .F. ) ;
#386 = PLANE ( 'NONE',  #463 ) ;
#387 = VECTOR ( 'NONE', #155, 1000.000000000000000 ) ;
#388 = EDGE_LOOP ( 'NONE', ( #784, #1149, #337, #953 ) ) ;
#389 = DIRECTION ( 'NONE',  ( 1.000000000000000000, 0.000000000000000000, 0.000000000000000000 ) ) ;
#390 = EDGE_CURVE ( 'NONE', #432, #1112, #598, .T. ) ;
#391 = UNCERTAINTY_MEASURE_WITH_UNIT (LENGTH_MEASURE( 1.000000000000000082E-05 ), #328, 'distance_accuracy_value', 'NONE');
#392 = DIRECTION ( 'NONE',  ( 1.000000000000000000, 2.168404344971008868E-16, -0.000000000000000000 ) ) ;
#393 = ORIENTED_EDGE ( 'NONE', *, *, #648, .T. ) ;
#394 = DIRECTION ( 'NONE',  ( -1.000000000000000000, 0.000000000000000000, 0.000000000000000000 ) ) ;
#395 = CARTESIAN_POINT ( 'NONE',  ( 27.00000000000000355, -4.000000000000001776, 3.999999999999998224 ) ) ;
#396 = DIRECTION ( 'NONE',  ( 0.000000000000000000, 0.000000000000000000, 1.000000000000000000 ) ) ;
#397 = ADVANCED_FACE ( 'NONE', ( #631 ), #360, .T. ) ;
#398 = CYLINDRICAL_SURFACE ( 'NONE', #975, 1.000000000000000888 ) ;
#399 = ORIENTED_EDGE ( 'NONE', *, *, #97, .F. ) ;
#400 = FACE_OUTER_BOUND ( 'NONE', #252, .T. ) ;
#401 = AXIS2_PLACEMENT_3D ( 'NONE', #1031, #1101, #1008 ) ;
#402 = AXIS2_PLACEMENT_3D ( 'NONE', #327, #768, #1049 ) ;
#403 = VERTEX_POINT ( 'NONE', #183 ) ;
#404 = DIRECTION ( 'NONE',  ( -0.000000000000000000, 0.000000000000000000, 1.000000000000000000 ) ) ;
#405 = VECTOR ( 'NONE', #1079, 1000.000000000000000 ) ;
#406 = LINE ( 'NONE', #340, #184 ) ;
#407 = ORIENTED_EDGE ( 'NONE', *, *, #473, .T. ) ;
#408 = DIRECTION ( 'NONE',  ( 0.000000000000000000, 0.000000000000000000, -1.000000000000000000 ) ) ;
#409 = ORIENTED_EDGE ( 'NONE', *, *, #272, .F. ) ;
#410 = LINE ( 'NONE', #166, #987 ) ;
#411 = AXIS2_PLACEMENT_3D ( 'NONE', #1016, #1023, #50 ) ;
#412 = CARTESIAN_POINT ( 'NONE',  ( -26.00000000000000355, 15.00000000000000000, 2.000000000000000000 ) ) ;
#413 = EDGE_CURVE ( 'NONE', #164, #12, #999, .T. ) ;
#414 = VERTEX_POINT ( 'NONE', #1018 ) ;
#415 = ADVANCED_FACE ( 'NONE', ( #435 ), #446, .F. ) ;
#416 = LINE ( 'NONE', #133, #1124 ) ;
#417 = VERTEX_POINT ( 'NONE', #100 ) ;
#418 = CARTESIAN_POINT ( 'NONE',  ( -23.99999999999999645, -13.99999999999999645, 0.000000000000000000 ) ) ;
#419 = AXIS2_PLACEMENT_3D ( 'NONE', #898, #804, #533 ) ;
#420 = DIRECTION ( 'NONE',  ( 0.000000000000000000, 0.000000000000000000, -1.000000000000000000 ) ) ;
#421 = ORIENTED_EDGE ( 'NONE', *, *, #688, .T. ) ;
#422 = DIRECTION ( 'NONE',  ( 0.000000000000000000, -0.000000000000000000, -1.000000000000000000 ) ) ;
#423 = VERTEX_POINT ( 'NONE', #545 ) ;
#424 = CARTESIAN_POINT ( 'NONE',  ( -26.99999999999999645, 16.00000000000000000, 0.000000000000000000 ) ) ;
#425 = CARTESIAN_POINT ( 'NONE',  ( 26.00000000000000000, -4.000000000000003553, 2.999999999999999112 ) ) ;
#426 = VERTEX_POINT ( 'NONE', #114 ) ;
#427 = CIRCLE ( 'NONE', #824, 1.000000000000000888 ) ;
#428 = ORIENTED_EDGE ( 'NONE', *, *, #910, .F. ) ;
#429 = CARTESIAN_POINT ( 'NONE',  ( 24.99999999999999645, -15.00000000000000000, 2.000000000000001776 ) ) ;
#430 = EDGE_CURVE ( 'NONE', #134, #657, #553, .T. ) ;
#431 = CARTESIAN_POINT ( 'NONE',  ( 25.99999999999999645, 15.00000000000000000, 2.000000000000001776 ) ) ;
#432 = VERTEX_POINT ( 'NONE', #812 ) ;
#433 = VERTEX_POINT ( 'NONE', #81 ) ;
#434 = LINE ( 'NONE', #797, #33 ) ;
#435 = FACE_OUTER_BOUND ( 'NONE', #918, .T. ) ;
#436 = ORIENTED_EDGE ( 'NONE', *, *, #834, .F. ) ;
#437 = FACE_OUTER_BOUND ( 'NONE', #905, .T. ) ;
#438 = ORIENTED_EDGE ( 'NONE', *, *, #554, .F. ) ;
#439 = FACE_OUTER_BOUND ( 'NONE', #1139, .T. ) ;
#440 = AXIS2_PLACEMENT_3D ( 'NONE', #239, #880, #896 ) ;
#441 = FACE_OUTER_BOUND ( 'NONE', #951, .T. ) ;
#442 = CARTESIAN_POINT ( 'NONE',  ( -27.00000000000000355, 16.00000000000000000, 19.00000000000000355 ) ) ;
#443 = AXIS2_PLACEMENT_3D ( 'NONE', #569, #912, #190 ) ;
#444 = VERTEX_POINT ( 'NONE', #273 ) ;
#445 = DIRECTION ( 'NONE',  ( 1.000000000000000000, 0.000000000000000000, 0.000000000000000000 ) ) ;
#446 = CYLINDRICAL_SURFACE ( 'NONE', #708, 1.000000000000000000 ) ;
#447 = AXIS2_PLACEMENT_3D ( 'NONE', #624, #728, #194 ) ;
#448 = DIRECTION ( 'NONE',  ( -0.000000000000000000, 0.000000000000000000, 1.000000000000000000 ) ) ;
#449 = EDGE_LOOP ( 'NONE', ( #67, #521, #973, #1085 ) ) ;
#450 = CLOSED_SHELL ( 'NONE', ( #47, #763, #34, #823, #151, #610, #778, #55, #863, #482, #22, #935, #72, #397, #625, #228, #257, #511, #731, #1127, #549, #1141, #908, #832, #1003, #903, #1026, #972, #204, #110, #1041, #415, #1064, #1020, #1069 ) ) ;
#451 = EDGE_CURVE ( 'NONE', #225, #611, #535, .T. ) ;
#452 = CARTESIAN_POINT ( 'NONE',  ( 4.000000000000000000, 13.00000000000000533, 0.000000000000000000 ) ) ;
#453 = FACE_OUTER_BOUND ( 'NONE', #739, .T. ) ;
#454 = ORIENTED_EDGE ( 'NONE', *, *, #220, .F. ) ;
#455 = AXIS2_PLACEMENT_3D ( 'NONE', #674, #597, #1157 ) ;
#456 = DIRECTION ( 'NONE',  ( 0.000000000000000000, -0.000000000000000000, -1.000000000000000000 ) ) ;
#457 = EDGE_LOOP ( 'NONE', ( #1118, #1144, #612, #998, #701, #560, #801, #464 ) ) ;
#458 = DIRECTION ( 'NONE',  ( 1.000000000000000000, 0.000000000000000000, -0.000000000000000000 ) ) ;
#459 = EDGE_CURVE ( 'NONE', #414, #616, #382, .T. ) ;
#460 = VECTOR ( 'NONE', #848, 1000.000000000000000 ) ;
#461 = EDGE_CURVE ( 'NONE', #164, #73, #1161, .T. ) ;
#462 = PLANE ( 'NONE',  #756 ) ;
#463 = AXIS2_PLACEMENT_3D ( 'NONE', #664, #1106, #298 ) ;
#464 = ORIENTED_EDGE ( 'NONE', *, *, #345, .T. ) ;
#465 = DIRECTION ( 'NONE',  ( -1.020425574104004122E-16, 1.000000000000000000, 0.000000000000000000 ) ) ;
#466 = EDGE_CURVE ( 'NONE', #616, #669, #1010, .T. ) ;
#467 = ORIENTED_EDGE ( 'NONE', *, *, #958, .T. ) ;
#468 = VECTOR ( 'NONE', #963, 1000.000000000000000 ) ;
#469 = CARTESIAN_POINT ( 'NONE',  ( -25.99999999999999289, -17.00000000000000000, 2.000000000000000000 ) ) ;
#470 = DIRECTION ( 'NONE',  ( 1.000000000000000000, 0.000000000000000000, 0.000000000000000000 ) ) ;
#471 = LINE ( 'NONE', #656, #519 ) ;
#472 = ORIENTED_EDGE ( 'NONE', *, *, #1006, .F. ) ;
#473 = EDGE_CURVE ( 'NONE', #758, #676, #1153, .T. ) ;
#474 = FACE_OUTER_BOUND ( 'NONE', #101, .T. ) ;
#475 = VERTEX_POINT ( 'NONE', #351 ) ;
#476 = CARTESIAN_POINT ( 'NONE',  ( -25.99999999999999289, -17.00000000000000000, 0.000000000000000000 ) ) ;
#477 = DIRECTION ( 'NONE',  ( 0.000000000000000000, -0.000000000000000000, -1.000000000000000000 ) ) ;
#478 = DIRECTION ( 'NONE',  ( 0.000000000000000000, -0.000000000000000000, -1.000000000000000000 ) ) ;
#479 = VECTOR ( 'NONE', #237, 1000.000000000000000 ) ;
#480 = ORIENTED_EDGE ( 'NONE', *, *, #236, .T. ) ;
#481 = CARTESIAN_POINT ( 'NONE',  ( 25.99999999999999645, 16.00000000000000000, 19.00000000000000355 ) ) ;
#482 = ADVANCED_FACE ( 'NONE', ( #88 ), #347, .T. ) ;
#483 = CARTESIAN_POINT ( 'NONE',  ( -27.00000000000000355, -16.00000000000000000, 19.00000000000000355 ) ) ;
#484 = LINE ( 'NONE', #749, #684 ) ;
#485 = CYLINDRICAL_SURFACE ( 'NONE', #243, 1.000000000000000888 ) ;
#486 = EDGE_LOOP ( 'NONE', ( #1093, #365, #1053, #241 ) ) ;
#487 = CYLINDRICAL_SURFACE ( 'NONE', #169, 1.000000000000000000 ) ;
#488 = ORIENTED_EDGE ( 'NONE', *, *, #46, .T. ) ;
#489 = CARTESIAN_POINT ( 'NONE',  ( -22.99999999999999645, 14.00000000000000355, 2.000000000000000000 ) ) ;
#490 = APPLICATION_PROTOCOL_DEFINITION ( 'draft international standard', 'automotive_design', 1998, #793 ) ;
#491 = CARTESIAN_POINT ( 'NONE',  ( -26.00000000000000355, 16.00000000000000000, 19.00000000000000355 ) ) ;
#492 = ORIENTED_EDGE ( 'NONE', *, *, #988, .T. ) ;
#493 = DIRECTION ( 'NONE',  ( 0.000000000000000000, 0.000000000000000000, -1.000000000000000000 ) ) ;
#494 = VECTOR ( 'NONE', #1138, 1000.000000000000000 ) ;
#495 = LINE ( 'NONE', #227, #835 ) ;
#496 = EDGE_CURVE ( 'NONE', #444, #291, #907, .T. ) ;
#497 = AXIS2_PLACEMENT_3D ( 'NONE', #707, #799, #209 ) ;
#498 = DIRECTION ( 'NONE',  ( -0.000000000000000000, 0.000000000000000000, 1.000000000000000000 ) ) ;
#499 = EDGE_LOOP ( 'NONE', ( #960, #154, #607, #568 ) ) ;
#500 = DIRECTION ( 'NONE',  ( 1.000000000000000000, 0.000000000000000000, 0.000000000000000000 ) ) ;
#501 = CARTESIAN_POINT ( 'NONE',  ( -26.99999999999999289, -17.00000000000000000, 2.000000000000000000 ) ) ;
#502 = VECTOR ( 'NONE', #936, 1000.000000000000000 ) ;
#503 = STYLED_ITEM ( 'NONE', ( #374 ), #818 ) ;
#504 = DIRECTION ( 'NONE',  ( 1.000000000000000000, 0.000000000000000000, 0.000000000000000000 ) ) ;
#505 = VECTOR ( 'NONE', #309, 1000.000000000000000 ) ;
#506 = ORIENTED_EDGE ( 'NONE', *, *, #451, .F. ) ;
#507 = ORIENTED_EDGE ( 'NONE', *, *, #329, .T. ) ;
#508 = DIRECTION ( 'NONE',  ( -0.000000000000000000, -0.000000000000000000, 1.000000000000000000 ) ) ;
#509 = LINE ( 'NONE', #703, #729 ) ;
#510 = ORIENTED_EDGE ( 'NONE', *, *, #735, .F. ) ;
#511 = ADVANCED_FACE ( 'NONE', ( #441 ), #817, .F. ) ;
#512 = PRODUCT_DEFINITION_SHAPE ( 'NONE', 'NONE',  #861 ) ;
#513 = ORIENTED_EDGE ( 'NONE', *, *, #173, .F. ) ;
#514 = DIRECTION ( 'NONE',  ( 1.239088197126291063E-16, -1.000000000000000000, 0.000000000000000000 ) ) ;
#515 = AXIS2_PLACEMENT_3D ( 'NONE', #1116, #369, #736 ) ;
#516 = LINE ( 'NONE', #431, #127 ) ;
#517 = EDGE_LOOP ( 'NONE', ( #1089, #312, #753, #923 ) ) ;
#518 = PLANE ( 'NONE',  #90 ) ;
#519 = VECTOR ( 'NONE', #741, 1000.000000000000000 ) ;
#520 = EDGE_CURVE ( 'NONE', #611, #595, #989, .T. ) ;
#521 = ORIENTED_EDGE ( 'NONE', *, *, #688, .F. ) ;
#522 = LINE ( 'NONE', #1145, #116 ) ;
#523 = AXIS2_PLACEMENT_3D ( 'NONE', #826, #13, #734 ) ;
#524 = CARTESIAN_POINT ( 'NONE',  ( -23.99999999999999645, -13.99999999999999645, 2.000000000000000000 ) ) ;
#525 = ORIENTED_EDGE ( 'NONE', *, *, #192, .T. ) ;
#526 = ORIENTED_EDGE ( 'NONE', *, *, #473, .F. ) ;
#527 = CARTESIAN_POINT ( 'NONE',  ( 3.000000000000002665, -13.99999999999999645, 0.000000000000000000 ) ) ;
#528 = DIRECTION ( 'NONE',  ( 0.000000000000000000, 0.000000000000000000, 1.000000000000000000 ) ) ;
#529 = VECTOR ( 'NONE', #581, 1000.000000000000000 ) ;
#530 = DIRECTION ( 'NONE',  ( 1.000000000000000000, 0.000000000000000000, 0.000000000000000000 ) ) ;
#531 = CYLINDRICAL_SURFACE ( 'NONE', #440, 1.000000000000000000 ) ;
#532 = ORIENTED_EDGE ( 'NONE', *, *, #1147, .T. ) ;
#533 = DIRECTION ( 'NONE',  ( 1.000000000000000000, 0.000000000000000000, 0.000000000000000000 ) ) ;
#534 = EDGE_CURVE ( 'NONE', #669, #417, #363, .T. ) ;
#535 = LINE ( 'NONE', #469, #868 ) ;
#536 = DIRECTION ( 'NONE',  ( 0.000000000000000000, -0.000000000000000000, -1.000000000000000000 ) ) ;
#537 = ORIENTED_EDGE ( 'NONE', *, *, #286, .F. ) ;
#538 =( LENGTH_UNIT ( ) NAMED_UNIT ( * ) SI_UNIT ( .MILLI., .METRE. ) );
#539 = CIRCLE ( 'NONE', #28, 1.000000000000000888 ) ;
#540 = CARTESIAN_POINT ( 'NONE',  ( -23.99999999999999645, -13.99999999999999645, 2.000000000000000000 ) ) ;
#541 = AXIS2_PLACEMENT_3D ( 'NONE', #1159, #891, #974 ) ;
#542 = PLANE ( 'NONE',  #814 ) ;
#543 = VERTEX_POINT ( 'NONE', #60 ) ;
#544 = CARTESIAN_POINT ( 'NONE',  ( -22.99999999999999645, 14.00000000000000355, 0.000000000000000000 ) ) ;
#545 = CARTESIAN_POINT ( 'NONE',  ( 27.00000000000000355, 3.999999999999999112, 8.000000000000001776 ) ) ;
#546 = DIRECTION ( 'NONE',  ( 1.000000000000000000, 0.000000000000000000, 0.000000000000000000 ) ) ;
#547 = VERTEX_POINT ( 'NONE', #1115 ) ;
#548 = FACE_OUTER_BOUND ( 'NONE', #733, .T. ) ;
#549 = ADVANCED_FACE ( 'NONE', ( #306 ), #852, .T. ) ;
#550 = DIRECTION ( 'NONE',  ( -1.000000000000000000, -0.000000000000000000, -0.000000000000000000 ) ) ;
#551 = EDGE_LOOP ( 'NONE', ( #428, #492, #786, #1137 ) ) ;
#552 = DIRECTION ( 'NONE',  ( 1.000000000000000000, 0.000000000000000000, 0.000000000000000000 ) ) ;
#553 = CIRCLE ( 'NONE', #443, 1.000000000000000000 ) ;
#554 = EDGE_CURVE ( 'NONE', #433, #547, #932, .T. ) ;
#555 = DIRECTION ( 'NONE',  ( -2.168404344971008868E-16, 1.000000000000000000, -0.000000000000000000 ) ) ;
#556 = EDGE_CURVE ( 'NONE', #876, #297, #1109, .T. ) ;
#557 = EDGE_CURVE ( 'NONE', #432, #1131, #1030, .T. ) ;
#558 = DIRECTION ( 'NONE',  ( 0.000000000000000000, -1.000000000000000000, 0.000000000000000000 ) ) ;
#559 = CIRCLE ( 'NONE', #109, 1.000000000000000888 ) ;
#560 = ORIENTED_EDGE ( 'NONE', *, *, #981, .T. ) ;
#561 = FACE_OUTER_BOUND ( 'NONE', #678, .T. ) ;
#562 = FACE_OUTER_BOUND ( 'NONE', #6, .T. ) ;
#563 = EDGE_CURVE ( 'NONE', #417, #601, #142, .T. ) ;
#564 = LINE ( 'NONE', #1021, #666 ) ;
#565 = ORIENTED_EDGE ( 'NONE', *, *, #66, .F. ) ;
#566 = DIRECTION ( 'NONE',  ( -0.000000000000000000, 0.000000000000000000, 1.000000000000000000 ) ) ;
#567 = CIRCLE ( 'NONE', #85, 1.000000000000000888 ) ;
#568 = ORIENTED_EDGE ( 'NONE', *, *, #926, .F. ) ;
#569 = CARTESIAN_POINT ( 'NONE',  ( 3.000000000000002665, -12.99999999999999822, 2.000000000000000000 ) ) ;
#570 = FACE_OUTER_BOUND ( 'NONE', #84, .T. ) ;
#571 = EDGE_LOOP ( 'NONE', ( #890, #436, #18, #825 ) ) ;
#572 = CARTESIAN_POINT ( 'NONE',  ( 26.00000000000000355, 16.00000000000000000, 2.000000000000000000 ) ) ;
#573 = VERTEX_POINT ( 'NONE', #780 ) ;
#574 = PLANE ( 'NONE',  #782 ) ;
#575 = CIRCLE ( 'NONE', #1120, 1.000000000000000000 ) ;
#576 = LINE ( 'NONE', #940, #10 ) ;
#577 = VECTOR ( 'NONE', #888, 1000.000000000000000 ) ;
#578 = ORIENTED_EDGE ( 'NONE', *, *, #588, .T. ) ;
#579 = LINE ( 'NONE', #311, #620 ) ;
#580 = ORIENTED_EDGE ( 'NONE', *, *, #604, .F. ) ;
#581 = DIRECTION ( 'NONE',  ( -2.168404344971008868E-16, 1.000000000000000000, 3.469446951953614189E-16 ) ) ;
#582 = DIRECTION ( 'NONE',  ( -0.000000000000000000, -0.000000000000000000, 1.000000000000000000 ) ) ;
#583 = ORIENTED_EDGE ( 'NONE', *, *, #1051, .T. ) ;
#584 = DIRECTION ( 'NONE',  ( 1.000000000000000000, 0.000000000000000000, 0.000000000000000000 ) ) ;
#585 = EDGE_CURVE ( 'NONE', #659, #164, #567, .T. ) ;
#586 = VERTEX_POINT ( 'NONE', #313 ) ;
#587 = DIRECTION ( 'NONE',  ( -2.168404344971008868E-16, 1.000000000000000000, -0.000000000000000000 ) ) ;
#588 = EDGE_CURVE ( 'NONE', #586, #361, #738, .T. ) ;
#589 = VECTOR ( 'NONE', #1036, 1000.000000000000000 ) ;
#590 = LINE ( 'NONE', #1037, #997 ) ;
#591 = ORIENTED_EDGE ( 'NONE', *, *, #430, .F. ) ;
#592 = DIRECTION ( 'NONE',  ( 1.000000000000000000, 2.168404344971008868E-16, -0.000000000000000000 ) ) ;
#593 = VECTOR ( 'NONE', #2, 1000.000000000000000 ) ;
#594 = VECTOR ( 'NONE', #299, 1000.000000000000000 ) ;
#595 = VERTEX_POINT ( 'NONE', #31 ) ;
#596 = CARTESIAN_POINT ( 'NONE',  ( 27.00000000000000355, -5.000000000000000888, 7.999999999999998224 ) ) ;
#597 = DIRECTION ( 'NONE',  ( 0.000000000000000000, -0.000000000000000000, -1.000000000000000000 ) ) ;
#598 = CIRCLE ( 'NONE', #240, 1.000000000000000888 ) ;
#599 = DIRECTION ( 'NONE',  ( 0.000000000000000000, -0.000000000000000000, 1.000000000000000000 ) ) ;
#600 = VERTEX_POINT ( 'NONE', #665 ) ;
#601 = VERTEX_POINT ( 'NONE', #489 ) ;
#602 = DIRECTION ( 'NONE',  ( 1.000000000000000000, 0.000000000000000000, 0.000000000000000000 ) ) ;
#603 = DIRECTION ( 'NONE',  ( 0.000000000000000000, -0.000000000000000000, 1.000000000000000000 ) ) ;
#604 = EDGE_CURVE ( 'NONE', #1121, #403, #686, .T. ) ;
#605 = CIRCLE ( 'NONE', #61, 1.000000000000000000 ) ;
#606 = EDGE_LOOP ( 'NONE', ( #302, #885, #9, #638 ) ) ;
#607 = ORIENTED_EDGE ( 'NONE', *, *, #626, .F. ) ;
#608 = LINE ( 'NONE', #887, #353 ) ;
#609 = LINE ( 'NONE', #150, #479 ) ;
#610 = ADVANCED_FACE ( 'NONE', ( #679 ), #755, .F. ) ;
#611 = VERTEX_POINT ( 'NONE', #476 ) ;
#612 = ORIENTED_EDGE ( 'NONE', *, *, #258, .T. ) ;
#613 = CARTESIAN_POINT ( 'NONE',  ( 0.000000000000000000, 0.000000000000000000, 0.000000000000000000 ) ) ;
#614 =( GEOMETRIC_REPRESENTATION_CONTEXT ( 3 ) GLOBAL_UNCERTAINTY_ASSIGNED_CONTEXT ( ( #391 ) ) GLOBAL_UNIT_ASSIGNED_CONTEXT ( ( #328, #897, #69 ) ) REPRESENTATION_CONTEXT ( 'NONE', 'WORKASPACE' ) );
#615 = CARTESIAN_POINT ( 'NONE',  ( -25.00000000000000000, 16.00000000000000000, 2.000000000000001776 ) ) ;
#616 = VERTEX_POINT ( 'NONE', #845 ) ;
#617 = DIRECTION ( 'NONE',  ( 0.000000000000000000, -0.000000000000000000, 1.000000000000000000 ) ) ;
#618 = ORIENTED_EDGE ( 'NONE', *, *, #670, .F. ) ;
#619 = DIRECTION ( 'NONE',  ( -1.000000000000000000, 0.000000000000000000, 0.000000000000000000 ) ) ;
#620 = VECTOR ( 'NONE', #857, 1000.000000000000000 ) ;
#621 = CARTESIAN_POINT ( 'NONE',  ( 26.00000000000000000, -5.000000000000000888, 19.00000000000000355 ) ) ;
#622 = LINE ( 'NONE', #769, #330 ) ;
#623 = ORIENTED_EDGE ( 'NONE', *, *, #771, .F. ) ;
#624 = CARTESIAN_POINT ( 'NONE',  ( 26.00000000000000000, 3.999999999999999112, 4.000000000000001776 ) ) ;
#625 = ADVANCED_FACE ( 'NONE', ( #234 ), #574, .T. ) ;
#626 = EDGE_CURVE ( 'NONE', #809, #356, #229, .T. ) ;
#627 = DIRECTION ( 'NONE',  ( 1.000000000000000000, 0.000000000000000000, 0.000000000000000000 ) ) ;
#628 = DIRECTION ( 'NONE',  ( 1.000000000000000000, 0.000000000000000000, 0.000000000000000000 ) ) ;
#629 = VERTEX_POINT ( 'NONE', #944 ) ;
#630 = SURFACE_STYLE_USAGE ( .BOTH. , #188 ) ;
#631 = FACE_OUTER_BOUND ( 'NONE', #1038, .T. ) ;
#632 = DIRECTION ( 'NONE',  ( -1.000000000000000000, 0.000000000000000000, 0.000000000000000000 ) ) ;
#633 = ORIENTED_EDGE ( 'NONE', *, *, #203, .T. ) ;
#634 = CARTESIAN_POINT ( 'NONE',  ( 27.00000000000000355, 17.00000000000000000, 0.000000000000000000 ) ) ;
#635 = DIRECTION ( 'NONE',  ( 1.000000000000000000, 0.000000000000000000, 0.000000000000000000 ) ) ;
#636 = PLANE ( 'NONE',  #655 ) ;
#637 = EDGE_CURVE ( 'NONE', #1011, #297, #321, .T. ) ;
#638 = ORIENTED_EDGE ( 'NONE', *, *, #459, .T. ) ;
#639 = DIRECTION ( 'NONE',  ( -0.000000000000000000, 1.000000000000000000, -0.000000000000000000 ) ) ;
#640 = FACE_BOUND ( 'NONE', #948, .T. ) ;
#641 = VERTEX_POINT ( 'NONE', #483 ) ;
#642 = CARTESIAN_POINT ( 'NONE',  ( -26.99999999999999289, -16.00000000000000000, 0.000000000000000000 ) ) ;
#643 = DIRECTION ( 'NONE',  ( 0.000000000000000000, -0.000000000000000000, -1.000000000000000000 ) ) ;
#644 = DIRECTION ( 'NONE',  ( 2.168404344971008868E-16, -1.000000000000000000, -3.469446951953614189E-16 ) ) ;
#645 = ORIENTED_EDGE ( 'NONE', *, *, #29, .T. ) ;
#646 = VECTOR ( 'NONE', #839, 1000.000000000000000 ) ;
#647 = VECTOR ( 'NONE', #174, 1000.000000000000000 ) ;
#648 = EDGE_CURVE ( 'NONE', #51, #704, #320, .T. ) ;
#649 = DIRECTION ( 'NONE',  ( 1.000000000000000000, 0.000000000000000000, 0.000000000000000000 ) ) ;
#650 = PRESENTATION_LAYER_ASSIGNMENT (  '', '', ( #503 ) ) ;
#651 = EDGE_LOOP ( 'NONE', ( #121, #259, #693, #112, #743, #971, #583, #578 ) ) ;
#652 = DIRECTION ( 'NONE',  ( 1.000000000000000000, 0.000000000000000000, 0.000000000000000000 ) ) ;
#653 = CARTESIAN_POINT ( 'NONE',  ( -26.00000000000000355, 16.00000000000000000, 19.00000000000000355 ) ) ;
#654 = EDGE_CURVE ( 'NONE', #1011, #128, #495, .T. ) ;
#655 = AXIS2_PLACEMENT_3D ( 'NONE', #732, #91, #546 ) ;
#656 = CARTESIAN_POINT ( 'NONE',  ( 24.99999999999999645, -16.00000000000000000, 2.000000000000001776 ) ) ;
#657 = VERTEX_POINT ( 'NONE', #867 ) ;
#658 = CARTESIAN_POINT ( 'NONE',  ( 27.00000000000000355, -4.000000000000001776, 2.999999999999998668 ) ) ;
#659 = VERTEX_POINT ( 'NONE', #873 ) ;
#660 = CARTESIAN_POINT ( 'NONE',  ( 25.99999999999999645, 16.00000000000000000, 19.00000000000000355 ) ) ;
#661 = DIRECTION ( 'NONE',  ( -1.000000000000000000, 0.000000000000000000, 0.000000000000000000 ) ) ;
#662 = AXIS2_PLACEMENT_3D ( 'NONE', #64, #422, #785 ) ;
#663 = ORIENTED_EDGE ( 'NONE', *, *, #325, .T. ) ;
#664 = CARTESIAN_POINT ( 'NONE',  ( 10.00000000000000178, -5.000000000000000888, 7.999999999999998224 ) ) ;
#665 = CARTESIAN_POINT ( 'NONE',  ( 4.000000000000003553, -13.00000000000000000, 0.000000000000000000 ) ) ;
#666 = VECTOR ( 'NONE', #25, 1000.000000000000000 ) ;
#667 = CARTESIAN_POINT ( 'NONE',  ( -25.99999999999999645, 17.00000000000000000, 19.00000000000000355 ) ) ;
#668 = AXIS2_PLACEMENT_3D ( 'NONE', #481, #232, #773 ) ;
#669 = VERTEX_POINT ( 'NONE', #52 ) ;
#670 = EDGE_CURVE ( 'NONE', #601, #836, #410, .T. ) ;
#671 = CARTESIAN_POINT ( 'NONE',  ( -22.99999999999999645, -13.00000000000000000, 2.000000000000000000 ) ) ;
#672 = ORIENTED_EDGE ( 'NONE', *, *, #370, .F. ) ;
#673 = CARTESIAN_POINT ( 'NONE',  ( -25.00000000000000000, 15.00000000000000000, 2.000000000000001776 ) ) ;
#674 = CARTESIAN_POINT ( 'NONE',  ( -24.99999999999999645, -15.00000000000000000, 19.00000000000000355 ) ) ;
#675 = DIRECTION ( 'NONE',  ( 0.000000000000000000, 0.000000000000000000, -1.000000000000000000 ) ) ;
#676 = VERTEX_POINT ( 'NONE', #344 ) ;
#677 = CARTESIAN_POINT ( 'NONE',  ( -22.99999999999999645, 13.00000000000000533, 0.000000000000000000 ) ) ;
#678 = EDGE_LOOP ( 'NONE', ( #858, #705, #914, #77 ) ) ;
#679 = FACE_OUTER_BOUND ( 'NONE', #30, .T. ) ;
#680 = DIRECTION ( 'NONE',  ( 0.000000000000000000, 0.000000000000000000, -1.000000000000000000 ) ) ;
#681 = AXIS2_PLACEMENT_3D ( 'NONE', #129, #148, #1129 ) ;
#682 = DIRECTION ( 'NONE',  ( 0.000000000000000000, 0.000000000000000000, -1.000000000000000000 ) ) ;
#683 = VERTEX_POINT ( 'NONE', #882 ) ;
#684 = VECTOR ( 'NONE', #555, 1000.000000000000000 ) ;
#685 = ORIENTED_EDGE ( 'NONE', *, *, #1065, .F. ) ;
#686 = LINE ( 'NONE', #222, #529 ) ;
#687 = DIRECTION ( 'NONE',  ( -0.000000000000000000, -0.000000000000000000, 1.000000000000000000 ) ) ;
#688 = EDGE_CURVE ( 'NONE', #967, #659, #522, .T. ) ;
#689 = CARTESIAN_POINT ( 'NONE',  ( 26.00000000000000000, 4.000000000000000000, 3.000000000000001776 ) ) ;
#690 = AXIS2_PLACEMENT_3D ( 'NONE', #884, #1063, #168 ) ;
#691 = ORIENTED_EDGE ( 'NONE', *, *, #137, .F. ) ;
#692 = FACE_OUTER_BOUND ( 'NONE', #381, .T. ) ;
#693 = ORIENTED_EDGE ( 'NONE', *, *, #910, .T. ) ;
#694 = LINE ( 'NONE', #787, #375 ) ;
#695 = AXIS2_PLACEMENT_3D ( 'NONE', #80, #161, #514 ) ;
#696 = PRODUCT_DEFINITION_CONTEXT ( 'detailed design', #793, 'design' ) ;
#697 = EDGE_CURVE ( 'NONE', #1060, #432, #810, .T. ) ;
#698 = CARTESIAN_POINT ( 'NONE',  ( -26.99999999999999289, -16.00000000000000000, 2.000000000000000000 ) ) ;
#699 = CIRCLE ( 'NONE', #38, 1.000000000000000000 ) ;
#700 = ORIENTED_EDGE ( 'NONE', *, *, #994, .F. ) ;
#701 = ORIENTED_EDGE ( 'NONE', *, *, #267, .T. ) ;
#702 = DIRECTION ( 'NONE',  ( 1.000000000000000000, -1.734723475976807094E-15, 0.000000000000000000 ) ) ;
#703 = CARTESIAN_POINT ( 'NONE',  ( 27.00000000000000355, 17.00000000000000000, 19.00000000000000355 ) ) ;
#704 = VERTEX_POINT ( 'NONE', #424 ) ;
#705 = ORIENTED_EDGE ( 'NONE', *, *, #762, .T. ) ;
#706 = PLANE ( 'NONE',  #695 ) ;
#707 = CARTESIAN_POINT ( 'NONE',  ( 3.000000000000000000, 13.00000000000000533, 0.000000000000000000 ) ) ;
#708 = AXIS2_PLACEMENT_3D ( 'NONE', #24, #982, #635 ) ;
#709 = ORIENTED_EDGE ( 'NONE', *, *, #711, .F. ) ;
#710 = DIRECTION ( 'NONE',  ( -1.000000000000000000, 0.000000000000000000, 0.000000000000000000 ) ) ;
#711 = EDGE_CURVE ( 'NONE', #657, #547, #4, .T. ) ;
#712 = ORIENTED_EDGE ( 'NONE', *, *, #1092, .T. ) ;
#713 = LINE ( 'NONE', #177, #468 ) ;
#714 = DIRECTION ( 'NONE',  ( -0.000000000000000000, 0.000000000000000000, -1.000000000000000000 ) ) ;
#715 = DIRECTION ( 'NONE',  ( 1.000000000000000000, 0.000000000000000000, 0.000000000000000000 ) ) ;
#716 = AXIS2_PLACEMENT_3D ( 'NONE', #191, #808, #536 ) ;
#717 = ORIENTED_EDGE ( 'NONE', *, *, #459, .F. ) ;
#718 = FACE_BOUND ( 'NONE', #457, .T. ) ;
#719 = LINE ( 'NONE', #995, #646 ) ;
#720 = CARTESIAN_POINT ( 'NONE',  ( -25.99999999999999289, -16.00000000000000000, 0.000000000000000000 ) ) ;
#721 = ORIENTED_EDGE ( 'NONE', *, *, #742, .F. ) ;
#722 = LINE ( 'NONE', #634, #245 ) ;
#723 = EDGE_CURVE ( 'NONE', #543, #1060, #19, .T. ) ;
#724 = CARTESIAN_POINT ( 'NONE',  ( 3.000000000000000000, 14.00000000000000355, 2.000000000000000000 ) ) ;
#725 = DIRECTION ( 'NONE',  ( -1.000000000000000000, 0.000000000000000000, 0.000000000000000000 ) ) ;
#726 = AXIS2_PLACEMENT_3D ( 'NONE', #211, #124, #465 ) ;
#727 = ORIENTED_EDGE ( 'NONE', *, *, #723, .F. ) ;
#728 = DIRECTION ( 'NONE',  ( 1.000000000000000000, 2.168404344971008868E-16, -0.000000000000000000 ) ) ;
#729 = VECTOR ( 'NONE', #770, 1000.000000000000000 ) ;
#730 = EDGE_CURVE ( 'NONE', #683, #175, #713, .T. ) ;
#731 = ADVANCED_FACE ( 'NONE', ( #439 ), #792, .F. ) ;
#732 = CARTESIAN_POINT ( 'NONE',  ( 0.000000000000000000, 0.000000000000000000, 2.000000000000000000 ) ) ;
#733 = EDGE_LOOP ( 'NONE', ( #407, #480, #623, #152 ) ) ;
#734 = DIRECTION ( 'NONE',  ( -0.000000000000000000, 0.000000000000000000, -1.000000000000000000 ) ) ;
#735 = EDGE_CURVE ( 'NONE', #417, #414, #1078, .T. ) ;
#736 = DIRECTION ( 'NONE',  ( 0.000000000000000000, -1.000000000000000000, 0.000000000000000000 ) ) ;
#737 = FACE_OUTER_BOUND ( 'NONE', #875, .T. ) ;
#738 = CIRCLE ( 'NONE', #270, 1.000000000000000888 ) ;
#739 = EDGE_LOOP ( 'NONE', ( #1028, #645, #269, #181, #1047, #1114, #842, #1126 ) ) ;
#740 = CARTESIAN_POINT ( 'NONE',  ( 24.99999999999999645, -16.00000000000000000, 19.00000000000000355 ) ) ;
#741 = DIRECTION ( 'NONE',  ( 0.000000000000000000, 0.000000000000000000, -1.000000000000000000 ) ) ;
#742 = EDGE_CURVE ( 'NONE', #1035, #1112, #694, .T. ) ;
#743 = ORIENTED_EDGE ( 'NONE', *, *, #1059, .T. ) ;
#744 = CARTESIAN_POINT ( 'NONE',  ( 10.00000000000000178, 4.999999999999999112, 3.000000000000001776 ) ) ;
#745 = VECTOR ( 'NONE', #682, 1000.000000000000000 ) ;
#746 = VECTOR ( 'NONE', #94, 1000.000000000000000 ) ;
#747 = ORIENTED_EDGE ( 'NONE', *, *, #654, .T. ) ;
#748 = DIRECTION ( 'NONE',  ( 0.000000000000000000, 0.000000000000000000, -1.000000000000000000 ) ) ;
#749 = CARTESIAN_POINT ( 'NONE',  ( 25.99999999999999645, 16.00000000000000000, 2.000000000000000000 ) ) ;
#750 = CIRCLE ( 'NONE', #690, 1.000000000000000888 ) ;
#751 = DIRECTION ( 'NONE',  ( 0.000000000000000000, 0.000000000000000000, 1.000000000000000000 ) ) ;
#752 = VECTOR ( 'NONE', #362, 1000.000000000000000 ) ;
#753 = ORIENTED_EDGE ( 'NONE', *, *, #800, .T. ) ;
#754 = ORIENTED_EDGE ( 'NONE', *, *, #556, .T. ) ;
#755 = PLANE ( 'NONE',  #65 ) ;
#756 = AXIS2_PLACEMENT_3D ( 'NONE', #862, #558, #946 ) ;
#757 = CARTESIAN_POINT ( 'NONE',  ( 27.00000000000000355, 4.999999999999999112, 7.000000000000001776 ) ) ;
#758 = VERTEX_POINT ( 'NONE', #1140 ) ;
#759 = ORIENTED_EDGE ( 'NONE', *, *, #102, .F. ) ;
#760 = CARTESIAN_POINT ( 'NONE',  ( 26.00000000000000355, 16.00000000000000000, 19.00000000000000355 ) ) ;
#761 = FACE_OUTER_BOUND ( 'NONE', #125, .T. ) ;
#762 = EDGE_CURVE ( 'NONE', #475, #73, #74, .T. ) ;
#763 = ADVANCED_FACE ( 'NONE', ( #253, #718 ), #1076, .F. ) ;
#764 = LINE ( 'NONE', #1014, #75 ) ;
#765 = AXIS2_PLACEMENT_3D ( 'NONE', #307, #643, #1110 ) ;
#766 = EDGE_LOOP ( 'NONE', ( #1143, #1048, #791, #803, #187, #1024, #889, #777 ) ) ;
#767 = CARTESIAN_POINT ( 'NONE',  ( -25.99999999999999289, -16.00000000000000000, 19.00000000000000355 ) ) ;
#768 = DIRECTION ( 'NONE',  ( -0.000000000000000000, 0.000000000000000000, -1.000000000000000000 ) ) ;
#769 = CARTESIAN_POINT ( 'NONE',  ( 4.000000000000003553, -12.99999999999999822, 2.000000000000000000 ) ) ;
#770 = DIRECTION ( 'NONE',  ( -0.000000000000000000, 1.000000000000000000, -0.000000000000000000 ) ) ;
#771 = EDGE_CURVE ( 'NONE', #144, #1151, #608, .T. ) ;
#772 = ORIENTED_EDGE ( 'NONE', *, *, #496, .F. ) ;
#773 = DIRECTION ( 'NONE',  ( 2.168404344971008868E-16, -1.000000000000000000, 0.000000000000000000 ) ) ;
#774 = ORIENTED_EDGE ( 'NONE', *, *, #87, .T. ) ;
#775 = DIRECTION ( 'NONE',  ( 0.000000000000000000, 1.000000000000000000, 0.000000000000000000 ) ) ;
#776 = LINE ( 'NONE', #1130, #745 ) ;
#777 = ORIENTED_EDGE ( 'NONE', *, *, #1, .T. ) ;
#778 = ADVANCED_FACE ( 'NONE', ( #1073 ), #706, .T. ) ;
#779 = EDGE_LOOP ( 'NONE', ( #947, #119, #672, #467, #580, #343, #772, #943 ) ) ;
#780 = CARTESIAN_POINT ( 'NONE',  ( -22.99999999999999645, -13.99999999999999645, 2.000000000000000000 ) ) ;
#781 = DIRECTION ( 'NONE',  ( -1.000000000000000000, 0.000000000000000000, 0.000000000000000000 ) ) ;
#782 = AXIS2_PLACEMENT_3D ( 'NONE', #954, #775, #937 ) ;
#783 = CARTESIAN_POINT ( 'NONE',  ( -23.99999999999999645, -13.00000000000000000, 0.000000000000000000 ) ) ;
#784 = ORIENTED_EDGE ( 'NONE', *, *, #1059, .F. ) ;
#785 = DIRECTION ( 'NONE',  ( 1.000000000000000000, 0.000000000000000000, 0.000000000000000000 ) ) ;
#786 = ORIENTED_EDGE ( 'NONE', *, *, #742, .T. ) ;
#787 = CARTESIAN_POINT ( 'NONE',  ( -26.00000000000000000, -16.00000000000000000, 19.00000000000000355 ) ) ;
#788 = LINE ( 'NONE', #255, #789 ) ;
#789 = VECTOR ( 'NONE', #1136, 1000.000000000000000 ) ;
#790 = ORIENTED_EDGE ( 'NONE', *, *, #563, .F. ) ;
#791 = ORIENTED_EDGE ( 'NONE', *, *, #59, .F. ) ;
#792 = CYLINDRICAL_SURFACE ( 'NONE', #419, 1.000000000000000888 ) ;
#793 = APPLICATION_CONTEXT ( 'automotive_design' ) ;
#794 = LINE ( 'NONE', #1148, #335 ) ;
#795 = EDGE_LOOP ( 'NONE', ( #790, #323, #409, #317, #310, #71, #526, #280 ) ) ;
#796 = ORIENTED_EDGE ( 'NONE', *, *, #1150, .F. ) ;
#797 = CARTESIAN_POINT ( 'NONE',  ( 27.00000000000000355, 4.999999999999999112, 8.000000000000001776 ) ) ;
#798 = EDGE_CURVE ( 'NONE', #1015, #58, #1054, .T. ) ;
#799 = DIRECTION ( 'NONE',  ( -0.000000000000000000, 0.000000000000000000, 1.000000000000000000 ) ) ;
#800 = EDGE_CURVE ( 'NONE', #423, #864, #434, .T. ) ;
#801 = ORIENTED_EDGE ( 'NONE', *, *, #771, .T. ) ;
#802 = CYLINDRICAL_SURFACE ( 'NONE', #378, 1.000000000000000888 ) ;
#803 = ORIENTED_EDGE ( 'NONE', *, *, #1102, .T. ) ;
#804 = DIRECTION ( 'NONE',  ( 0.000000000000000000, 0.000000000000000000, 1.000000000000000000 ) ) ;
#805 = CARTESIAN_POINT ( 'NONE',  ( 24.99999999999999645, -15.00000000000000000, 19.00000000000000355 ) ) ;
#806 = VECTOR ( 'NONE', #859, 1000.000000000000000 ) ;
#807 = EDGE_CURVE ( 'NONE', #876, #864, #1013, .T. ) ;
#808 = DIRECTION ( 'NONE',  ( 0.000000000000000000, -1.000000000000000000, 0.000000000000000000 ) ) ;
#809 = VERTEX_POINT ( 'NONE', #172 ) ;
#810 = LINE ( 'NONE', #877, #928 ) ;
#811 = AXIS2_PLACEMENT_3D ( 'NONE', #613, #1056, #602 ) ;
#812 = CARTESIAN_POINT ( 'NONE',  ( 26.00000000000000355, -15.00000000000000000, 19.00000000000000355 ) ) ;
#813 = CARTESIAN_POINT ( 'NONE',  ( 27.00000000000000355, 3.999999999999999112, 7.000000000000001776 ) ) ;
#814 = AXIS2_PLACEMENT_3D ( 'NONE', #274, #632, #262 ) ;
#815 = FACE_OUTER_BOUND ( 'NONE', #159, .T. ) ;
#816 = EDGE_CURVE ( 'NONE', #1072, #1001, #86, .T. ) ;
#817 = CYLINDRICAL_SURFACE ( 'NONE', #93, 1.000000000000000888 ) ;
#818 = MANIFOLD_SOLID_BREP ( 'Fillet4', #450 ) ;
#819 = CARTESIAN_POINT ( 'NONE',  ( 26.00000000000000355, -17.00000000000000000, 19.00000000000000355 ) ) ;
#820 = VERTEX_POINT ( 'NONE', #200 ) ;
#821 = EDGE_CURVE ( 'NONE', #349, #820, #961, .T. ) ;
#822 = CIRCLE ( 'NONE', #401, 1.000000000000000000 ) ;
#823 = ADVANCED_FACE ( 'NONE', ( #561 ), #924, .F. ) ;
#824 = AXIS2_PLACEMENT_3D ( 'NONE', #118, #478, #285 ) ;
#825 = ORIENTED_EDGE ( 'NONE', *, *, #266, .F. ) ;
#826 = CARTESIAN_POINT ( 'NONE',  ( -23.99999999999999645, 14.00000000000000355, 2.000000000000000000 ) ) ;
#827 = CARTESIAN_POINT ( 'NONE',  ( -26.00000000000000355, 16.00000000000000000, 2.000000000000000000 ) ) ;
#828 = CIRCLE ( 'NONE', #201, 1.000000000000000888 ) ;
#829 = APPLICATION_CONTEXT ( 'automotive_design' ) ;
#830 = FACE_OUTER_BOUND ( 'NONE', #199, .T. ) ;
#831 = ORIENTED_EDGE ( 'NONE', *, *, #1088, .F. ) ;
#832 = ADVANCED_FACE ( 'NONE', ( #815 ), #837, .F. ) ;
#833 = CARTESIAN_POINT ( 'NONE',  ( -26.00000000000000355, 16.00000000000000000, 2.000000000000000000 ) ) ;
#834 = EDGE_CURVE ( 'NONE', #361, #132, #23, .T. ) ;
#835 = VECTOR ( 'NONE', #949, 1000.000000000000000 ) ;
#836 = VERTEX_POINT ( 'NONE', #544 ) ;
#837 = PLANE ( 'NONE',  #99 ) ;
#838 = EDGE_CURVE ( 'NONE', #1001, #967, #722, .T. ) ;
#839 = DIRECTION ( 'NONE',  ( -0.000000000000000000, -0.000000000000000000, 1.000000000000000000 ) ) ;
#840 = AXIS2_PLACEMENT_3D ( 'NONE', #925, #115, #376 ) ;
#841 = CARTESIAN_POINT ( 'NONE',  ( 26.00000000000000000, -5.000000000000000888, 3.999999999999998224 ) ) ;
#842 = ORIENTED_EDGE ( 'NONE', *, *, #276, .T. ) ;
#843 = LINE ( 'NONE', #292, #1012 ) ;
#844 = ORIENTED_EDGE ( 'NONE', *, *, #958, .F. ) ;
#845 = CARTESIAN_POINT ( 'NONE',  ( 4.000000000000000000, 13.00000000000000533, 0.000000000000000000 ) ) ;
#846 = CYLINDRICAL_SURFACE ( 'NONE', #162, 1.000000000000000888 ) ;
#847 = CIRCLE ( 'NONE', #1050, 1.000000000000000888 ) ;
#848 = DIRECTION ( 'NONE',  ( 1.084202172485504434E-16, -1.000000000000000000, 0.000000000000000000 ) ) ;
#849 = VECTOR ( 'NONE', #265, 1000.000000000000000 ) ;
#850 = ORIENTED_EDGE ( 'NONE', *, *, #236, .F. ) ;
#851 = CARTESIAN_POINT ( 'NONE',  ( 26.00000000000000000, 3.999999999999999112, 7.000000000000001776 ) ) ;
#852 = CYLINDRICAL_SURFACE ( 'NONE', #402, 1.000000000000000888 ) ;
#853 = CYLINDRICAL_SURFACE ( 'NONE', #346, 1.000000000000000888 ) ;
#854 = EDGE_CURVE ( 'NONE', #403, #423, #1002, .T. ) ;
#855 = CARTESIAN_POINT ( 'NONE',  ( 27.00000000000000355, 3.999999999999999112, 3.000000000000001332 ) ) ;
#856 = ORIENTED_EDGE ( 'NONE', *, *, #854, .F. ) ;
#857 = DIRECTION ( 'NONE',  ( -1.000000000000000000, -0.000000000000000000, 0.000000000000000000 ) ) ;
#858 = ORIENTED_EDGE ( 'NONE', *, *, #59, .T. ) ;
#859 = DIRECTION ( 'NONE',  ( -0.000000000000000000, -0.000000000000000000, 1.000000000000000000 ) ) ;
#860 = SHAPE_DEFINITION_REPRESENTATION ( #512, #1099 ) ;
#861 = PRODUCT_DEFINITION ( 'UNKNOWN', '', #104, #696 ) ;
#862 = CARTESIAN_POINT ( 'NONE',  ( -26.00000000000000355, 16.00000000000000000, 19.00000000000000355 ) ) ;
#863 = ADVANCED_FACE ( 'NONE', ( #548 ), #106, .T. ) ;
#864 = VERTEX_POINT ( 'NONE', #1090 ) ;
#865 = CARTESIAN_POINT ( 'NONE',  ( 24.99999999999999289, 16.00000000000000000, 19.00000000000000355 ) ) ;
#866 = ORIENTED_EDGE ( 'NONE', *, *, #921, .T. ) ;
#867 = CARTESIAN_POINT ( 'NONE',  ( 3.000000000000002665, -13.99999999999999645, 2.000000000000000000 ) ) ;
#868 = VECTOR ( 'NONE', #714, 1000.000000000000000 ) ;
#869 = DIRECTION ( 'NONE',  ( 1.000000000000000000, 0.000000000000000000, 0.000000000000000000 ) ) ;
#870 = CIRCLE ( 'NONE', #53, 1.000000000000000000 ) ;
#871 = ORIENTED_EDGE ( 'NONE', *, *, #711, .T. ) ;
#872 = CARTESIAN_POINT ( 'NONE',  ( 26.00000000000000355, -16.00000000000000000, 19.00000000000000355 ) ) ;
#873 = CARTESIAN_POINT ( 'NONE',  ( 27.00000000000000355, 16.00000000000000000, 19.00000000000000355 ) ) ;
#874 = CYLINDRICAL_SURFACE ( 'NONE', #278, 1.000000000000000888 ) ;
#875 = EDGE_LOOP ( 'NONE', ( #844, #691, #1055, #856 ) ) ;
#876 = VERTEX_POINT ( 'NONE', #284 ) ;
#877 = CARTESIAN_POINT ( 'NONE',  ( 26.00000000000000355, -15.00000000000000000, 19.00000000000000355 ) ) ;
#878 = CARTESIAN_POINT ( 'NONE',  ( 27.00000000000000355, -5.000000000000000888, 3.999999999999998224 ) ) ;
#879 = VERTEX_POINT ( 'NONE', #642 ) ;
#880 = DIRECTION ( 'NONE',  ( -1.000000000000000000, 0.000000000000000000, 0.000000000000000000 ) ) ;
#881 = EDGE_LOOP ( 'NONE', ( #796, #393, #251, #79 ) ) ;
#882 = CARTESIAN_POINT ( 'NONE',  ( 27.00000000000000355, 4.999999999999999112, 4.000000000000001776 ) ) ;
#883 = VECTOR ( 'NONE', #644, 1000.000000000000000 ) ;
#884 = CARTESIAN_POINT ( 'NONE',  ( -22.99999999999999645, -13.00000000000000000, 2.000000000000000000 ) ) ;
#885 = ORIENTED_EDGE ( 'NONE', *, *, #1146, .T. ) ;
#886 = ORIENTED_EDGE ( 'NONE', *, *, #637, .T. ) ;
#887 = CARTESIAN_POINT ( 'NONE',  ( -23.99999999999999645, 14.00000000000000355, 0.000000000000000000 ) ) ;
#888 = DIRECTION ( 'NONE',  ( 1.000000000000000000, 0.000000000000000000, 0.000000000000000000 ) ) ;
#889 = ORIENTED_EDGE ( 'NONE', *, *, #520, .F. ) ;
#890 = ORIENTED_EDGE ( 'NONE', *, *, #1092, .F. ) ;
#891 = DIRECTION ( 'NONE',  ( -0.000000000000000000, 0.000000000000000000, 1.000000000000000000 ) ) ;
#892 = AXIS2_PLACEMENT_3D ( 'NONE', #249, #339, #702 ) ;
#893 = EDGE_CURVE ( 'NONE', #704, #475, #559, .T. ) ;
#894 = CARTESIAN_POINT ( 'NONE',  ( 26.00000000000000355, 17.00000000000000000, 2.000000000000000000 ) ) ;
#895 = DIRECTION ( 'NONE',  ( 0.000000000000000000, 0.000000000000000000, 1.000000000000000000 ) ) ;
#896 = DIRECTION ( 'NONE',  ( 0.000000000000000000, 0.000000000000000000, 1.000000000000000000 ) ) ;
#897 =( NAMED_UNIT ( * ) PLANE_ANGLE_UNIT ( ) SI_UNIT ( $, .RADIAN. ) );
#898 = CARTESIAN_POINT ( 'NONE',  ( 24.99999999999999289, 15.00000000000000000, 19.00000000000000355 ) ) ;
#899 = AXIS2_PLACEMENT_3D ( 'NONE', #123, #477, #470 ) ;
#900 = DIRECTION ( 'NONE',  ( -1.000000000000000000, -0.000000000000000000, -0.000000000000000000 ) ) ;
#901 = VECTOR ( 'NONE', #603, 1000.000000000000000 ) ;
#902 = PLANE ( 'NONE',  #1057 ) ;
#903 = ADVANCED_FACE ( 'NONE', ( #919 ), #108, .F. ) ;
#904 = VECTOR ( 'NONE', #964, 1000.000000000000000 ) ;
#905 = EDGE_LOOP ( 'NONE', ( #831, #326, #1097, #454 ) ) ;
#906 = VECTOR ( 'NONE', #458, 1000.000000000000000 ) ;
#907 = LINE ( 'NONE', #621, #957 ) ;
#908 = ADVANCED_FACE ( 'NONE', ( #214 ), #942, .T. ) ;
#909 = CIRCLE ( 'NONE', #206, 1.000000000000000888 ) ;
#910 = EDGE_CURVE ( 'NONE', #356, #543, #843, .T. ) ;
#911 = ORIENTED_EDGE ( 'NONE', *, *, #276, .F. ) ;
#912 = DIRECTION ( 'NONE',  ( 0.000000000000000000, -0.000000000000000000, -1.000000000000000000 ) ) ;
#913 = CARTESIAN_POINT ( 'NONE',  ( 24.99999999999998224, 16.00000000000000000, 2.000000000000000000 ) ) ;
#914 = ORIENTED_EDGE ( 'NONE', *, *, #461, .F. ) ;
#915 =( NAMED_UNIT ( * ) SI_UNIT ( $, .STERADIAN. ) SOLID_ANGLE_UNIT ( ) );
#916 = LINE ( 'NONE', #195, #1017 ) ;
#917 = AXIS2_PLACEMENT_3D ( 'NONE', #290, #661, #217 ) ;
#918 = EDGE_LOOP ( 'NONE', ( #591, #1033, #685, #709 ) ) ;
#919 = FACE_OUTER_BOUND ( 'NONE', #517, .T. ) ;
#920 = VECTOR ( 'NONE', #208, 1000.000000000000000 ) ;
#921 = EDGE_CURVE ( 'NONE', #58, #342, #1128, .T. ) ;
#922 = CARTESIAN_POINT ( 'NONE',  ( 26.00000000000000000, 4.999999999999999112, 7.000000000000001776 ) ) ;
#923 = ORIENTED_EDGE ( 'NONE', *, *, #1006, .T. ) ;
#924 = PLANE ( 'NONE',  #1103 ) ;
#925 = CARTESIAN_POINT ( 'NONE',  ( 3.000000000000000000, 13.00000000000000533, 2.000000000000000000 ) ) ;
#926 = EDGE_CURVE ( 'NONE', #629, #809, #416, .T. ) ;
#927 = FACE_OUTER_BOUND ( 'NONE', #881, .T. ) ;
#928 = VECTOR ( 'NONE', #68, 1000.000000000000000 ) ;
#929 = ORIENTED_EDGE ( 'NONE', *, *, #838, .T. ) ;
#930 = DIRECTION ( 'NONE',  ( 1.000000000000000000, 0.000000000000000000, 0.000000000000000000 ) ) ;
#931 = ORIENTED_EDGE ( 'NONE', *, *, #926, .T. ) ;
#932 = LINE ( 'NONE', #418, #1007 ) ;
#933 = CARTESIAN_POINT ( 'NONE',  ( 4.000000000000003553, -13.00000000000000000, 2.000000000000000000 ) ) ;
#934 = EDGE_LOOP ( 'NONE', ( #96, #367, #941, #238 ) ) ;
#935 = ADVANCED_FACE ( 'NONE', ( #140, #221 ), #126, .T. ) ;
#936 = DIRECTION ( 'NONE',  ( -0.000000000000000000, -0.000000000000000000, 1.000000000000000000 ) ) ;
#937 = DIRECTION ( 'NONE',  ( 0.000000000000000000, -0.000000000000000000, 1.000000000000000000 ) ) ;
#938 = LINE ( 'NONE', #827, #179 ) ;
#939 = VECTOR ( 'NONE', #163, 1000.000000000000000 ) ;
#940 = CARTESIAN_POINT ( 'NONE',  ( 27.00000000000000355, -4.000000000000001776, 2.999999999999998668 ) ) ;
#941 = ORIENTED_EDGE ( 'NONE', *, *, #893, .F. ) ;
#942 = CYLINDRICAL_SURFACE ( 'NONE', #14, 1.000000000000000888 ) ;
#943 = ORIENTED_EDGE ( 'NONE', *, *, #1088, .T. ) ;
#944 = CARTESIAN_POINT ( 'NONE',  ( -26.00000000000000000, -15.00000000000000000, 19.00000000000000355 ) ) ;
#945 = DIRECTION ( 'NONE',  ( 1.000000000000000000, 0.000000000000000000, 0.000000000000000000 ) ) ;
#946 = DIRECTION ( 'NONE',  ( 0.000000000000000000, -0.000000000000000000, -1.000000000000000000 ) ) ;
#947 = ORIENTED_EDGE ( 'NONE', *, *, #192, .F. ) ;
#948 = EDGE_LOOP ( 'NONE', ( #63, #488, #233, #886, #215, #49, #1075, #1105 ) ) ;
#949 = DIRECTION ( 'NONE',  ( -0.000000000000000000, 1.000000000000000000, 3.469446951953614189E-16 ) ) ;
#950 = CARTESIAN_POINT ( 'NONE',  ( -22.99999999999999645, -13.00000000000000000, 0.000000000000000000 ) ) ;
#951 = EDGE_LOOP ( 'NONE', ( #373, #207, #727, #219 ) ) ;
#952 = DIRECTION ( 'NONE',  ( 0.000000000000000000, 0.000000000000000000, 1.000000000000000000 ) ) ;
#953 = ORIENTED_EDGE ( 'NONE', *, *, #286, .T. ) ;
#954 = CARTESIAN_POINT ( 'NONE',  ( -26.00000000000000000, -16.00000000000000000, 19.00000000000000355 ) ) ;
#955 = APPLICATION_PROTOCOL_DEFINITION ( 'draft international standard', 'automotive_design', 1998, #829 ) ;
#956 = AXIS2_PLACEMENT_3D ( 'NONE', #653, #277, #1100 ) ;
#957 = VECTOR ( 'NONE', #528, 1000.000000000000000 ) ;
#958 = EDGE_CURVE ( 'NONE', #426, #403, #870, .T. ) ;
#959 = LINE ( 'NONE', #783, #904 ) ;
#960 = ORIENTED_EDGE ( 'NONE', *, *, #1147, .F. ) ;
#961 = CIRCLE ( 'NONE', #447, 1.000000000000000000 ) ;
#962 = ORIENTED_EDGE ( 'NONE', *, *, #921, .F. ) ;
#963 = DIRECTION ( 'NONE',  ( -0.000000000000000000, -0.000000000000000000, 1.000000000000000000 ) ) ;
#964 = DIRECTION ( 'NONE',  ( -0.000000000000000000, 0.000000000000000000, -1.000000000000000000 ) ) ;
#965 = ORIENTED_EDGE ( 'NONE', *, *, #466, .F. ) ;
#966 = DIRECTION ( 'NONE',  ( 0.000000000000000000, 1.000000000000000000, 0.000000000000000000 ) ) ;
#967 = VERTEX_POINT ( 'NONE', #318 ) ;
#968 = DIRECTION ( 'NONE',  ( 0.000000000000000000, -1.000000000000000000, 0.000000000000000000 ) ) ;
#969 = FACE_OUTER_BOUND ( 'NONE', #571, .T. ) ;
#970 = CIRCLE ( 'NONE', #515, 1.000000000000000000 ) ;
#971 = ORIENTED_EDGE ( 'NONE', *, *, #798, .T. ) ;
#972 = ADVANCED_FACE ( 'NONE', ( #145 ), #487, .F. ) ;
#973 = ORIENTED_EDGE ( 'NONE', *, *, #1102, .F. ) ;
#974 = DIRECTION ( 'NONE',  ( 1.000000000000000000, 0.000000000000000000, 0.000000000000000000 ) ) ;
#975 = AXIS2_PLACEMENT_3D ( 'NONE', #198, #111, #751 ) ;
#976 = LINE ( 'NONE', #524, #577 ) ;
#977 = ORIENTED_EDGE ( 'NONE', *, *, #534, .F. ) ;
#978 = AXIS2_PLACEMENT_3D ( 'NONE', #767, #566, #930 ) ;
#979 = ORIENTED_EDGE ( 'NONE', *, *, #807, .F. ) ;
#980 = DIRECTION ( 'NONE',  ( 0.000000000000000000, 0.000000000000000000, 1.000000000000000000 ) ) ;
#981 = EDGE_CURVE ( 'NONE', #836, #144, #828, .T. ) ;
#982 = DIRECTION ( 'NONE',  ( 0.000000000000000000, 0.000000000000000000, 1.000000000000000000 ) ) ;
#983 = EDGE_CURVE ( 'NONE', #43, #1072, #3, .T. ) ;
#984 = LINE ( 'NONE', #244, #593 ) ;
#985 = ORIENTED_EDGE ( 'NONE', *, *, #186, .T. ) ;
#986 = FILL_AREA_STYLE_COLOUR ( '', #149 ) ;
#987 = VECTOR ( 'NONE', #334, 1000.000000000000000 ) ;
#988 = EDGE_CURVE ( 'NONE', #356, #1035, #27, .T. ) ;
#989 = LINE ( 'NONE', #178, #746 ) ;
#990 = CARTESIAN_POINT ( 'NONE',  ( 0.000000000000000000, 0.000000000000000000, 19.00000000000000355 ) ) ;
#991 = EDGE_LOOP ( 'NONE', ( #105, #248, #141, #82 ) ) ;
#992 = SURFACE_STYLE_FILL_AREA ( #182 ) ;
#993 = CIRCLE ( 'NONE', #662, 1.000000000000000888 ) ;
#994 = EDGE_CURVE ( 'NONE', #641, #225, #352, .T. ) ;
#995 = CARTESIAN_POINT ( 'NONE',  ( -23.99999999999999645, 13.00000000000000533, 2.000000000000000000 ) ) ;
#996 = DIRECTION ( 'NONE',  ( 1.000000000000000000, 0.000000000000000000, 0.000000000000000000 ) ) ;
#997 = VECTOR ( 'NONE', #143, 1000.000000000000000 ) ;
#998 = ORIENTED_EDGE ( 'NONE', *, *, #466, .T. ) ;
#999 = LINE ( 'NONE', #894, #405 ) ;
#1000 = FACE_OUTER_BOUND ( 'NONE', #991, .T. ) ;
#1001 = VERTEX_POINT ( 'NONE', #120 ) ;
#1002 = LINE ( 'NONE', #368, #906 ) ;
#1003 = ADVANCED_FACE ( 'NONE', ( #474 ), #386, .F. ) ;
#1004 = ORIENTED_EDGE ( 'NONE', *, *, #1046, .T. ) ;
#1005 = CARTESIAN_POINT ( 'NONE',  ( -25.99999999999999645, 16.00000000000000000, 0.000000000000000000 ) ) ;
#1006 = EDGE_CURVE ( 'NONE', #864, #1121, #579, .T. ) ;
#1007 = VECTOR ( 'NONE', #389, 1000.000000000000000 ) ;
#1008 = DIRECTION ( 'NONE',  ( 1.000000000000000000, 0.000000000000000000, 0.000000000000000000 ) ) ;
#1009 = LINE ( 'NONE', #922, #1029 ) ;
#1010 = CIRCLE ( 'NONE', #497, 1.000000000000000000 ) ;
#1011 = VERTEX_POINT ( 'NONE', #658 ) ;
#1012 = VECTOR ( 'NONE', #500, 1000.000000000000000 ) ;
#1013 = CIRCLE ( 'NONE', #189, 1.000000000000000888 ) ;
#1014 = CARTESIAN_POINT ( 'NONE',  ( 26.00000000000000000, -17.00000000000000000, 2.000000000000000000 ) ) ;
#1015 = VERTEX_POINT ( 'NONE', #42 ) ;
#1016 = CARTESIAN_POINT ( 'NONE',  ( 10.00000000000000178, 4.999999999999999112, 8.000000000000001776 ) ) ;
#1017 = VECTOR ( 'NONE', #550, 1000.000000000000000 ) ;
#1018 = CARTESIAN_POINT ( 'NONE',  ( 4.000000000000000000, 13.00000000000000533, 2.000000000000000000 ) ) ;
#1019 = FACE_OUTER_BOUND ( 'NONE', #934, .T. ) ;
#1020 = ADVANCED_FACE ( 'NONE', ( #400 ), #1119, .F. ) ;
#1021 = CARTESIAN_POINT ( 'NONE',  ( -26.99999999999999645, 17.00000000000000000, 0.000000000000000000 ) ) ;
#1022 = ORIENTED_EDGE ( 'NONE', *, *, #1046, .F. ) ;
#1023 = DIRECTION ( 'NONE',  ( 0.000000000000000000, -3.469446951953614189E-16, 1.000000000000000000 ) ) ;
#1024 = ORIENTED_EDGE ( 'NONE', *, *, #308, .T. ) ;
#1025 = DIRECTION ( 'NONE',  ( -1.000000000000000000, -0.000000000000000000, -0.000000000000000000 ) ) ;
#1026 = ADVANCED_FACE ( 'NONE', ( #692 ), #518, .F. ) ;
#1027 = CYLINDRICAL_SURFACE ( 'NONE', #917, 1.000000000000000000 ) ;
#1028 = ORIENTED_EDGE ( 'NONE', *, *, #461, .T. ) ;
#1029 = VECTOR ( 'NONE', #224, 1000.000000000000000 ) ;
#1030 = LINE ( 'NONE', #660, #1156 ) ;
#1031 = CARTESIAN_POINT ( 'NONE',  ( 3.000000000000002665, -12.99999999999999822, 0.000000000000000000 ) ) ;
#1032 = LINE ( 'NONE', #841, #505 ) ;
#1033 = ORIENTED_EDGE ( 'NONE', *, *, #1146, .F. ) ;
#1034 = DIRECTION ( 'NONE',  ( -0.000000000000000000, 0.000000000000000000, 1.000000000000000000 ) ) ;
#1035 = VERTEX_POINT ( 'NONE', #83 ) ;
#1036 = DIRECTION ( 'NONE',  ( 0.000000000000000000, 0.000000000000000000, -1.000000000000000000 ) ) ;
#1037 = CARTESIAN_POINT ( 'NONE',  ( -26.00000000000000355, 16.00000000000000000, 19.00000000000000355 ) ) ;
#1038 = EDGE_LOOP ( 'NONE', ( #633, #931, #338, #171 ) ) ;
#1039 = DIRECTION ( 'NONE',  ( -1.000000000000000000, 0.000000000000000000, 0.000000000000000000 ) ) ;
#1040 = VECTOR ( 'NONE', #1152, 1000.000000000000000 ) ;
#1041 = ADVANCED_FACE ( 'NONE', ( #437 ), #531, .F. ) ;
#1042 = ORIENTED_EDGE ( 'NONE', *, *, #220, .T. ) ;
#1043 = DIRECTION ( 'NONE',  ( -1.000000000000000000, 0.000000000000000000, 0.000000000000000000 ) ) ;
#1044 = EDGE_CURVE ( 'NONE', #225, #43, #153, .T. ) ;
#1045 = DIRECTION ( 'NONE',  ( 0.000000000000000000, 0.000000000000000000, 1.000000000000000000 ) ) ;
#1046 = EDGE_CURVE ( 'NONE', #342, #1131, #993, .T. ) ;
#1047 = ORIENTED_EDGE ( 'NONE', *, *, #1044, .T. ) ;
#1048 = ORIENTED_EDGE ( 'NONE', *, *, #893, .T. ) ;
#1049 = DIRECTION ( 'NONE',  ( -1.000000000000000000, 0.000000000000000000, 0.000000000000000000 ) ) ;
#1050 = AXIS2_PLACEMENT_3D ( 'NONE', #76, #1142, #331 ) ;
#1051 = EDGE_CURVE ( 'NONE', #58, #586, #938, .T. ) ;
#1052 = LINE ( 'NONE', #698, #901 ) ;
#1053 = ORIENTED_EDGE ( 'NONE', *, *, #308, .F. ) ;
#1054 = CIRCLE ( 'NONE', #541, 1.000000000000000888 ) ;
#1055 = ORIENTED_EDGE ( 'NONE', *, *, #16, .F. ) ;
#1056 = DIRECTION ( 'NONE',  ( -0.000000000000000000, 0.000000000000000000, 1.000000000000000000 ) ) ;
#1057 = AXIS2_PLACEMENT_3D ( 'NONE', #990, #185, #530 ) ;
#1058 = CARTESIAN_POINT ( 'NONE',  ( 26.00000000000000000, -5.000000000000000888, 6.999999999999999112 ) ) ;
#1059 = EDGE_CURVE ( 'NONE', #1060, #1015, #484, .T. ) ;
#1060 = VERTEX_POINT ( 'NONE', #210 ) ;
#1061 = EDGE_LOOP ( 'NONE', ( #911, #196, #929, #421 ) ) ;
#1062 = DIRECTION ( 'NONE',  ( 1.000000000000000000, 0.000000000000000000, 0.000000000000000000 ) ) ;
#1063 = DIRECTION ( 'NONE',  ( 0.000000000000000000, -0.000000000000000000, -1.000000000000000000 ) ) ;
#1064 = ADVANCED_FACE ( 'NONE', ( #562 ), #15, .F. ) ;
#1065 = EDGE_CURVE ( 'NONE', #547, #600, #822, .T. ) ;
#1066 = ORIENTED_EDGE ( 'NONE', *, *, #520, .T. ) ;
#1067 = ORIENTED_EDGE ( 'NONE', *, *, #203, .F. ) ;
#1068 = DIRECTION ( 'NONE',  ( 0.000000000000000000, -1.000000000000000000, -3.469446951953614189E-16 ) ) ;
#1069 = ADVANCED_FACE ( 'NONE', ( #761 ), #853, .F. ) ;
#1070 = DIRECTION ( 'NONE',  ( 0.000000000000000000, 1.000000000000000000, 0.000000000000000000 ) ) ;
#1071 = CARTESIAN_POINT ( 'NONE',  ( 26.00000000000000355, -16.00000000000000000, 2.000000000000000000 ) ) ;
#1072 = VERTEX_POINT ( 'NONE', #223 ) ;
#1073 = FACE_OUTER_BOUND ( 'NONE', #606, .T. ) ;
#1074 = DIRECTION ( 'NONE',  ( 0.000000000000000000, 0.000000000000000000, 1.000000000000000000 ) ) ;
#1075 = ORIENTED_EDGE ( 'NONE', *, *, #800, .F. ) ;
#1076 = PLANE ( 'NONE',  #811 ) ;
#1077 = PRODUCT_RELATED_PRODUCT_CATEGORY ( 'part', '', ( #212 ) ) ;
#1078 = CIRCLE ( 'NONE', #892, 1.000000000000000000 ) ;
#1079 = DIRECTION ( 'NONE',  ( 0.000000000000000000, 0.000000000000000000, -1.000000000000000000 ) ) ;
#1080 = FACE_OUTER_BOUND ( 'NONE', #1061, .T. ) ;
#1081 = ORIENTED_EDGE ( 'NONE', *, *, #496, .T. ) ;
#1082 = UNCERTAINTY_MEASURE_WITH_UNIT (LENGTH_MEASURE( 1.000000000000000082E-05 ), #538, 'distance_accuracy_value', 'NONE');
#1083 = CARTESIAN_POINT ( 'NONE',  ( 24.99999999999999645, -15.00000000000000000, 19.00000000000000355 ) ) ;
#1084 = CARTESIAN_POINT ( 'NONE',  ( 26.00000000000000355, 17.00000000000000000, 0.000000000000000000 ) ) ;
#1085 = ORIENTED_EDGE ( 'NONE', *, *, #413, .F. ) ;
#1086 =( NAMED_UNIT ( * ) PLANE_ANGLE_UNIT ( ) SI_UNIT ( $, .RADIAN. ) );
#1087 = CARTESIAN_POINT ( 'NONE',  ( -26.99999999999999645, 17.00000000000000000, 0.000000000000000000 ) ) ;
#1088 = EDGE_CURVE ( 'NONE', #444, #275, #970, .T. ) ;
#1089 = ORIENTED_EDGE ( 'NONE', *, *, #604, .T. ) ;
#1090 = CARTESIAN_POINT ( 'NONE',  ( 27.00000000000000355, -4.000000000000001776, 7.999999999999998224 ) ) ;
#1091 = LINE ( 'NONE', #833, #460 ) ;
#1092 = EDGE_CURVE ( 'NONE', #132, #283, #1154, .T. ) ;
#1093 = ORIENTED_EDGE ( 'NONE', *, *, #983, .F. ) ;
#1094 = CIRCLE ( 'NONE', #765, 1.000000000000000888 ) ;
#1095 = DIRECTION ( 'NONE',  ( -0.000000000000000000, -0.000000000000000000, 1.000000000000000000 ) ) ;
#1096 = VECTOR ( 'NONE', #748, 1000.000000000000000 ) ;
#1097 = ORIENTED_EDGE ( 'NONE', *, *, #637, .F. ) ;
#1098 = DIRECTION ( 'NONE',  ( 0.000000000000000000, -1.000000000000000000, 0.000000000000000000 ) ) ;
#1099 = ADVANCED_BREP_SHAPE_REPRESENTATION ( 'esp_transmittor_case_shell', ( #818, #254 ), #614 ) ;
#1100 = DIRECTION ( 'NONE',  ( -1.084202172485504434E-16, 1.000000000000000000, 0.000000000000000000 ) ) ;
#1101 = DIRECTION ( 'NONE',  ( -0.000000000000000000, 0.000000000000000000, 1.000000000000000000 ) ) ;
#1102 = EDGE_CURVE ( 'NONE', #12, #967, #1094, .T. ) ;
#1103 = AXIS2_PLACEMENT_3D ( 'NONE', #380, #113, #98 ) ;
#1104 = CARTESIAN_POINT ( 'NONE',  ( -26.00000000000000355, 15.00000000000000000, 19.00000000000000355 ) ) ;
#1105 = ORIENTED_EDGE ( 'NONE', *, *, #16, .T. ) ;
#1106 = DIRECTION ( 'NONE',  ( 0.000000000000000000, -1.000000000000000000, -0.000000000000000000 ) ) ;
#1107 = AXIS2_PLACEMENT_3D ( 'NONE', #180, #448, #996 ) ;
#1108 = ORIENTED_EDGE ( 'NONE', *, *, #798, .F. ) ;
#1109 = LINE ( 'NONE', #596, #594 ) ;
#1110 = DIRECTION ( 'NONE',  ( 1.000000000000000000, 0.000000000000000000, 0.000000000000000000 ) ) ;
#1111 = LINE ( 'NONE', #301, #883 ) ;
#1112 = VERTEX_POINT ( 'NONE', #740 ) ;
#1113 = DIRECTION ( 'NONE',  ( -0.000000000000000000, 0.000000000000000000, 1.000000000000000000 ) ) ;
#1114 = ORIENTED_EDGE ( 'NONE', *, *, #983, .T. ) ;
#1115 = CARTESIAN_POINT ( 'NONE',  ( 3.000000000000002665, -13.99999999999999645, 0.000000000000000000 ) ) ;
#1116 = CARTESIAN_POINT ( 'NONE',  ( 26.00000000000000000, -4.000000000000001776, 3.999999999999998224 ) ) ;
#1117 = LINE ( 'NONE', #491, #218 ) ;
#1118 = ORIENTED_EDGE ( 'NONE', *, *, #554, .T. ) ;
#1119 = CYLINDRICAL_SURFACE ( 'NONE', #235, 1.000000000000000888 ) ;
#1120 = AXIS2_PLACEMENT_3D ( 'NONE', #35, #392, #138 ) ;
#1121 = VERTEX_POINT ( 'NONE', #295 ) ;
#1122 = DIRECTION ( 'NONE',  ( 1.000000000000000000, 0.000000000000000000, 0.000000000000000000 ) ) ;
#1123 = CARTESIAN_POINT ( 'NONE',  ( 25.99999999999999645, 15.00000000000000000, 19.00000000000000355 ) ) ;
#1124 = VECTOR ( 'NONE', #408, 1000.000000000000000 ) ;
#1125 = CARTESIAN_POINT ( 'NONE',  ( 4.000000000000000000, 14.00000000000000355, 2.000000000000000000 ) ) ;
#1126 = ORIENTED_EDGE ( 'NONE', *, *, #585, .T. ) ;
#1127 = ADVANCED_FACE ( 'NONE', ( #1019 ), #846, .T. ) ;
#1128 = LINE ( 'NONE', #865, #502 ) ;
#1129 = DIRECTION ( 'NONE',  ( 1.000000000000000000, 0.000000000000000000, 0.000000000000000000 ) ) ;
#1130 = CARTESIAN_POINT ( 'NONE',  ( 26.00000000000000000, 4.999999999999999112, 19.00000000000000355 ) ) ;
#1131 = VERTEX_POINT ( 'NONE', #1123 ) ;
#1132 = AXIS2_PLACEMENT_3D ( 'NONE', #395, #1043, #135 ) ;
#1133 = ORIENTED_EDGE ( 'NONE', *, *, #730, .T. ) ;
#1134 = DIRECTION ( 'NONE',  ( 1.000000000000000000, 0.000000000000000000, 0.000000000000000000 ) ) ;
#1135 = CARTESIAN_POINT ( 'NONE',  ( 0.000000000000000000, 0.000000000000000000, 0.000000000000000000 ) ) ;
#1136 = DIRECTION ( 'NONE',  ( 1.000000000000000000, -0.000000000000000000, 0.000000000000000000 ) ) ;
#1137 = ORIENTED_EDGE ( 'NONE', *, *, #117, .T. ) ;
#1138 = DIRECTION ( 'NONE',  ( 1.000000000000000000, 0.000000000000000000, 0.000000000000000000 ) ) ;
#1139 = EDGE_LOOP ( 'NONE', ( #1022, #962, #1108, #537 ) ) ;
#1140 = CARTESIAN_POINT ( 'NONE',  ( -23.99999999999999645, 13.00000000000000533, 2.000000000000000000 ) ) ;
#1141 = ADVANCED_FACE ( 'NONE', ( #314 ), #802, .T. ) ;
#1142 = DIRECTION ( 'NONE',  ( 0.000000000000000000, -0.000000000000000000, -1.000000000000000000 ) ) ;
#1143 = ORIENTED_EDGE ( 'NONE', *, *, #89, .F. ) ;
#1144 = ORIENTED_EDGE ( 'NONE', *, *, #1065, .T. ) ;
#1145 = CARTESIAN_POINT ( 'NONE',  ( 27.00000000000000355, 16.00000000000000000, 2.000000000000000000 ) ) ;
#1146 = EDGE_CURVE ( 'NONE', #600, #134, #622, .T. ) ;
#1147 = EDGE_CURVE ( 'NONE', #1035, #629, #304, .T. ) ;
#1148 = CARTESIAN_POINT ( 'NONE',  ( 27.00000000000000355, -5.000000000000000888, 6.999999999999999112 ) ) ;
#1149 = ORIENTED_EDGE ( 'NONE', *, *, #697, .T. ) ;
#1150 = EDGE_CURVE ( 'NONE', #51, #641, #984, .T. ) ;
#1151 = VERTEX_POINT ( 'NONE', #45 ) ;
#1152 = DIRECTION ( 'NONE',  ( 0.000000000000000000, 0.000000000000000000, -1.000000000000000000 ) ) ;
#1153 = LINE ( 'NONE', #268, #647 ) ;
#1154 = CIRCLE ( 'NONE', #899, 1.000000000000000888 ) ;
#1155 = ORIENTED_EDGE ( 'NONE', *, *, #46, .F. ) ;
#1156 = VECTOR ( 'NONE', #587, 1000.000000000000000 ) ;
#1157 = DIRECTION ( 'NONE',  ( 1.000000000000000000, 0.000000000000000000, 0.000000000000000000 ) ) ;
#1158 = ORIENTED_EDGE ( 'NONE', *, *, #288, .F. ) ;
#1159 = CARTESIAN_POINT ( 'NONE',  ( 24.99999999999999289, 15.00000000000000000, 2.000000000000001776 ) ) ;
#1160 = VECTOR ( 'NONE', #900, 1000.000000000000000 ) ;
#1161 = LINE ( 'NONE', #294, #1160 ) ;
ENDSEC;
END-ISO-10303-21;
