ISO-10303-21;
HEADER;
FILE_DESCRIPTION (( 'STEP AP214' ),
    '1' );
FILE_NAME ('esp_transmittor_case.STEP',
    '2026-09-26T12:14:39',
    ( '' ),
    ( '' ),
    'SwSTEP 2.0',
    'SolidWorks 2026',
    '' );
FILE_SCHEMA (( 'AUTOMOTIVE_DESIGN' ));
ENDSEC;

DATA;
#1 = DIRECTION ( 'NONE',  ( -1.000000000000000000, 0.000000000000000000, 0.000000000000000000 ) ) ;
#2 = ORIENTED_EDGE ( 'NONE', *, *, #1016, .T. ) ;
#3 = CARTESIAN_POINT ( 'NONE',  ( -25.00000000000001066, 11.25000000000000000, 2.000000000000000000 ) ) ;
#4 = LINE ( 'NONE', #737, #419 ) ;
#5 = ADVANCED_FACE ( 'NONE', ( #939 ), #189, .T. ) ;
#6 = DIRECTION ( 'NONE',  ( -0.000000000000000000, -0.000000000000000000, -1.000000000000000000 ) ) ;
#7 = CARTESIAN_POINT ( 'NONE',  ( -26.00000000000000355, 15.00000000000000000, 2.000000000000000000 ) ) ;
#8 = ORIENTED_EDGE ( 'NONE', *, *, #670, .F. ) ;
#9 = CARTESIAN_POINT ( 'NONE',  ( -25.00223357993574425, -11.25000000000000178, 2.000000000000000000 ) ) ;
#10 = DIRECTION ( 'NONE',  ( 0.000000000000000000, -1.000000000000000000, 0.000000000000000000 ) ) ;
#11 = EDGE_CURVE ( 'NONE', #769, #527, #25, .T. ) ;
#12 = CARTESIAN_POINT ( 'NONE',  ( -25.00396715987147545, -15.00000000000000000, 12.00000000000000000 ) ) ;
#13 = ORIENTED_EDGE ( 'NONE', *, *, #18, .F. ) ;
#14 = DIRECTION ( 'NONE',  ( 0.000000000000000000, -0.000000000000000000, 1.000000000000000000 ) ) ;
#15 = CIRCLE ( 'NONE', #69, 1.000000000000000888 ) ;
#16 = DIRECTION ( 'NONE',  ( 1.000000000000000000, 0.000000000000000000, 0.000000000000000000 ) ) ;
#17 = ORIENTED_EDGE ( 'NONE', *, *, #209, .T. ) ;
#18 = EDGE_CURVE ( 'NONE', #722, #716, #460, .T. ) ;
#19 = CLOSED_SHELL ( 'NONE', ( #201, #342, #116, #423, #235, #252, #690, #230, #50, #379, #104, #363, #463, #796, #543, #550, #399, #923, #571, #578, #620, #807, #136, #346, #272, #5, #700, #768, #164, #738, #525, #242, #791 ) ) ;
#20 = DIRECTION ( 'NONE',  ( 0.000000000000000000, 1.000000000000000000, 0.000000000000000000 ) ) ;
#21 = CARTESIAN_POINT ( 'NONE',  ( -25.00396715987147545, -15.00000000000000000, 2.000000000000000000 ) ) ;
#22 = ORIENTED_EDGE ( 'NONE', *, *, #95, .F. ) ;
#23 = EDGE_CURVE ( 'NONE', #716, #681, #876, .T. ) ;
#24 = DIRECTION ( 'NONE',  ( -0.000000000000000000, -0.000000000000000000, -1.000000000000000000 ) ) ;
#25 = LINE ( 'NONE', #113, #888 ) ;
#26 = ORIENTED_EDGE ( 'NONE', *, *, #827, .F. ) ;
#27 = DIRECTION ( 'NONE',  ( 1.000000000000000000, -0.000000000000000000, -0.000000000000000000 ) ) ;
#28 = CIRCLE ( 'NONE', #350, 1.000000000000000888 ) ;
#29 = DIRECTION ( 'NONE',  ( 0.000000000000000000, 0.000000000000000000, 1.000000000000000000 ) ) ;
#30 = VERTEX_POINT ( 'NONE', #72 ) ;
#31 = ORIENTED_EDGE ( 'NONE', *, *, #723, .T. ) ;
#32 = FACE_OUTER_BOUND ( 'NONE', #218, .T. ) ;
#33 =( NAMED_UNIT ( * ) PLANE_ANGLE_UNIT ( ) SI_UNIT ( $, .RADIAN. ) );
#34 = EDGE_CURVE ( 'NONE', #946, #756, #710, .T. ) ;
#35 = EDGE_LOOP ( 'NONE', ( #788, #258, #763, #591 ) ) ;
#36 = ORIENTED_EDGE ( 'NONE', *, *, #99, .F. ) ;
#37 = CARTESIAN_POINT ( 'NONE',  ( -25.00000000000001066, -12.91666666666666607, 2.000000000000000000 ) ) ;
#38 = LINE ( 'NONE', #618, #64 ) ;
#39 = VECTOR ( 'NONE', #660, 1000.000000000000000 ) ;
#40 = APPLICATION_PROTOCOL_DEFINITION ( 'draft international standard', 'automotive_design', 1998, #606 ) ;
#41 = EDGE_LOOP ( 'NONE', ( #688, #168, #882, #749 ) ) ;
#42 = EDGE_CURVE ( 'NONE', #187, #461, #969, .T. ) ;
#43 = ORIENTED_EDGE ( 'NONE', *, *, #583, .T. ) ;
#44 = CARTESIAN_POINT ( 'NONE',  ( -25.00396715987147545, -15.00000000000000000, 2.000000000000000000 ) ) ;
#45 = DIRECTION ( 'NONE',  ( -1.000000000000000000, 0.000000000000000000, 0.000000000000000000 ) ) ;
#46 = PLANE ( 'NONE',  #943 ) ;
#47 = ORIENTED_EDGE ( 'NONE', *, *, #1052, .F. ) ;
#48 = VERTEX_POINT ( 'NONE', #67 ) ;
#49 = ORIENTED_EDGE ( 'NONE', *, *, #453, .T. ) ;
#50 = ADVANCED_FACE ( 'NONE', ( #792 ), #1026, .T. ) ;
#51 = FACE_OUTER_BOUND ( 'NONE', #970, .T. ) ;
#52 = DIRECTION ( 'NONE',  ( 0.000000000000000000, -0.000000000000000000, -1.000000000000000000 ) ) ;
#53 = VECTOR ( 'NONE', #496, 1000.000000000000000 ) ;
#54 = SURFACE_STYLE_FILL_AREA ( #71 ) ;
#55 = CARTESIAN_POINT ( 'NONE',  ( 0.000000000000000000, 0.000000000000000000, 2.000000000000000000 ) ) ;
#56 = VERTEX_POINT ( 'NONE', #863 ) ;
#57 = FACE_OUTER_BOUND ( 'NONE', #41, .T. ) ;
#58 = DIRECTION ( 'NONE',  ( -0.000000000000000000, -0.000000000000000000, -1.000000000000000000 ) ) ;
#59 = EDGE_CURVE ( 'NONE', #510, #307, #786, .T. ) ;
#60 = DIRECTION ( 'NONE',  ( 1.000000000000000000, 0.000000000000000000, 0.000000000000000000 ) ) ;
#61 = CARTESIAN_POINT ( 'NONE',  ( 24.99999999999999645, 12.08333333333333393, 2.000000000000000000 ) ) ;
#62 = EDGE_LOOP ( 'NONE', ( #608, #110, #669, #772 ) ) ;
#63 = VECTOR ( 'NONE', #98, 1000.000000000000000 ) ;
#64 = VECTOR ( 'NONE', #707, 1000.000000000000000 ) ;
#65 = CARTESIAN_POINT ( 'NONE',  ( 25.99999999999999645, 3.593671109584189782, 9.000000000000001776 ) ) ;
#66 = SURFACE_SIDE_STYLE ('',( #54 ) ) ;
#67 = CARTESIAN_POINT ( 'NONE',  ( 25.99999999999999645, 3.593671109584188894, 4.000000000000000000 ) ) ;
#68 = ORIENTED_EDGE ( 'NONE', *, *, #1000, .T. ) ;
#69 = AXIS2_PLACEMENT_3D ( 'NONE', #559, #85, #244 ) ;
#70 = DIRECTION ( 'NONE',  ( -1.000000000000000000, -0.000000000000000000, -0.000000000000000000 ) ) ;
#71 = FILL_AREA_STYLE ('',( #631 ) ) ;
#72 = CARTESIAN_POINT ( 'NONE',  ( 24.99999999999998224, 16.00000000000000000, 0.000000000000000000 ) ) ;
#73 = EDGE_CURVE ( 'NONE', #461, #829, #610, .T. ) ;
#74 = VECTOR ( 'NONE', #146, 1000.000000000000000 ) ;
#75 = CARTESIAN_POINT ( 'NONE',  ( -25.00000000000001066, 12.08333333333333393, 2.000000000000000000 ) ) ;
#76 = PLANE ( 'NONE',  #593 ) ;
#77 = CIRCLE ( 'NONE', #212, 1.000000000000000888 ) ;
#78 = PRODUCT_DEFINITION_SHAPE ( 'NONE', 'NONE',  #1038 ) ;
#79 = DIRECTION ( 'NONE',  ( -1.000000000000000000, -0.000000000000000000, -0.000000000000000000 ) ) ;
#80 = LINE ( 'NONE', #179, #662 ) ;
#81 = CYLINDRICAL_SURFACE ( 'NONE', #446, 1.000000000000000000 ) ;
#82 = ORIENTED_EDGE ( 'NONE', *, *, #556, .T. ) ;
#83 = CARTESIAN_POINT ( 'NONE',  ( 24.99999999999999289, 15.00000000000000000, 12.00000000000000000 ) ) ;
#84 = LINE ( 'NONE', #94, #327 ) ;
#85 = DIRECTION ( 'NONE',  ( -0.000000000000000000, 0.000000000000000000, 1.000000000000000000 ) ) ;
#86 = AXIS2_PLACEMENT_3D ( 'NONE', #175, #576, #904 ) ;
#87 = ORIENTED_EDGE ( 'NONE', *, *, #732, .T. ) ;
#88 = AXIS2_PLACEMENT_3D ( 'NONE', #103, #336, #585 ) ;
#89 = EDGE_CURVE ( 'NONE', #48, #191, #945, .T. ) ;
#90 = CARTESIAN_POINT ( 'NONE',  ( 15.99999999999999289, -4.406328890415810662, 7.999999999999998224 ) ) ;
#91 = CARTESIAN_POINT ( 'NONE',  ( 24.99999999999999289, -15.00000000000000000, 0.000000000000000000 ) ) ;
#92 = VERTEX_POINT ( 'NONE', #703 ) ;
#93 = FACE_BOUND ( 'NONE', #641, .T. ) ;
#94 = CARTESIAN_POINT ( 'NONE',  ( -26.00000000000000355, -16.00000000000000000, 0.000000000000000000 ) ) ;
#95 = EDGE_CURVE ( 'NONE', #333, #478, #1032, .T. ) ;
#96 = DIRECTION ( 'NONE',  ( 0.000000000000000000, -0.000000000000000000, -1.000000000000000000 ) ) ;
#97 = VERTEX_POINT ( 'NONE', #557 ) ;
#98 = DIRECTION ( 'NONE',  ( -0.000000000000000000, -0.000000000000000000, -1.000000000000000000 ) ) ;
#99 = EDGE_CURVE ( 'NONE', #813, #697, #886, .T. ) ;
#100 = LINE ( 'NONE', #343, #404 ) ;
#101 = ORIENTED_EDGE ( 'NONE', *, *, #11, .T. ) ;
#102 = LINE ( 'NONE', #107, #834 ) ;
#103 = CARTESIAN_POINT ( 'NONE',  ( -26.00000000000000355, 16.00000000000000000, 2.000000000000000000 ) ) ;
#104 = ADVANCED_FACE ( 'NONE', ( #1039 ), #780, .T. ) ;
#105 = CIRCLE ( 'NONE', #870, 1.000000000000000888 ) ;
#106 = EDGE_LOOP ( 'NONE', ( #26, #125, #952, #431, #22, #683, #426, #269 ) ) ;
#107 = CARTESIAN_POINT ( 'NONE',  ( 25.99999999999999645, -4.406328890415810662, 3.999999999999999112 ) ) ;
#108 = DIRECTION ( 'NONE',  ( -1.000000000000000000, 0.000000000000000000, 0.000000000000000000 ) ) ;
#109 = COLOUR_RGB ( '',0.7921568627450980005, 0.8196078431372548767, 0.9333333333333333481 ) ;
#110 = ORIENTED_EDGE ( 'NONE', *, *, #393, .T. ) ;
#111 = DIRECTION ( 'NONE',  ( 0.000000000000000000, 0.000000000000000000, -1.000000000000000000 ) ) ;
#112 = VECTOR ( 'NONE', #789, 1000.000000000000000 ) ;
#113 = CARTESIAN_POINT ( 'NONE',  ( -25.00000000000001066, -11.25000000000000000, 0.000000000000000000 ) ) ;
#114 = ORIENTED_EDGE ( 'NONE', *, *, #155, .F. ) ;
#115 = LINE ( 'NONE', #1013, #63 ) ;
#116 = ADVANCED_FACE ( 'NONE', ( #1049 ), #957, .T. ) ;
#117 = CIRCLE ( 'NONE', #304, 1.000000000000000000 ) ;
#118 = CARTESIAN_POINT ( 'NONE',  ( 24.99999999999999289, 15.00000000000000000, 2.000000000000000000 ) ) ;
#119 = ORIENTED_EDGE ( 'NONE', *, *, #471, .F. ) ;
#120 = CARTESIAN_POINT ( 'NONE',  ( 25.00396715987148255, 4.593671109584190226, 5.000000000000000000 ) ) ;
#121 = LINE ( 'NONE', #765, #381 ) ;
#122 = EDGE_CURVE ( 'NONE', #361, #519, #373, .T. ) ;
#123 =( LENGTH_UNIT ( ) NAMED_UNIT ( * ) SI_UNIT ( .MILLI., .METRE. ) );
#124 = ORIENTED_EDGE ( 'NONE', *, *, #723, .F. ) ;
#125 = ORIENTED_EDGE ( 'NONE', *, *, #216, .T. ) ;
#126 = PLANE ( 'NONE',  #403 ) ;
#127 = FACE_OUTER_BOUND ( 'NONE', #1015, .T. ) ;
#128 = AXIS2_PLACEMENT_3D ( 'NONE', #83, #718, #554 ) ;
#129 = ORIENTED_EDGE ( 'NONE', *, *, #857, .F. ) ;
#130 = DIRECTION ( 'NONE',  ( -1.000000000000000000, -2.775557561562890957E-15, 0.000000000000000000 ) ) ;
#131 = LINE ( 'NONE', #144, #815 ) ;
#132 = CARTESIAN_POINT ( 'NONE',  ( -25.00000000000001421, 13.75000000000000000, 0.000000000000000000 ) ) ;
#133 = AXIS2_PLACEMENT_3D ( 'NONE', #604, #860, #866 ) ;
#134 = DIRECTION ( 'NONE',  ( -0.000000000000000000, -1.000000000000000000, 0.000000000000000000 ) ) ;
#135 = ORIENTED_EDGE ( 'NONE', *, *, #917, .T. ) ;
#136 = ADVANCED_FACE ( 'NONE', ( #217 ), #532, .F. ) ;
#137 = DIRECTION ( 'NONE',  ( 1.000000000000000000, 0.000000000000000000, -0.000000000000000000 ) ) ;
#138 = CARTESIAN_POINT ( 'NONE',  ( 25.00396715987148255, -5.406328890415811550, 4.999999999999999112 ) ) ;
#139 = CARTESIAN_POINT ( 'NONE',  ( 25.99999999999999645, -5.406328890415810662, 7.999999999999998224 ) ) ;
#140 = UNCERTAINTY_MEASURE_WITH_UNIT (LENGTH_MEASURE( 1.000000000000000082E-05 ), #524, 'distance_accuracy_value', 'NONE');
#141 = CARTESIAN_POINT ( 'NONE',  ( 25.00396715987148255, -5.406328890415811550, 4.999999999999999112 ) ) ;
#142 = VERTEX_POINT ( 'NONE', #464 ) ;
#143 = ORIENTED_EDGE ( 'NONE', *, *, #614, .T. ) ;
#144 = CARTESIAN_POINT ( 'NONE',  ( 25.99999999999999645, 4.593671109584190226, 9.000000000000001776 ) ) ;
#145 =( NAMED_UNIT ( * ) PLANE_ANGLE_UNIT ( ) SI_UNIT ( $, .RADIAN. ) );
#146 = DIRECTION ( 'NONE',  ( -0.000000000000000000, 1.000000000000000000, -0.000000000000000000 ) ) ;
#147 = ORIENTED_EDGE ( 'NONE', *, *, #357, .F. ) ;
#148 = LINE ( 'NONE', #642, #910 ) ;
#149 = EDGE_CURVE ( 'NONE', #958, #616, #314, .T. ) ;
#150 = CARTESIAN_POINT ( 'NONE',  ( -25.00000000000001421, 13.75000000000000000, 2.000000000000000000 ) ) ;
#151 = ORIENTED_EDGE ( 'NONE', *, *, #912, .F. ) ;
#152 = AXIS2_PLACEMENT_3D ( 'NONE', #487, #480, #891 ) ;
#153 = CARTESIAN_POINT ( 'NONE',  ( -25.00396715987147545, 15.00000000000000178, 12.00000000000000000 ) ) ;
#154 = CARTESIAN_POINT ( 'NONE',  ( 25.00223357993574425, -13.75000000000000000, 2.000000000000000000 ) ) ;
#155 = EDGE_CURVE ( 'NONE', #865, #510, #776, .T. ) ;
#156 = CARTESIAN_POINT ( 'NONE',  ( 25.00396715987148255, 3.593671109584189782, 8.000000000000000000 ) ) ;
#157 = AXIS2_PLACEMENT_3D ( 'NONE', #621, #950, #223 ) ;
#158 = EDGE_LOOP ( 'NONE', ( #767, #507, #281, #664 ) ) ;
#159 = FACE_OUTER_BOUND ( 'NONE', #978, .T. ) ;
#160 = CARTESIAN_POINT ( 'NONE',  ( -25.00000000000001066, -13.75000000000000000, 0.000000000000000000 ) ) ;
#161 = LINE ( 'NONE', #742, #274 ) ;
#162 = DIRECTION ( 'NONE',  ( 0.000000000000000000, -1.734723475976807094E-16, -1.000000000000000000 ) ) ;
#163 = DIRECTION ( 'NONE',  ( 1.000000000000000000, 0.000000000000000000, 0.000000000000000000 ) ) ;
#164 = ADVANCED_FACE ( 'NONE', ( #639 ), #243, .T. ) ;
#165 = EDGE_LOOP ( 'NONE', ( #514, #432, #8, #205 ) ) ;
#166 = FACE_OUTER_BOUND ( 'NONE', #465, .T. ) ;
#167 = CARTESIAN_POINT ( 'NONE',  ( 25.00396715987148255, -4.406328890415810662, 9.000000000000000000 ) ) ;
#168 = ORIENTED_EDGE ( 'NONE', *, *, #892, .F. ) ;
#169 = VECTOR ( 'NONE', #359, 1000.000000000000000 ) ;
#170 = EDGE_CURVE ( 'NONE', #267, #769, #975, .T. ) ;
#171 = MANIFOLD_SOLID_BREP ( 'Fillet8', #19 ) ;
#172 = DIRECTION ( 'NONE',  ( -0.000000000000000000, -0.000000000000000000, 1.000000000000000000 ) ) ;
#173 = FACE_OUTER_BOUND ( 'NONE', #409, .T. ) ;
#174 = LINE ( 'NONE', #823, #203 ) ;
#175 = CARTESIAN_POINT ( 'NONE',  ( 25.99999999999999645, 3.593671109584189782, 8.000000000000000000 ) ) ;
#176 = ORIENTED_EDGE ( 'NONE', *, *, #393, .F. ) ;
#177 = LINE ( 'NONE', #335, #736 ) ;
#178 = EDGE_CURVE ( 'NONE', #307, #374, #293, .T. ) ;
#179 = CARTESIAN_POINT ( 'NONE',  ( 25.00396715987148255, -15.00000000000000000, 12.00000000000000000 ) ) ;
#180 = DIRECTION ( 'NONE',  ( 0.000000000000000000, 0.000000000000000000, -1.000000000000000000 ) ) ;
#181 = PRODUCT ( 'esp_transmittor_case', 'esp_transmittor_case', '', ( #849 ) ) ;
#182 = VECTOR ( 'NONE', #311, 1000.000000000000000 ) ;
#183 = ORIENTED_EDGE ( 'NONE', *, *, #1006, .T. ) ;
#184 = LINE ( 'NONE', #920, #921 ) ;
#185 = EDGE_CURVE ( 'NONE', #388, #97, #790, .T. ) ;
#186 = LINE ( 'NONE', #494, #481 ) ;
#187 = VERTEX_POINT ( 'NONE', #299 ) ;
#188 = DIRECTION ( 'NONE',  ( 1.000000000000000000, 0.000000000000000000, 0.000000000000000000 ) ) ;
#189 = CYLINDRICAL_SURFACE ( 'NONE', #800, 1.000000000000000888 ) ;
#190 = AXIS2_PLACEMENT_3D ( 'NONE', #434, #20, #14 ) ;
#191 = VERTEX_POINT ( 'NONE', #961 ) ;
#192 = DIRECTION ( 'NONE',  ( 1.000000000000000000, 0.000000000000000000, 0.000000000000000000 ) ) ;
#193 = ORIENTED_EDGE ( 'NONE', *, *, #679, .T. ) ;
#194 = ORIENTED_EDGE ( 'NONE', *, *, #892, .T. ) ;
#195 = EDGE_CURVE ( 'NONE', #478, #616, #875, .T. ) ;
#196 = CARTESIAN_POINT ( 'NONE',  ( -25.00000000000001421, 13.75000000000000000, 0.000000000000000000 ) ) ;
#197 = AXIS2_PLACEMENT_3D ( 'NONE', #1010, #915, #188 ) ;
#198 = AXIS2_PLACEMENT_3D ( 'NONE', #867, #942, #52 ) ;
#199 = ORIENTED_EDGE ( 'NONE', *, *, #993, .F. ) ;
#200 = VERTEX_POINT ( 'NONE', #619 ) ;
#201 = ADVANCED_FACE ( 'NONE', ( #856 ), #215, .T. ) ;
#202 = CARTESIAN_POINT ( 'NONE',  ( -26.00000000000000355, -15.00000000000000000, 0.000000000000000000 ) ) ;
#203 = VECTOR ( 'NONE', #743, 1000.000000000000000 ) ;
#204 = ORIENTED_EDGE ( 'NONE', *, *, #337, .T. ) ;
#205 = ORIENTED_EDGE ( 'NONE', *, *, #439, .T. ) ;
#206 = CARTESIAN_POINT ( 'NONE',  ( -26.00000000000000355, 16.00000000000000000, 0.000000000000000000 ) ) ;
#207 = DIRECTION ( 'NONE',  ( 0.000000000000000000, 0.000000000000000000, 1.000000000000000000 ) ) ;
#208 = AXIS2_PLACEMENT_3D ( 'NONE', #55, #300, #963 ) ;
#209 = EDGE_CURVE ( 'NONE', #634, #851, #868, .T. ) ;
#210 = ORIENTED_EDGE ( 'NONE', *, *, #656, .F. ) ;
#211 = ORIENTED_EDGE ( 'NONE', *, *, #1006, .F. ) ;
#212 = AXIS2_PLACEMENT_3D ( 'NONE', #378, #627, #708 ) ;
#213 = DIRECTION ( 'NONE',  ( -1.000000000000000000, -0.000000000000000000, -0.000000000000000000 ) ) ;
#214 = PLANE ( 'NONE',  #1035 ) ;
#215 = PLANE ( 'NONE',  #997 ) ;
#216 = EDGE_CURVE ( 'NONE', #1059, #931, #77, .T. ) ;
#217 = FACE_OUTER_BOUND ( 'NONE', #362, .T. ) ;
#218 = EDGE_LOOP ( 'NONE', ( #445, #1044, #382, #1020 ) ) ;
#219 = EDGE_LOOP ( 'NONE', ( #887, #598, #609, #135 ) ) ;
#220 = CARTESIAN_POINT ( 'NONE',  ( 25.00223357993574069, 13.75000000000000000, 2.000000000000000000 ) ) ;
#221 = LINE ( 'NONE', #226, #1003 ) ;
#222 = SURFACE_STYLE_USAGE ( .BOTH. , #66 ) ;
#223 = DIRECTION ( 'NONE',  ( 0.000000000000000000, -1.734723475976807094E-16, -1.000000000000000000 ) ) ;
#224 = ORIENTED_EDGE ( 'NONE', *, *, #533, .T. ) ;
#225 = DIRECTION ( 'NONE',  ( 0.000000000000000000, 0.000000000000000000, 1.000000000000000000 ) ) ;
#226 = CARTESIAN_POINT ( 'NONE',  ( -25.00000000000001066, -13.75000000000000000, 0.000000000000000000 ) ) ;
#227 = PRESENTATION_STYLE_ASSIGNMENT (( #222 ) ) ;
#228 = CARTESIAN_POINT ( 'NONE',  ( -25.00396715987147545, -15.00000000000000000, 12.00000000000000000 ) ) ;
#229 = ORIENTED_EDGE ( 'NONE', *, *, #650, .F. ) ;
#230 = ADVANCED_FACE ( 'NONE', ( #531 ), #46, .F. ) ;
#231 = CARTESIAN_POINT ( 'NONE',  ( -25.00000000000000000, 16.00000000000000000, 0.000000000000000000 ) ) ;
#232 = CARTESIAN_POINT ( 'NONE',  ( -25.99999999999999645, -16.00000000000000000, 12.00000000000000000 ) ) ;
#233 = ORIENTED_EDGE ( 'NONE', *, *, #195, .F. ) ;
#234 = CARTESIAN_POINT ( 'NONE',  ( 25.00396715987148255, 15.00000000000000178, 4.000000000000001776 ) ) ;
#235 = ADVANCED_FACE ( 'NONE', ( #390, #256 ), #907, .F. ) ;
#236 = DIRECTION ( 'NONE',  ( 1.000000000000000000, 0.000000000000000000, 0.000000000000000000 ) ) ;
#237 = CARTESIAN_POINT ( 'NONE',  ( 25.99999999999999645, 16.00000000000000000, 0.000000000000000000 ) ) ;
#238 = ORIENTED_EDGE ( 'NONE', *, *, #614, .F. ) ;
#239 = DIRECTION ( 'NONE',  ( -0.000000000000000000, -0.000000000000000000, -1.000000000000000000 ) ) ;
#240 = DIRECTION ( 'NONE',  ( -0.000000000000000000, -0.000000000000000000, -1.000000000000000000 ) ) ;
#241 = AXIS2_PLACEMENT_3D ( 'NONE', #674, #678, #596 ) ;
#242 = ADVANCED_FACE ( 'NONE', ( #166 ), #816, .F. ) ;
#243 = CYLINDRICAL_SURFACE ( 'NONE', #1030, 1.000000000000000888 ) ;
#244 = DIRECTION ( 'NONE',  ( 1.000000000000000000, 0.000000000000000000, 0.000000000000000000 ) ) ;
#245 = VECTOR ( 'NONE', #134, 1000.000000000000000 ) ;
#246 = DIRECTION ( 'NONE',  ( -1.000000000000000000, 0.000000000000000000, 0.000000000000000000 ) ) ;
#247 = EDGE_LOOP ( 'NONE', ( #852, #597, #542, #774 ) ) ;
#248 = CARTESIAN_POINT ( 'NONE',  ( -25.00000000000001421, 13.75000000000000000, 2.000000000000000000 ) ) ;
#249 = DIRECTION ( 'NONE',  ( -0.000000000000000000, 0.000000000000000000, 1.000000000000000000 ) ) ;
#250 = MECHANICAL_DESIGN_GEOMETRIC_PRESENTATION_REPRESENTATION (  '', ( #893 ), #855 ) ;
#251 = CARTESIAN_POINT ( 'NONE',  ( -25.00000000000001066, 11.25000000000000000, 0.000000000000000000 ) ) ;
#252 = ADVANCED_FACE ( 'NONE', ( #407 ), #486, .F. ) ;
#253 = ORIENTED_EDGE ( 'NONE', *, *, #635, .F. ) ;
#254 = CARTESIAN_POINT ( 'NONE',  ( 25.00396715987148255, 15.00000000000000178, 12.00000000000000000 ) ) ;
#255 = VECTOR ( 'NONE', #801, 1000.000000000000000 ) ;
#256 = FACE_OUTER_BOUND ( 'NONE', #158, .T. ) ;
#257 = DIRECTION ( 'NONE',  ( 0.000000000000000000, 0.000000000000000000, -1.000000000000000000 ) ) ;
#258 = ORIENTED_EDGE ( 'NONE', *, *, #89, .F. ) ;
#259 = CIRCLE ( 'NONE', #575, 0.9999999999999991118 ) ;
#260 = CARTESIAN_POINT ( 'NONE',  ( 25.00000000000000000, -12.08333333333333393, 2.000000000000000000 ) ) ;
#261 = DIRECTION ( 'NONE',  ( 0.000000000000000000, 1.000000000000000000, 0.000000000000000000 ) ) ;
#262 = ORIENTED_EDGE ( 'NONE', *, *, #814, .F. ) ;
#263 = EDGE_CURVE ( 'NONE', #958, #333, #4, .T. ) ;
#264 = PLANE ( 'NONE',  #503 ) ;
#265 = VECTOR ( 'NONE', #785, 1000.000000000000000 ) ;
#266 = LINE ( 'NONE', #7, #953 ) ;
#267 = VERTEX_POINT ( 'NONE', #986 ) ;
#268 = VERTEX_POINT ( 'NONE', #401 ) ;
#269 = ORIENTED_EDGE ( 'NONE', *, *, #326, .T. ) ;
#270 = VECTOR ( 'NONE', #1017, 1000.000000000000000 ) ;
#271 = LINE ( 'NONE', #925, #53 ) ;
#272 = ADVANCED_FACE ( 'NONE', ( #173 ), #76, .F. ) ;
#273 = ORIENTED_EDGE ( 'NONE', *, *, #34, .F. ) ;
#274 = VECTOR ( 'NONE', #10, 1000.000000000000000 ) ;
#275 = ORIENTED_EDGE ( 'NONE', *, *, #283, .T. ) ;
#276 = FACE_OUTER_BOUND ( 'NONE', #899, .T. ) ;
#277 = ORIENTED_EDGE ( 'NONE', *, *, #775, .T. ) ;
#278 = EDGE_CURVE ( 'NONE', #633, #142, #84, .T. ) ;
#279 = ORIENTED_EDGE ( 'NONE', *, *, #775, .F. ) ;
#280 = DIRECTION ( 'NONE',  ( 0.000000000000000000, 0.000000000000000000, 1.000000000000000000 ) ) ;
#281 = ORIENTED_EDGE ( 'NONE', *, *, #95, .T. ) ;
#282 = ORIENTED_EDGE ( 'NONE', *, *, #263, .F. ) ;
#283 = EDGE_CURVE ( 'NONE', #374, #1009, #177, .T. ) ;
#284 = DIRECTION ( 'NONE',  ( 1.000000000000000000, 0.000000000000000000, -0.000000000000000000 ) ) ;
#285 = CARTESIAN_POINT ( 'NONE',  ( 15.99999999999999289, 3.593671109584189782, 8.000000000000000000 ) ) ;
#286 = VERTEX_POINT ( 'NONE', #490 ) ;
#287 = ORIENTED_EDGE ( 'NONE', *, *, #679, .F. ) ;
#288 = VECTOR ( 'NONE', #240, 1000.000000000000000 ) ;
#289 = CARTESIAN_POINT ( 'NONE',  ( -25.00000000000001066, -11.25000000000000000, 0.000000000000000000 ) ) ;
#290 = PLANE ( 'NONE',  #198 ) ;
#291 = EDGE_CURVE ( 'NONE', #924, #722, #161, .T. ) ;
#292 = AXIS2_PLACEMENT_3D ( 'NONE', #547, #450, #456 ) ;
#293 = LINE ( 'NONE', #132, #805 ) ;
#294 = DIRECTION ( 'NONE',  ( -0.000000000000000000, 1.000000000000000000, -0.000000000000000000 ) ) ;
#295 = ORIENTED_EDGE ( 'NONE', *, *, #170, .T. ) ;
#296 = AXIS2_PLACEMENT_3D ( 'NONE', #1048, #968, #467 ) ;
#297 = CARTESIAN_POINT ( 'NONE',  ( 24.99999999999999289, -16.00000000000000000, 12.00000000000000000 ) ) ;
#298 = LINE ( 'NONE', #874, #112 ) ;
#299 = CARTESIAN_POINT ( 'NONE',  ( 25.99999999999999645, 4.593671109584190226, 8.000000000000000000 ) ) ;
#300 = DIRECTION ( 'NONE',  ( -0.000000000000000000, 0.000000000000000000, 1.000000000000000000 ) ) ;
#301 = ORIENTED_EDGE ( 'NONE', *, *, #635, .T. ) ;
#302 = DIRECTION ( 'NONE',  ( -1.000000000000000000, 0.000000000000000000, 0.000000000000000000 ) ) ;
#303 = CARTESIAN_POINT ( 'NONE',  ( 25.00223357993574425, 11.25000000000000000, 2.000000000000000000 ) ) ;
#304 = AXIS2_PLACEMENT_3D ( 'NONE', #954, #246, #225 ) ;
#305 = CARTESIAN_POINT ( 'NONE',  ( 24.99999999999999645, 12.91666666666666607, 2.000000000000000000 ) ) ;
#306 = EDGE_CURVE ( 'NONE', #711, #769, #884, .T. ) ;
#307 = VERTEX_POINT ( 'NONE', #661 ) ;
#308 = DIRECTION ( 'NONE',  ( 1.000000000000000000, 1.387778780781445478E-15, -0.000000000000000000 ) ) ;
#309 = ORIENTED_EDGE ( 'NONE', *, *, #732, .F. ) ;
#310 = EDGE_CURVE ( 'NONE', #30, #478, #1024, .T. ) ;
#311 = DIRECTION ( 'NONE',  ( -0.000000000000000000, -0.000000000000000000, -1.000000000000000000 ) ) ;
#312 = CARTESIAN_POINT ( 'NONE',  ( 24.99999999999999289, 15.00000000000000000, 0.000000000000000000 ) ) ;
#313 = VECTOR ( 'NONE', #1053, 1000.000000000000000 ) ;
#314 = LINE ( 'NONE', #541, #521 ) ;
#315 = ORIENTED_EDGE ( 'NONE', *, *, #428, .F. ) ;
#316 = CARTESIAN_POINT ( 'NONE',  ( 25.99999999999999645, -4.406328890415810662, 3.999999999999999112 ) ) ;
#317 = EDGE_CURVE ( 'NONE', #500, #711, #720, .T. ) ;
#318 = ADVANCED_BREP_SHAPE_REPRESENTATION ( 'esp_transmittor_case', ( #171, #497 ), #880 ) ;
#319 = DIRECTION ( 'NONE',  ( 1.000000000000000000, 0.000000000000000000, 0.000000000000000000 ) ) ;
#320 = VECTOR ( 'NONE', #819, 1000.000000000000000 ) ;
#321 = CARTESIAN_POINT ( 'NONE',  ( -25.00000000000000000, 15.00000000000000000, 2.000000000000000000 ) ) ;
#322 = CARTESIAN_POINT ( 'NONE',  ( 25.99999999999999645, 15.00000000000000000, 0.000000000000000000 ) ) ;
#323 = ORIENTED_EDGE ( 'NONE', *, *, #879, .T. ) ;
#324 = DIRECTION ( 'NONE',  ( 0.000000000000000000, -3.469446951953613696E-16, -1.000000000000000000 ) ) ;
#325 = DIRECTION ( 'NONE',  ( 1.000000000000000000, 0.000000000000000000, 0.000000000000000000 ) ) ;
#326 = EDGE_CURVE ( 'NONE', #633, #388, #976, .T. ) ;
#327 = VECTOR ( 'NONE', #822, 1000.000000000000000 ) ;
#328 = CARTESIAN_POINT ( 'NONE',  ( 25.00396715987148255, -15.00000000000000000, 12.00000000000000000 ) ) ;
#329 = ORIENTED_EDGE ( 'NONE', *, *, #485, .F. ) ;
#330 = CARTESIAN_POINT ( 'NONE',  ( -25.00000000000001421, 12.91666666666666607, 2.000000000000000000 ) ) ;
#331 = CARTESIAN_POINT ( 'NONE',  ( 25.99999999999999645, 16.00000000000000000, 2.000000000000000000 ) ) ;
#332 = DIRECTION ( 'NONE',  ( -1.000000000000000000, -0.000000000000000000, -0.000000000000000000 ) ) ;
#333 = VERTEX_POINT ( 'NONE', #476 ) ;
#334 = DIRECTION ( 'NONE',  ( 0.000000000000000000, 0.000000000000000000, 1.000000000000000000 ) ) ;
#335 = CARTESIAN_POINT ( 'NONE',  ( -25.00000000000001421, 13.75000000000000000, 0.000000000000000000 ) ) ;
#336 = DIRECTION ( 'NONE',  ( 1.000000000000000000, 0.000000000000000000, -0.000000000000000000 ) ) ;
#337 = EDGE_CURVE ( 'NONE', #840, #92, #105, .T. ) ;
#338 = ORIENTED_EDGE ( 'NONE', *, *, #748, .F. ) ;
#339 = VECTOR ( 'NONE', #324, 1000.000000000000000 ) ;
#340 = CARTESIAN_POINT ( 'NONE',  ( 25.00396715987148255, 15.00000000000000178, 9.000000000000003553 ) ) ;
#341 = ORIENTED_EDGE ( 'NONE', *, *, #556, .F. ) ;
#342 = ADVANCED_FACE ( 'NONE', ( #643 ), #810, .T. ) ;
#343 = CARTESIAN_POINT ( 'NONE',  ( 25.99999999999999645, 4.593671109584190226, 9.000000000000001776 ) ) ;
#344 = ORIENTED_EDGE ( 'NONE', *, *, #656, .T. ) ;
#345 = DIRECTION ( 'NONE',  ( 0.000000000000000000, -1.000000000000000000, 0.000000000000000000 ) ) ;
#346 = ADVANCED_FACE ( 'NONE', ( #649 ), #981, .F. ) ;
#347 = ORIENTED_EDGE ( 'NONE', *, *, #310, .F. ) ;
#348 = VECTOR ( 'NONE', #538, 1000.000000000000000 ) ;
#349 = ORIENTED_EDGE ( 'NONE', *, *, #974, .F. ) ;
#350 = AXIS2_PLACEMENT_3D ( 'NONE', #91, #96, #163 ) ;
#351 = CARTESIAN_POINT ( 'NONE',  ( 25.00396715987148255, 4.593671109584191115, 8.000000000000000000 ) ) ;
#352 = EDGE_CURVE ( 'NONE', #268, #990, #102, .T. ) ;
#353 = ORIENTED_EDGE ( 'NONE', *, *, #670, .T. ) ;
#354 = ORIENTED_EDGE ( 'NONE', *, *, #906, .T. ) ;
#355 = CARTESIAN_POINT ( 'NONE',  ( -25.00000000000001421, 13.75000000000000000, 2.000000000000000000 ) ) ;
#356 = EDGE_LOOP ( 'NONE', ( #1034, #473, #984, #210 ) ) ;
#357 = EDGE_CURVE ( 'NONE', #865, #1046, #666, .T. ) ;
#358 = ORIENTED_EDGE ( 'NONE', *, *, #428, .T. ) ;
#359 = DIRECTION ( 'NONE',  ( 1.000000000000000000, 0.000000000000000000, 0.000000000000000000 ) ) ;
#360 = DIRECTION ( 'NONE',  ( -1.000000000000000000, 0.000000000000000000, 0.000000000000000000 ) ) ;
#361 = VERTEX_POINT ( 'NONE', #746 ) ;
#362 = EDGE_LOOP ( 'NONE', ( #1008, #17, #183, #871 ) ) ;
#363 = ADVANCED_FACE ( 'NONE', ( #995 ), #830, .T. ) ;
#364 = LINE ( 'NONE', #447, #433 ) ;
#365 = ORIENTED_EDGE ( 'NONE', *, *, #967, .F. ) ;
#366 = ORIENTED_EDGE ( 'NONE', *, *, #122, .T. ) ;
#367 = VECTOR ( 'NONE', #24, 1000.000000000000000 ) ;
#368 = ORIENTED_EDGE ( 'NONE', *, *, #18, .T. ) ;
#369 = CARTESIAN_POINT ( 'NONE',  ( -25.00000000000001066, -13.75000000000000000, 2.000000000000000000 ) ) ;
#370 = LINE ( 'NONE', #545, #570 ) ;
#371 = VECTOR ( 'NONE', #551, 1000.000000000000000 ) ;
#372 = CARTESIAN_POINT ( 'NONE',  ( -26.00000000000000355, -15.00000000000000000, 2.000000000000000000 ) ) ;
#373 = LINE ( 'NONE', #232, #371 ) ;
#374 = VERTEX_POINT ( 'NONE', #196 ) ;
#375 = ORIENTED_EDGE ( 'NONE', *, *, #471, .T. ) ;
#376 = FACE_OUTER_BOUND ( 'NONE', #755, .T. ) ;
#377 = CARTESIAN_POINT ( 'NONE',  ( -25.00000000000000000, 16.00000000000000000, 12.00000000000000000 ) ) ;
#378 = CARTESIAN_POINT ( 'NONE',  ( -25.00000000000000000, 15.00000000000000000, 0.000000000000000000 ) ) ;
#379 = ADVANCED_FACE ( 'NONE', ( #32 ), #264, .T. ) ;
#380 = DIRECTION ( 'NONE',  ( 0.000000000000000000, -1.734723475976805517E-15, 1.000000000000000000 ) ) ;
#381 = VECTOR ( 'NONE', #1029, 1000.000000000000000 ) ;
#382 = ORIENTED_EDGE ( 'NONE', *, *, #951, .T. ) ;
#383 = DIRECTION ( 'NONE',  ( -0.000000000000000000, 0.000000000000000000, 1.000000000000000000 ) ) ;
#384 = VECTOR ( 'NONE', #213, 1000.000000000000000 ) ;
#385 = EDGE_CURVE ( 'NONE', #722, #640, #271, .T. ) ;
#386 = DIRECTION ( 'NONE',  ( -1.000000000000000000, -0.000000000000000000, -0.000000000000000000 ) ) ;
#387 = EDGE_LOOP ( 'NONE', ( #253, #457, #528, #435 ) ) ;
#388 = VERTEX_POINT ( 'NONE', #202 ) ;
#389 = DIRECTION ( 'NONE',  ( -0.000000000000000000, -0.000000000000000000, 1.000000000000000000 ) ) ;
#390 = FACE_BOUND ( 'NONE', #835, .T. ) ;
#391 = CARTESIAN_POINT ( 'NONE',  ( 24.99999999999999645, 13.75000000000000000, 2.000000000000000000 ) ) ;
#392 = ORIENTED_EDGE ( 'NONE', *, *, #453, .F. ) ;
#393 = EDGE_CURVE ( 'NONE', #1033, #500, #843, .T. ) ;
#394 = CARTESIAN_POINT ( 'NONE',  ( 24.99999999999999289, -16.00000000000000000, 2.000000000000000000 ) ) ;
#395 = DIRECTION ( 'NONE',  ( 0.000000000000000000, -0.000000000000000000, -1.000000000000000000 ) ) ;
#396 = CARTESIAN_POINT ( 'NONE',  ( 25.00396715987148255, 4.593671109584190226, 8.000000000000000000 ) ) ;
#397 = CARTESIAN_POINT ( 'NONE',  ( -25.00000000000001066, -11.25000000000000000, 0.000000000000000000 ) ) ;
#398 = ORIENTED_EDGE ( 'NONE', *, *, #59, .T. ) ;
#399 = ADVANCED_FACE ( 'NONE', ( #911, #682 ), #418, .T. ) ;
#400 = DIRECTION ( 'NONE',  ( -0.000000000000000000, -0.000000000000000000, -1.000000000000000000 ) ) ;
#401 = CARTESIAN_POINT ( 'NONE',  ( 25.00396715987148255, -4.406328890415809774, 4.000000000000000000 ) ) ;
#402 = AXIS2_PLACEMENT_3D ( 'NONE', #612, #45, #1023 ) ;
#403 = AXIS2_PLACEMENT_3D ( 'NONE', #537, #847, #941 ) ;
#404 = VECTOR ( 'NONE', #657, 1000.000000000000000 ) ;
#405 = LINE ( 'NONE', #744, #320 ) ;
#406 = ORIENTED_EDGE ( 'NONE', *, *, #583, .F. ) ;
#407 = FACE_OUTER_BOUND ( 'NONE', #165, .T. ) ;
#408 = CARTESIAN_POINT ( 'NONE',  ( 25.99999999999999645, 4.593671109584188450, 5.000000000000000000 ) ) ;
#409 = EDGE_LOOP ( 'NONE', ( #193, #1021, #581, #820 ) ) ;
#410 = CARTESIAN_POINT ( 'NONE',  ( -25.00396715987147545, 15.00000000000000178, 12.00000000000000000 ) ) ;
#411 = EDGE_CURVE ( 'NONE', #752, #813, #184, .T. ) ;
#412 = LINE ( 'NONE', #824, #626 ) ;
#413 = VERTEX_POINT ( 'NONE', #414 ) ;
#414 = CARTESIAN_POINT ( 'NONE',  ( 25.99999999999999645, -4.406328890415810662, 9.000000000000000000 ) ) ;
#415 = EDGE_CURVE ( 'NONE', #924, #813, #115, .T. ) ;
#416 = CARTESIAN_POINT ( 'NONE',  ( -25.00396715987147545, -15.00000000000000000, 12.00000000000000000 ) ) ;
#417 = ORIENTED_EDGE ( 'NONE', *, *, #352, .T. ) ;
#418 = PLANE ( 'NONE',  #781 ) ;
#419 = VECTOR ( 'NONE', #654, 1000.000000000000000 ) ;
#420 = DIRECTION ( 'NONE',  ( -1.000000000000000000, -0.000000000000000000, 0.000000000000000000 ) ) ;
#421 = AXIS2_PLACEMENT_3D ( 'NONE', #156, #714, #380 ) ;
#422 = VERTEX_POINT ( 'NONE', #750 ) ;
#423 = ADVANCED_FACE ( 'NONE', ( #599, #757, #930 ), #587, .F. ) ;
#424 = LINE ( 'NONE', #753, #938 ) ;
#425 = AXIS2_PLACEMENT_3D ( 'NONE', #90, #719, #973 ) ;
#426 = ORIENTED_EDGE ( 'NONE', *, *, #278, .F. ) ;
#427 = ORIENTED_EDGE ( 'NONE', *, *, #505, .F. ) ;
#428 = EDGE_CURVE ( 'NONE', #793, #829, #501, .T. ) ;
#429 = CARTESIAN_POINT ( 'NONE',  ( 25.00396715987148255, -4.406328890415810662, 4.999999999999999112 ) ) ;
#430 = DIRECTION ( 'NONE',  ( 1.000000000000000000, 0.000000000000000000, 0.000000000000000000 ) ) ;
#431 = ORIENTED_EDGE ( 'NONE', *, *, #310, .T. ) ;
#432 = ORIENTED_EDGE ( 'NONE', *, *, #936, .T. ) ;
#433 = VECTOR ( 'NONE', #611, 1000.000000000000000 ) ;
#434 = CARTESIAN_POINT ( 'NONE',  ( -25.00000000000001066, 11.25000000000000000, 2.000000000000000000 ) ) ;
#435 = ORIENTED_EDGE ( 'NONE', *, *, #357, .T. ) ;
#436 = VERTEX_POINT ( 'NONE', #762 ) ;
#437 = PLANE ( 'NONE',  #1058 ) ;
#438 = FACE_OUTER_BOUND ( 'NONE', #35, .T. ) ;
#439 = EDGE_CURVE ( 'NONE', #286, #30, #424, .T. ) ;
#440 = EDGE_LOOP ( 'NONE', ( #358, #918, #495, #858 ) ) ;
#441 = ORIENTED_EDGE ( 'NONE', *, *, #715, .F. ) ;
#442 = VECTOR ( 'NONE', #730, 1000.000000000000000 ) ;
#443 = DIRECTION ( 'NONE',  ( -0.000000000000000000, -0.000000000000000000, -1.000000000000000000 ) ) ;
#444 = CARTESIAN_POINT ( 'NONE',  ( 25.00396715987148255, -4.406328890415809774, 9.000000000000000000 ) ) ;
#445 = ORIENTED_EDGE ( 'NONE', *, *, #178, .F. ) ;
#446 = AXIS2_PLACEMENT_3D ( 'NONE', #645, #691, #686 ) ;
#447 = CARTESIAN_POINT ( 'NONE',  ( -25.00000000000001066, -11.25000000000000000, 2.000000000000000000 ) ) ;
#448 = B_SPLINE_CURVE_WITH_KNOTS ( 'NONE', 3,
 ( #475, #330, #75, #653 ),
 .UNSPECIFIED., .F., .F.,
 ( 4, 4 ),
 ( 0.000000000000000000, 1.000000000000000000 ),
 .UNSPECIFIED. ) ;
#449 = CARTESIAN_POINT ( 'NONE',  ( -25.00396715987147545, 15.00000000000000178, 2.000000000000000000 ) ) ;
#450 = DIRECTION ( 'NONE',  ( -1.000000000000000000, 0.000000000000000000, 0.000000000000000000 ) ) ;
#451 = ORIENTED_EDGE ( 'NONE', *, *, #291, .F. ) ;
#452 = VECTOR ( 'NONE', #512, 1000.000000000000000 ) ;
#453 = EDGE_CURVE ( 'NONE', #756, #268, #1040, .T. ) ;
#454 = DIRECTION ( 'NONE',  ( -0.000000000000000000, 0.000000000000000000, -1.000000000000000000 ) ) ;
#455 = DIRECTION ( 'NONE',  ( -1.000000000000000000, 0.000000000000000000, 0.000000000000000000 ) ) ;
#456 = DIRECTION ( 'NONE',  ( 0.000000000000000000, 0.000000000000000000, 1.000000000000000000 ) ) ;
#457 = ORIENTED_EDGE ( 'NONE', *, *, #879, .F. ) ;
#458 = CYLINDRICAL_SURFACE ( 'NONE', #675, 1.000000000000000888 ) ;
#459 = DIRECTION ( 'NONE',  ( 0.000000000000000000, -0.000000000000000000, 1.000000000000000000 ) ) ;
#460 = LINE ( 'NONE', #228, #667 ) ;
#461 = VERTEX_POINT ( 'NONE', #351 ) ;
#462 = CARTESIAN_POINT ( 'NONE',  ( -25.00000000000001066, -13.75000000000000000, 2.000000000000000000 ) ) ;
#463 = ADVANCED_FACE ( 'NONE', ( #276 ), #617, .T. ) ;
#464 = CARTESIAN_POINT ( 'NONE',  ( 24.99999999999998224, -16.00000000000000000, 0.000000000000000000 ) ) ;
#465 = EDGE_LOOP ( 'NONE', ( #798, #844, #119, #594 ) ) ;
#466 = DIRECTION ( 'NONE',  ( -0.000000000000000000, 1.000000000000000000, 8.673617379884035472E-17 ) ) ;
#467 = DIRECTION ( 'NONE',  ( 0.000000000000000000, -0.000000000000000000, -1.000000000000000000 ) ) ;
#468 = PRODUCT_DEFINITION_CONTEXT ( 'detailed design', #606, 'design' ) ;
#469 = CARTESIAN_POINT ( 'NONE',  ( 25.00396715987148255, 15.00000000000000178, 12.00000000000000000 ) ) ;
#470 = LINE ( 'NONE', #804, #795 ) ;
#471 = EDGE_CURVE ( 'NONE', #851, #413, #259, .T. ) ;
#472 = LINE ( 'NONE', #206, #384 ) ;
#473 = ORIENTED_EDGE ( 'NONE', *, *, #936, .F. ) ;
#474 = AXIS2_PLACEMENT_3D ( 'NONE', #331, #568, #638 ) ;
#475 = CARTESIAN_POINT ( 'NONE',  ( -25.00223357993574425, 13.74999999999999822, 2.000000000000000000 ) ) ;
#476 = CARTESIAN_POINT ( 'NONE',  ( 25.99999999999999645, -15.00000000000000000, 0.000000000000000000 ) ) ;
#477 = CARTESIAN_POINT ( 'NONE',  ( 24.99999999999999289, -15.00000000000000000, 2.000000000000000000 ) ) ;
#478 = VERTEX_POINT ( 'NONE', #322 ) ;
#479 = VECTOR ( 'NONE', #778, 1000.000000000000000 ) ;
#480 = DIRECTION ( 'NONE',  ( 1.000000000000000000, -0.000000000000000000, -0.000000000000000000 ) ) ;
#481 = VECTOR ( 'NONE', #831, 1000.000000000000000 ) ;
#482 = PLANE ( 'NONE',  #589 ) ;
#483 = EDGE_LOOP ( 'NONE', ( #295, #101, #224, #277 ) ) ;
#484 = LINE ( 'NONE', #821, #493 ) ;
#485 = EDGE_CURVE ( 'NONE', #990, #946, #117, .T. ) ;
#486 = PLANE ( 'NONE',  #296 ) ;
#487 = CARTESIAN_POINT ( 'NONE',  ( 25.00396715987148255, -4.406328890415810662, 7.999999999999998224 ) ) ;
#488 = FACE_OUTER_BOUND ( 'NONE', #971, .T. ) ;
#489 = ORIENTED_EDGE ( 'NONE', *, *, #715, .T. ) ;
#490 = CARTESIAN_POINT ( 'NONE',  ( 24.99999999999999289, 16.00000000000000000, 12.00000000000000000 ) ) ;
#491 = EDGE_CURVE ( 'NONE', #30, #931, #472, .T. ) ;
#492 = CARTESIAN_POINT ( 'NONE',  ( -26.00000000000000355, 15.00000000000000000, 0.000000000000000000 ) ) ;
#493 = VECTOR ( 'NONE', #400, 1000.000000000000000 ) ;
#494 = CARTESIAN_POINT ( 'NONE',  ( -25.00000000000001066, 11.25000000000000000, 0.000000000000000000 ) ) ;
#495 = ORIENTED_EDGE ( 'NONE', *, *, #748, .T. ) ;
#496 = DIRECTION ( 'NONE',  ( -0.000000000000000000, -0.000000000000000000, -1.000000000000000000 ) ) ;
#497 = AXIS2_PLACEMENT_3D ( 'NONE', #509, #29, #430 ) ;
#498 = EDGE_CURVE ( 'NONE', #640, #1033, #544, .T. ) ;
#499 = DIRECTION ( 'NONE',  ( 0.000000000000000000, 0.000000000000000000, 1.000000000000000000 ) ) ;
#500 = VERTEX_POINT ( 'NONE', #522 ) ;
#501 = LINE ( 'NONE', #340, #655 ) ;
#502 = APPLICATION_PROTOCOL_DEFINITION ( 'draft international standard', 'automotive_design', 1998, #553 ) ;
#503 = AXIS2_PLACEMENT_3D ( 'NONE', #355, #345, #582 ) ;
#504 = DIRECTION ( 'NONE',  ( 0.000000000000000000, 0.000000000000000000, -1.000000000000000000 ) ) ;
#505 = EDGE_CURVE ( 'NONE', #361, #633, #873, .T. ) ;
#506 = VECTOR ( 'NONE', #803, 1000.000000000000000 ) ;
#507 = ORIENTED_EDGE ( 'NONE', *, *, #263, .T. ) ;
#508 = CARTESIAN_POINT ( 'NONE',  ( 0.000000000000000000, 0.000000000000000000, 12.00000000000000000 ) ) ;
#509 = CARTESIAN_POINT ( 'NONE',  ( 0.000000000000000000, 0.000000000000000000, 0.000000000000000000 ) ) ;
#510 = VERTEX_POINT ( 'NONE', #220 ) ;
#511 = ORIENTED_EDGE ( 'NONE', *, *, #929, .T. ) ;
#512 = DIRECTION ( 'NONE',  ( 0.000000000000000000, 1.000000000000000000, -0.000000000000000000 ) ) ;
#513 = AXIS2_PLACEMENT_3D ( 'NONE', #625, #383, #735 ) ;
#514 = ORIENTED_EDGE ( 'NONE', *, *, #491, .T. ) ;
#515 = ORIENTED_EDGE ( 'NONE', *, *, #1045, .T. ) ;
#516 = DIRECTION ( 'NONE',  ( -0.000000000000000000, 0.000000000000000000, 1.000000000000000000 ) ) ;
#517 = CARTESIAN_POINT ( 'NONE',  ( 25.00396715987148255, 3.593671109584190226, 9.000000000000001776 ) ) ;
#518 = EDGE_CURVE ( 'NONE', #711, #905, #364, .T. ) ;
#519 = VERTEX_POINT ( 'NONE', #297 ) ;
#520 = ORIENTED_EDGE ( 'NONE', *, *, #912, .T. ) ;
#521 = VECTOR ( 'NONE', #881, 1000.000000000000000 ) ;
#522 = CARTESIAN_POINT ( 'NONE',  ( 25.00223357993574425, -13.75000000000000000, 2.000000000000000000 ) ) ;
#523 = CARTESIAN_POINT ( 'NONE',  ( -25.00396715987147900, 0.000000000000000000, 2.000000000000000000 ) ) ;
#524 =( LENGTH_UNIT ( ) NAMED_UNIT ( * ) SI_UNIT ( .MILLI., .METRE. ) );
#525 = ADVANCED_FACE ( 'NONE', ( #159 ), #81, .F. ) ;
#526 = VECTOR ( 'NONE', #937, 1000.000000000000000 ) ;
#527 = VERTEX_POINT ( 'NONE', #289 ) ;
#528 = ORIENTED_EDGE ( 'NONE', *, *, #850, .T. ) ;
#529 = LINE ( 'NONE', #369, #1005 ) ;
#530 = DIRECTION ( 'NONE',  ( 1.000000000000000000, 0.000000000000000000, 0.000000000000000000 ) ) ;
#531 = FACE_OUTER_BOUND ( 'NONE', #219, .T. ) ;
#532 = PLANE ( 'NONE',  #157 ) ;
#533 = EDGE_CURVE ( 'NONE', #527, #965, #806, .T. ) ;
#534 = EDGE_LOOP ( 'NONE', ( #548, #147, #928, #398 ) ) ;
#535 = AXIS2_PLACEMENT_3D ( 'NONE', #477, #257, #1 ) ;
#536 = ORIENTED_EDGE ( 'NONE', *, *, #385, .T. ) ;
#537 = CARTESIAN_POINT ( 'NONE',  ( -25.00000000000001066, -13.75000000000000000, 2.000000000000000000 ) ) ;
#538 = DIRECTION ( 'NONE',  ( -0.000000000000000000, -1.000000000000000000, 0.000000000000000000 ) ) ;
#539 = AXIS2_PLACEMENT_3D ( 'NONE', #672, #988, #812 ) ;
#540 = DIRECTION ( 'NONE',  ( -0.000000000000000000, 0.000000000000000000, 1.000000000000000000 ) ) ;
#541 = CARTESIAN_POINT ( 'NONE',  ( 25.99999999999999645, 16.00000000000000000, 12.00000000000000000 ) ) ;
#542 = ORIENTED_EDGE ( 'NONE', *, *, #411, .T. ) ;
#543 = ADVANCED_FACE ( 'NONE', ( #51 ), #728, .T. ) ;
#544 = LINE ( 'NONE', #44, #169 ) ;
#545 = CARTESIAN_POINT ( 'NONE',  ( -25.00000000000001066, -11.25000000000000000, 2.000000000000000000 ) ) ;
#546 = DIRECTION ( 'NONE',  ( -1.000000000000000000, -0.000000000000000000, -0.000000000000000000 ) ) ;
#547 = CARTESIAN_POINT ( 'NONE',  ( 24.99999999999999645, 13.75000000000000000, 2.000000000000000000 ) ) ;
#548 = ORIENTED_EDGE ( 'NONE', *, *, #1016, .F. ) ;
#549 = LINE ( 'NONE', #573, #636 ) ;
#550 = ADVANCED_FACE ( 'NONE', ( #977 ), #126, .T. ) ;
#551 = DIRECTION ( 'NONE',  ( 1.000000000000000000, 0.000000000000000000, 0.000000000000000000 ) ) ;
#552 = ORIENTED_EDGE ( 'NONE', *, *, #89, .T. ) ;
#553 = APPLICATION_CONTEXT ( 'automotive_design' ) ;
#554 = DIRECTION ( 'NONE',  ( 1.000000000000000000, 0.000000000000000000, 0.000000000000000000 ) ) ;
#555 = DIRECTION ( 'NONE',  ( 1.000000000000000000, 0.000000000000000000, 0.000000000000000000 ) ) ;
#556 = EDGE_CURVE ( 'NONE', #422, #965, #529, .T. ) ;
#557 = CARTESIAN_POINT ( 'NONE',  ( -25.99999999999999645, -15.00000000000000000, 12.00000000000000000 ) ) ;
#558 = EDGE_LOOP ( 'NONE', ( #279, #341, #717, #511 ) ) ;
#559 = CARTESIAN_POINT ( 'NONE',  ( 24.99999999999999289, -15.00000000000000000, 12.00000000000000000 ) ) ;
#560 = AXIS2_PLACEMENT_3D ( 'NONE', #579, #890, #555 ) ;
#561 = CARTESIAN_POINT ( 'NONE',  ( 15.99999999999999289, 4.593671109584190226, 9.000000000000001776 ) ) ;
#562 = VECTOR ( 'NONE', #294, 1000.000000000000000 ) ;
#563 = DIRECTION ( 'NONE',  ( -0.000000000000000000, 1.000000000000000000, -0.000000000000000000 ) ) ;
#564 = CYLINDRICAL_SURFACE ( 'NONE', #535, 1.000000000000000888 ) ;
#565 = ORIENTED_EDGE ( 'NONE', *, *, #291, .T. ) ;
#566 = VECTOR ( 'NONE', #1042, 1000.000000000000000 ) ;
#567 = LINE ( 'NONE', #153, #313 ) ;
#568 = DIRECTION ( 'NONE',  ( -1.000000000000000000, 0.000000000000000000, 0.000000000000000000 ) ) ;
#569 = DIRECTION ( 'NONE',  ( -1.000000000000000000, 0.000000000000000000, 0.000000000000000000 ) ) ;
#570 = VECTOR ( 'NONE', #58, 1000.000000000000000 ) ;
#571 = ADVANCED_FACE ( 'NONE', ( #57 ), #698, .T. ) ;
#572 = ORIENTED_EDGE ( 'NONE', *, *, #170, .F. ) ;
#573 = CARTESIAN_POINT ( 'NONE',  ( -25.00000000000000000, 16.00000000000000000, 2.000000000000000000 ) ) ;
#574 = DIRECTION ( 'NONE',  ( 0.000000000000000000, 1.000000000000000000, -3.469446951953613696E-16 ) ) ;
#575 = AXIS2_PLACEMENT_3D ( 'NONE', #947, #302, #934 ) ;
#576 = DIRECTION ( 'NONE',  ( -1.000000000000000000, 0.000000000000000000, 0.000000000000000000 ) ) ;
#577 = VERTEX_POINT ( 'NONE', #120 ) ;
#578 = ADVANCED_FACE ( 'NONE', ( #376 ), #437, .T. ) ;
#579 = CARTESIAN_POINT ( 'NONE',  ( -25.00000000000000000, -15.00000000000000000, 0.000000000000000000 ) ) ;
#580 = CARTESIAN_POINT ( 'NONE',  ( 25.00396715987148255, 15.00000000000000178, 12.00000000000000000 ) ) ;
#581 = ORIENTED_EDGE ( 'NONE', *, *, #993, .T. ) ;
#582 = DIRECTION ( 'NONE',  ( 0.000000000000000000, -0.000000000000000000, -1.000000000000000000 ) ) ;
#583 = EDGE_CURVE ( 'NONE', #905, #422, #982, .T. ) ;
#584 = CIRCLE ( 'NONE', #128, 1.000000000000000888 ) ;
#585 = DIRECTION ( 'NONE',  ( -0.000000000000000000, 0.000000000000000000, -1.000000000000000000 ) ) ;
#586 = EDGE_LOOP ( 'NONE', ( #353, #204, #143, #877, #366, #68, #590, #354 ) ) ;
#587 = PLANE ( 'NONE',  #197 ) ;
#588 = EDGE_CURVE ( 'NONE', #436, #48, #731, .T. ) ;
#589 = AXIS2_PLACEMENT_3D ( 'NONE', #12, #261, #751 ) ;
#590 = ORIENTED_EDGE ( 'NONE', *, *, #149, .T. ) ;
#591 = ORIENTED_EDGE ( 'NONE', *, *, #665, .F. ) ;
#592 = CARTESIAN_POINT ( 'NONE',  ( 25.00396715987148255, 0.000000000000000000, 2.000000000000000000 ) ) ;
#593 = AXIS2_PLACEMENT_3D ( 'NONE', #561, #574, #901 ) ;
#594 = ORIENTED_EDGE ( 'NONE', *, *, #209, .F. ) ;
#595 = ORIENTED_EDGE ( 'NONE', *, *, #533, .F. ) ;
#596 = DIRECTION ( 'NONE',  ( 0.000000000000000000, -1.000000000000000000, -1.734723475976806848E-16 ) ) ;
#597 = ORIENTED_EDGE ( 'NONE', *, *, #1052, .T. ) ;
#598 = ORIENTED_EDGE ( 'NONE', *, *, #505, .T. ) ;
#599 = FACE_BOUND ( 'NONE', #1050, .T. ) ;
#600 = ORIENTED_EDGE ( 'NONE', *, *, #283, .F. ) ;
#601 = ORIENTED_EDGE ( 'NONE', *, *, #959, .F. ) ;
#602 = EDGE_CURVE ( 'NONE', #413, #793, #898, .T. ) ;
#603 = VECTOR ( 'NONE', #563, 1000.000000000000000 ) ;
#604 = CARTESIAN_POINT ( 'NONE',  ( -25.00396715987147545, 15.00000000000000178, 12.00000000000000000 ) ) ;
#605 = LINE ( 'NONE', #948, #479 ) ;
#606 = APPLICATION_CONTEXT ( 'automotive_design' ) ;
#607 = CARTESIAN_POINT ( 'NONE',  ( 0.000000000000000000, 0.000000000000000000, 2.000000000000000000 ) ) ;
#608 = ORIENTED_EDGE ( 'NONE', *, *, #498, .T. ) ;
#609 = ORIENTED_EDGE ( 'NONE', *, *, #278, .T. ) ;
#610 = CIRCLE ( 'NONE', #421, 1.000000000000000888 ) ;
#611 = DIRECTION ( 'NONE',  ( -1.000000000000000000, -0.000000000000000000, -0.000000000000000000 ) ) ;
#612 = CARTESIAN_POINT ( 'NONE',  ( 15.99999999999999289, 3.593671109584188894, 5.000000000000000000 ) ) ;
#613 = CARTESIAN_POINT ( 'NONE',  ( -26.00000000000000355, -16.00000000000000000, 2.000000000000000000 ) ) ;
#614 = EDGE_CURVE ( 'NONE', #92, #97, #405, .T. ) ;
#615 = DIRECTION ( 'NONE',  ( -1.387778780781445478E-15, 1.000000000000000000, 0.000000000000000000 ) ) ;
#616 = VERTEX_POINT ( 'NONE', #828 ) ;
#617 = PLANE ( 'NONE',  #902 ) ;
#618 = CARTESIAN_POINT ( 'NONE',  ( 25.00396715987148255, -5.406328890415810662, 12.00000000000000355 ) ) ;
#619 = CARTESIAN_POINT ( 'NONE',  ( -25.00223357993574425, 11.25000000000000000, 2.000000000000000000 ) ) ;
#620 = ADVANCED_FACE ( 'NONE', ( #908 ), #482, .T. ) ;
#621 = CARTESIAN_POINT ( 'NONE',  ( 15.99999999999999289, -5.406328890415810662, 9.000000000000000000 ) ) ;
#622 = EDGE_LOOP ( 'NONE', ( #808, #832, #734, #427 ) ) ;
#623 = ORIENTED_EDGE ( 'NONE', *, *, #518, .F. ) ;
#624 = CARTESIAN_POINT ( 'NONE',  ( -25.00223357993574425, -13.75000000000000178, 2.000000000000000000 ) ) ;
#625 = CARTESIAN_POINT ( 'NONE',  ( -25.00000000000000000, -15.00000000000000000, 12.00000000000000000 ) ) ;
#626 = VECTOR ( 'NONE', #332, 1000.000000000000000 ) ;
#627 = DIRECTION ( 'NONE',  ( 0.000000000000000000, -0.000000000000000000, -1.000000000000000000 ) ) ;
#628 = CARTESIAN_POINT ( 'NONE',  ( 25.00396715987148255, 3.593671109584188894, 4.000000000000000000 ) ) ;
#629 = ORIENTED_EDGE ( 'NONE', *, *, #967, .T. ) ;
#630 = CARTESIAN_POINT ( 'NONE',  ( 25.00396715987148255, 15.00000000000000178, 2.000000000000000000 ) ) ;
#631 = FILL_AREA_STYLE_COLOUR ( '', #109 ) ;
#632 = DIRECTION ( 'NONE',  ( -0.000000000000000000, -0.000000000000000000, -1.000000000000000000 ) ) ;
#633 = VERTEX_POINT ( 'NONE', #739 ) ;
#634 = VERTEX_POINT ( 'NONE', #668 ) ;
#635 = EDGE_CURVE ( 'NONE', #1009, #1046, #186, .T. ) ;
#636 = VECTOR ( 'NONE', #389, 1000.000000000000000 ) ;
#637 = LINE ( 'NONE', #234, #442 ) ;
#638 = DIRECTION ( 'NONE',  ( 0.000000000000000000, 0.000000000000000000, 1.000000000000000000 ) ) ;
#639 = FACE_OUTER_BOUND ( 'NONE', #356, .T. ) ;
#640 = VERTEX_POINT ( 'NONE', #21 ) ;
#641 = EDGE_LOOP ( 'NONE', ( #365, #1011, #199, #1027, #315, #1012, #129, #49 ) ) ;
#642 = CARTESIAN_POINT ( 'NONE',  ( -25.00000000000001421, 13.75000000000000000, 2.000000000000000000 ) ) ;
#643 = FACE_OUTER_BOUND ( 'NONE', #247, .T. ) ;
#644 = DIRECTION ( 'NONE',  ( -1.000000000000000000, 0.000000000000000000, 0.000000000000000000 ) ) ;
#645 = CARTESIAN_POINT ( 'NONE',  ( 15.99999999999999289, -4.406328890415810662, 4.999999999999999112 ) ) ;
#646 = ORIENTED_EDGE ( 'NONE', *, *, #415, .F. ) ;
#647 = FACE_OUTER_BOUND ( 'NONE', #685, .T. ) ;
#648 = AXIS2_PLACEMENT_3D ( 'NONE', #312, #395, #236 ) ;
#649 = FACE_OUTER_BOUND ( 'NONE', #440, .T. ) ;
#650 = EDGE_CURVE ( 'NONE', #333, #142, #28, .T. ) ;
#651 = LINE ( 'NONE', #913, #862 ) ;
#652 = EDGE_LOOP ( 'NONE', ( #600, #601, #520, #323 ) ) ;
#653 = CARTESIAN_POINT ( 'NONE',  ( -25.00223357993574425, 11.25000000000000000, 2.000000000000000000 ) ) ;
#654 = DIRECTION ( 'NONE',  ( 0.000000000000000000, 0.000000000000000000, -1.000000000000000000 ) ) ;
#655 = VECTOR ( 'NONE', #833, 1000.000000000000000 ) ;
#656 = EDGE_CURVE ( 'NONE', #92, #1059, #266, .T. ) ;
#657 = DIRECTION ( 'NONE',  ( -0.000000000000000000, 3.469446951953613696E-16, 1.000000000000000000 ) ) ;
#658 = AXIS2_PLACEMENT_3D ( 'NONE', #285, #360, #207 ) ;
#659 = ORIENTED_EDGE ( 'NONE', *, *, #850, .F. ) ;
#660 = DIRECTION ( 'NONE',  ( -0.000000000000000000, -0.000000000000000000, -1.000000000000000000 ) ) ;
#661 = CARTESIAN_POINT ( 'NONE',  ( 24.99999999999999645, 13.75000000000000000, 0.000000000000000000 ) ) ;
#662 = VECTOR ( 'NONE', #6, 1000.000000000000000 ) ;
#663 = CARTESIAN_POINT ( 'NONE',  ( -25.00223357993574425, 13.74999999999999822, 2.000000000000000000 ) ) ;
#664 = ORIENTED_EDGE ( 'NONE', *, *, #195, .T. ) ;
#665 = EDGE_CURVE ( 'NONE', #577, #436, #996, .T. ) ;
#666 = LINE ( 'NONE', #1004, #367 ) ;
#667 = VECTOR ( 'NONE', #721, 1000.000000000000000 ) ;
#668 = CARTESIAN_POINT ( 'NONE',  ( 25.00396715987148255, -5.406328890415811550, 7.999999999999998224 ) ) ;
#669 = ORIENTED_EDGE ( 'NONE', *, *, #885, .F. ) ;
#670 = EDGE_CURVE ( 'NONE', #286, #840, #412, .T. ) ;
#671 = VECTOR ( 'NONE', #701, 1000.000000000000000 ) ;
#672 = CARTESIAN_POINT ( 'NONE',  ( 25.00396715987148255, 3.593671109584188894, 5.000000000000000000 ) ) ;
#673 = ORIENTED_EDGE ( 'NONE', *, *, #11, .F. ) ;
#674 = CARTESIAN_POINT ( 'NONE',  ( 15.99999999999999289, 4.593671109584190226, 9.000000000000001776 ) ) ;
#675 = AXIS2_PLACEMENT_3D ( 'NONE', #955, #854, #455 ) ;
#676 = ORIENTED_EDGE ( 'NONE', *, *, #498, .F. ) ;
#677 = EDGE_LOOP ( 'NONE', ( #705, #233, #347, #1002 ) ) ;
#678 = DIRECTION ( 'NONE',  ( 0.000000000000000000, -1.734723475976806848E-16, 1.000000000000000000 ) ) ;
#679 = EDGE_CURVE ( 'NONE', #436, #187, #100, .T. ) ;
#680 = ORIENTED_EDGE ( 'NONE', *, *, #306, .T. ) ;
#681 = VERTEX_POINT ( 'NONE', #580 ) ;
#682 = FACE_BOUND ( 'NONE', #689, .T. ) ;
#683 = ORIENTED_EDGE ( 'NONE', *, *, #650, .T. ) ;
#684 = EDGE_CURVE ( 'NONE', #191, #577, #1007, .T. ) ;
#685 = EDGE_LOOP ( 'NONE', ( #176, #927, #998, #194, #47, #114, #124, #933 ) ) ;
#686 = DIRECTION ( 'NONE',  ( 0.000000000000000000, 0.000000000000000000, 1.000000000000000000 ) ) ;
#687 = FACE_OUTER_BOUND ( 'NONE', #622, .T. ) ;
#688 = ORIENTED_EDGE ( 'NONE', *, *, #411, .F. ) ;
#689 = EDGE_LOOP ( 'NONE', ( #836, #740, #13, #451 ) ) ;
#690 = ADVANCED_FACE ( 'NONE', ( #488 ), #1001, .F. ) ;
#691 = DIRECTION ( 'NONE',  ( -1.000000000000000000, 0.000000000000000000, 0.000000000000000000 ) ) ;
#692 = CARTESIAN_POINT ( 'NONE',  ( 24.99999999999999645, -11.25000000000000000, 0.000000000000000000 ) ) ;
#693 = ORIENTED_EDGE ( 'NONE', *, *, #917, .F. ) ;
#694 = AXIS2_PLACEMENT_3D ( 'NONE', #733, #1061, #325 ) ;
#695 = EDGE_LOOP ( 'NONE', ( #629, #417, #846, #552 ) ) ;
#696 = VECTOR ( 'NONE', #79, 1000.000000000000000 ) ;
#697 = VERTEX_POINT ( 'NONE', #663 ) ;
#698 = PLANE ( 'NONE',  #133 ) ;
#699 = LINE ( 'NONE', #65, #987 ) ;
#700 = ADVANCED_FACE ( 'NONE', ( #894 ), #564, .T. ) ;
#701 = DIRECTION ( 'NONE',  ( -0.000000000000000000, -0.000000000000000000, 1.000000000000000000 ) ) ;
#702 = PRESENTATION_LAYER_ASSIGNMENT (  '', '', ( #893 ) ) ;
#703 = CARTESIAN_POINT ( 'NONE',  ( -25.99999999999999645, 15.00000000000000000, 12.00000000000000000 ) ) ;
#704 = ORIENTED_EDGE ( 'NONE', *, *, #178, .T. ) ;
#705 = ORIENTED_EDGE ( 'NONE', *, *, #906, .F. ) ;
#706 = CARTESIAN_POINT ( 'NONE',  ( -25.00223357993574425, -11.25000000000000178, 2.000000000000000000 ) ) ;
#707 = DIRECTION ( 'NONE',  ( 0.000000000000000000, 1.734723475976807094E-16, 1.000000000000000000 ) ) ;
#708 = DIRECTION ( 'NONE',  ( 1.000000000000000000, 0.000000000000000000, 0.000000000000000000 ) ) ;
#709 = VECTOR ( 'NONE', #239, 1000.000000000000000 ) ;
#710 = LINE ( 'NONE', #141, #506 ) ;
#711 = VERTEX_POINT ( 'NONE', #991 ) ;
#712 = ORIENTED_EDGE ( 'NONE', *, *, #588, .T. ) ;
#713 = CARTESIAN_POINT ( 'NONE',  ( 15.99999999999999289, 4.593671109584188450, 4.000000000000000000 ) ) ;
#714 = DIRECTION ( 'NONE',  ( 1.000000000000000000, -0.000000000000000000, -0.000000000000000000 ) ) ;
#715 = EDGE_CURVE ( 'NONE', #56, #187, #949, .T. ) ;
#716 = VERTEX_POINT ( 'NONE', #328 ) ;
#717 = ORIENTED_EDGE ( 'NONE', *, *, #885, .T. ) ;
#718 = DIRECTION ( 'NONE',  ( -0.000000000000000000, 0.000000000000000000, 1.000000000000000000 ) ) ;
#719 = DIRECTION ( 'NONE',  ( -1.000000000000000000, 0.000000000000000000, 0.000000000000000000 ) ) ;
#720 = B_SPLINE_CURVE_WITH_KNOTS ( 'NONE', 3,
 ( #154, #726, #260, #802 ),
 .UNSPECIFIED., .F., .F.,
 ( 4, 4 ),
 ( 0.000000000000000000, 1.000000000000000000 ),
 .UNSPECIFIED. ) ;
#721 = DIRECTION ( 'NONE',  ( 1.000000000000000000, 0.000000000000000000, 0.000000000000000000 ) ) ;
#722 = VERTEX_POINT ( 'NONE', #416 ) ;
#723 = EDGE_CURVE ( 'NONE', #711, #865, #651, .T. ) ;
#724 = AXIS2_PLACEMENT_3D ( 'NONE', #254, #741, #334 ) ;
#725 = LINE ( 'NONE', #966, #39 ) ;
#726 = CARTESIAN_POINT ( 'NONE',  ( 25.00000000000000000, -12.91666666666666607, 2.000000000000000000 ) ) ;
#727 = DIRECTION ( 'NONE',  ( 0.000000000000000000, 0.000000000000000000, -1.000000000000000000 ) ) ;
#728 = PLANE ( 'NONE',  #864 ) ;
#729 = EDGE_LOOP ( 'NONE', ( #673, #964, #759, #909 ) ) ;
#730 = DIRECTION ( 'NONE',  ( 0.000000000000000000, -1.000000000000000000, -8.673617379884035472E-17 ) ) ;
#731 = CIRCLE ( 'NONE', #916, 1.000000000000000000 ) ;
#732 = EDGE_CURVE ( 'NONE', #200, #905, #747, .T. ) ;
#733 = CARTESIAN_POINT ( 'NONE',  ( 0.000000000000000000, 0.000000000000000000, 2.000000000000000000 ) ) ;
#734 = ORIENTED_EDGE ( 'NONE', *, *, #326, .F. ) ;
#735 = DIRECTION ( 'NONE',  ( 1.000000000000000000, 0.000000000000000000, 0.000000000000000000 ) ) ;
#736 = VECTOR ( 'NONE', #896, 1000.000000000000000 ) ;
#737 = CARTESIAN_POINT ( 'NONE',  ( 25.99999999999999645, -15.00000000000000000, 2.000000000000000000 ) ) ;
#738 = ADVANCED_FACE ( 'NONE', ( #438 ), #1018, .F. ) ;
#739 = CARTESIAN_POINT ( 'NONE',  ( -25.00000000000000000, -16.00000000000000000, 0.000000000000000000 ) ) ;
#740 = ORIENTED_EDGE ( 'NONE', *, *, #23, .F. ) ;
#741 = DIRECTION ( 'NONE',  ( -1.000000000000000000, 0.000000000000000000, 0.000000000000000000 ) ) ;
#742 = CARTESIAN_POINT ( 'NONE',  ( -25.00396715987147545, 15.00000000000000178, 12.00000000000000000 ) ) ;
#743 = DIRECTION ( 'NONE',  ( 0.000000000000000000, 1.000000000000000000, -0.000000000000000000 ) ) ;
#744 = CARTESIAN_POINT ( 'NONE',  ( -25.99999999999999645, 16.00000000000000000, 12.00000000000000000 ) ) ;
#745 = EDGE_LOOP ( 'NONE', ( #623, #31, #659, #87 ) ) ;
#746 = CARTESIAN_POINT ( 'NONE',  ( -25.00000000000000000, -16.00000000000000000, 12.00000000000000000 ) ) ;
#747 = LINE ( 'NONE', #523, #348 ) ;
#748 = EDGE_CURVE ( 'NONE', #56, #413, #131, .T. ) ;
#749 = ORIENTED_EDGE ( 'NONE', *, *, #415, .T. ) ;
#750 = CARTESIAN_POINT ( 'NONE',  ( -25.00223357993574425, -13.75000000000000178, 2.000000000000000000 ) ) ;
#751 = DIRECTION ( 'NONE',  ( 0.000000000000000000, -0.000000000000000000, 1.000000000000000000 ) ) ;
#752 = VERTEX_POINT ( 'NONE', #630 ) ;
#753 = CARTESIAN_POINT ( 'NONE',  ( 24.99999999999999289, 16.00000000000000000, 2.000000000000000000 ) ) ;
#754 =( NAMED_UNIT ( * ) SI_UNIT ( $, .STERADIAN. ) SOLID_ANGLE_UNIT ( ) );
#755 = EDGE_LOOP ( 'NONE', ( #36, #646, #565, #536, #859, #406, #309, #151 ) ) ;
#756 = VERTEX_POINT ( 'NONE', #138 ) ;
#757 = FACE_OUTER_BOUND ( 'NONE', #106, .T. ) ;
#758 = EDGE_CURVE ( 'NONE', #422, #640, #605, .T. ) ;
#759 = ORIENTED_EDGE ( 'NONE', *, *, #518, .T. ) ;
#760 = VECTOR ( 'NONE', #1022, 1000.000000000000000 ) ;
#761 = ORIENTED_EDGE ( 'NONE', *, *, #837, .F. ) ;
#762 = CARTESIAN_POINT ( 'NONE',  ( 25.99999999999999645, 4.593671109584188450, 5.000000000000000000 ) ) ;
#763 = ORIENTED_EDGE ( 'NONE', *, *, #588, .F. ) ;
#764 = CARTESIAN_POINT ( 'NONE',  ( -25.00396715987147545, 15.00000000000000178, 12.00000000000000000 ) ) ;
#765 = CARTESIAN_POINT ( 'NONE',  ( -25.00000000000001066, 11.25000000000000000, 2.000000000000000000 ) ) ;
#766 = VECTOR ( 'NONE', #466, 1000.000000000000000 ) ;
#767 = ORIENTED_EDGE ( 'NONE', *, *, #149, .F. ) ;
#768 = ADVANCED_FACE ( 'NONE', ( #687 ), #458, .T. ) ;
#769 = VERTEX_POINT ( 'NONE', #692 ) ;
#770 = DIRECTION ( 'NONE',  ( 2.775557561562890957E-15, -1.000000000000000000, 0.000000000000000000 ) ) ;
#771 = FACE_OUTER_BOUND ( 'NONE', #695, .T. ) ;
#772 = ORIENTED_EDGE ( 'NONE', *, *, #758, .T. ) ;
#773 = VECTOR ( 'NONE', #420, 1000.000000000000000 ) ;
#774 = ORIENTED_EDGE ( 'NONE', *, *, #99, .T. ) ;
#775 = EDGE_CURVE ( 'NONE', #965, #267, #221, .T. ) ;
#776 = B_SPLINE_CURVE_WITH_KNOTS ( 'NONE', 3,
 ( #869, #61, #305, #1056 ),
 .UNSPECIFIED., .F., .F.,
 ( 4, 4 ),
 ( 0.000000000000000000, 1.000000000000000000 ),
 .UNSPECIFIED. ) ;
#777 = CARTESIAN_POINT ( 'NONE',  ( -25.00000000000001066, -11.25000000000000000, 2.000000000000000000 ) ) ;
#778 = DIRECTION ( 'NONE',  ( -0.000000000000000000, -1.000000000000000000, 0.000000000000000000 ) ) ;
#779 =( NAMED_UNIT ( * ) SI_UNIT ( $, .STERADIAN. ) SOLID_ANGLE_UNIT ( ) );
#780 = PLANE ( 'NONE',  #994 ) ;
#781 = AXIS2_PLACEMENT_3D ( 'NONE', #508, #516, #999 ) ;
#782 = ORIENTED_EDGE ( 'NONE', *, *, #1000, .F. ) ;
#783 = CARTESIAN_POINT ( 'NONE',  ( 25.99999999999999645, 3.593671109584188894, 5.000000000000000000 ) ) ;
#784 = DIRECTION ( 'NONE',  ( 0.000000000000000000, 1.000000000000000000, 8.673617379884035472E-17 ) ) ;
#785 = DIRECTION ( 'NONE',  ( 0.000000000000000000, -0.000000000000000000, 1.000000000000000000 ) ) ;
#786 = LINE ( 'NONE', #391, #979 ) ;
#787 = EDGE_LOOP ( 'NONE', ( #782, #693, #229, #282 ) ) ;
#788 = ORIENTED_EDGE ( 'NONE', *, *, #684, .F. ) ;
#789 = DIRECTION ( 'NONE',  ( 0.000000000000000000, -1.000000000000000000, 0.000000000000000000 ) ) ;
#790 = LINE ( 'NONE', #372, #265 ) ;
#791 = ADVANCED_FACE ( 'NONE', ( #127 ), #935, .F. ) ;
#792 = FACE_OUTER_BOUND ( 'NONE', #534, .T. ) ;
#793 = VERTEX_POINT ( 'NONE', #444 ) ;
#794 = LINE ( 'NONE', #394, #1051 ) ;
#795 = VECTOR ( 'NONE', #162, 1000.000000000000000 ) ;
#796 = ADVANCED_FACE ( 'NONE', ( #960 ), #290, .T. ) ;
#797 = DIRECTION ( 'NONE',  ( -1.000000000000000000, -0.000000000000000000, -0.000000000000000000 ) ) ;
#798 = ORIENTED_EDGE ( 'NONE', *, *, #1031, .F. ) ;
#799 = ORIENTED_EDGE ( 'NONE', *, *, #827, .T. ) ;
#800 = AXIS2_PLACEMENT_3D ( 'NONE', #118, #504, #108 ) ;
#801 = DIRECTION ( 'NONE',  ( 1.000000000000000000, 0.000000000000000000, 0.000000000000000000 ) ) ;
#802 = CARTESIAN_POINT ( 'NONE',  ( 25.00223357993574425, -11.25000000000000000, 2.000000000000000000 ) ) ;
#803 = DIRECTION ( 'NONE',  ( -1.000000000000000000, -0.000000000000000000, 0.000000000000000000 ) ) ;
#804 = CARTESIAN_POINT ( 'NONE',  ( 25.99999999999999645, -5.406328890415810662, 9.000000000000000000 ) ) ;
#805 = VECTOR ( 'NONE', #546, 1000.000000000000000 ) ;
#806 = LINE ( 'NONE', #397, #270 ) ;
#807 = ADVANCED_FACE ( 'NONE', ( #771 ), #214, .F. ) ;
#808 = ORIENTED_EDGE ( 'NONE', *, *, #872, .F. ) ;
#809 = CARTESIAN_POINT ( 'NONE',  ( 25.00396715987148255, 4.593671109584192891, 12.00000000000000355 ) ) ;
#810 = PLANE ( 'NONE',  #694 ) ;
#811 = CARTESIAN_POINT ( 'NONE',  ( 24.99999999999999645, 11.25000000000000000, 0.000000000000000000 ) ) ;
#812 = DIRECTION ( 'NONE',  ( 0.000000000000000000, 0.000000000000000000, 1.000000000000000000 ) ) ;
#813 = VERTEX_POINT ( 'NONE', #449 ) ;
#814 = EDGE_CURVE ( 'NONE', #905, #527, #370, .T. ) ;
#815 = VECTOR ( 'NONE', #1041, 1000.000000000000000 ) ;
#816 = CYLINDRICAL_SURFACE ( 'NONE', #425, 0.9999999999999991118 ) ;
#817 = VECTOR ( 'NONE', #16, 1000.000000000000000 ) ;
#818 = CARTESIAN_POINT ( 'NONE',  ( 25.00396715987148255, -15.00000000000000000, 2.000000000000000000 ) ) ;
#819 = DIRECTION ( 'NONE',  ( 0.000000000000000000, -1.000000000000000000, 0.000000000000000000 ) ) ;
#820 = ORIENTED_EDGE ( 'NONE', *, *, #665, .T. ) ;
#821 = CARTESIAN_POINT ( 'NONE',  ( 25.00396715987148255, 15.00000000000000178, 12.00000000000000000 ) ) ;
#822 = DIRECTION ( 'NONE',  ( 1.000000000000000000, 0.000000000000000000, 0.000000000000000000 ) ) ;
#823 = CARTESIAN_POINT ( 'NONE',  ( 25.00396715987148255, 0.000000000000000000, 2.000000000000000000 ) ) ;
#824 = CARTESIAN_POINT ( 'NONE',  ( -25.99999999999999645, 16.00000000000000000, 12.00000000000000000 ) ) ;
#825 = ORIENTED_EDGE ( 'NONE', *, *, #317, .T. ) ;
#826 = CARTESIAN_POINT ( 'NONE',  ( 24.99999999999999645, -11.25000000000000000, 2.000000000000000000 ) ) ;
#827 = EDGE_CURVE ( 'NONE', #1059, #388, #298, .T. ) ;
#828 = CARTESIAN_POINT ( 'NONE',  ( 25.99999999999999645, 15.00000000000000000, 12.00000000000000000 ) ) ;
#829 = VERTEX_POINT ( 'NONE', #517 ) ;
#830 = PLANE ( 'NONE',  #190 ) ;
#831 = DIRECTION ( 'NONE',  ( 1.000000000000000000, 0.000000000000000000, 0.000000000000000000 ) ) ;
#832 = ORIENTED_EDGE ( 'NONE', *, *, #185, .F. ) ;
#833 = DIRECTION ( 'NONE',  ( 0.000000000000000000, 1.000000000000000000, 1.734723475976806848E-16 ) ) ;
#834 = VECTOR ( 'NONE', #192, 1000.000000000000000 ) ;
#835 = EDGE_LOOP ( 'NONE', ( #287, #712, #349, #914, #211, #375, #338, #489 ) ) ;
#836 = ORIENTED_EDGE ( 'NONE', *, *, #989, .F. ) ;
#837 = EDGE_CURVE ( 'NONE', #829, #56, #699, .T. ) ;
#838 = DIRECTION ( 'NONE',  ( -1.000000000000000000, -0.000000000000000000, -0.000000000000000000 ) ) ;
#839 = EDGE_LOOP ( 'NONE', ( #676, #919, #368, #515 ) ) ;
#840 = VERTEX_POINT ( 'NONE', #377 ) ;
#841 = CIRCLE ( 'NONE', #513, 1.000000000000000888 ) ;
#842 = PRODUCT_RELATED_PRODUCT_CATEGORY ( 'part', '', ( #181 ) ) ;
#843 = LINE ( 'NONE', #592, #452 ) ;
#844 = ORIENTED_EDGE ( 'NONE', *, *, #602, .F. ) ;
#845 = AXIS2_PLACEMENT_3D ( 'NONE', #429, #27, #280 ) ;
#846 = ORIENTED_EDGE ( 'NONE', *, *, #974, .T. ) ;
#847 = DIRECTION ( 'NONE',  ( 0.000000000000000000, 1.000000000000000000, 0.000000000000000000 ) ) ;
#848 = DIRECTION ( 'NONE',  ( 1.000000000000000000, 0.000000000000000000, -0.000000000000000000 ) ) ;
#849 = PRODUCT_CONTEXT ( 'NONE', #553, 'mechanical' ) ;
#850 = EDGE_CURVE ( 'NONE', #200, #865, #121, .T. ) ;
#851 = VERTEX_POINT ( 'NONE', #1037 ) ;
#852 = ORIENTED_EDGE ( 'NONE', *, *, #951, .F. ) ;
#853 = DIRECTION ( 'NONE',  ( -0.000000000000000000, 0.000000000000000000, -1.000000000000000000 ) ) ;
#854 = DIRECTION ( 'NONE',  ( -0.000000000000000000, 0.000000000000000000, -1.000000000000000000 ) ) ;
#855 =( GEOMETRIC_REPRESENTATION_CONTEXT ( 3 ) GLOBAL_UNCERTAINTY_ASSIGNED_CONTEXT ( ( #140 ) ) GLOBAL_UNIT_ASSIGNED_CONTEXT ( ( #524, #145, #779 ) ) REPRESENTATION_CONTEXT ( 'NONE', 'WORKASPACE' ) );
#856 = FACE_OUTER_BOUND ( 'NONE', #745, .T. ) ;
#857 = EDGE_CURVE ( 'NONE', #756, #634, #38, .T. ) ;
#858 = ORIENTED_EDGE ( 'NONE', *, *, #602, .T. ) ;
#859 = ORIENTED_EDGE ( 'NONE', *, *, #758, .F. ) ;
#860 = DIRECTION ( 'NONE',  ( 0.000000000000000000, -1.000000000000000000, 0.000000000000000000 ) ) ;
#861 = DIRECTION ( 'NONE',  ( 0.000000000000000000, 8.673617379884035472E-17, -1.000000000000000000 ) ) ;
#862 = VECTOR ( 'NONE', #983, 1000.000000000000000 ) ;
#863 = CARTESIAN_POINT ( 'NONE',  ( 25.99999999999999645, 3.593671109584189782, 9.000000000000001776 ) ) ;
#864 = AXIS2_PLACEMENT_3D ( 'NONE', #777, #284, #853 ) ;
#865 = VERTEX_POINT ( 'NONE', #303 ) ;
#866 = DIRECTION ( 'NONE',  ( 0.000000000000000000, -0.000000000000000000, -1.000000000000000000 ) ) ;
#867 = CARTESIAN_POINT ( 'NONE',  ( -25.00000000000001066, -11.25000000000000000, 2.000000000000000000 ) ) ;
#868 = LINE ( 'NONE', #139, #526 ) ;
#869 = CARTESIAN_POINT ( 'NONE',  ( 25.00223357993574425, 11.25000000000000000, 2.000000000000000000 ) ) ;
#870 = AXIS2_PLACEMENT_3D ( 'NONE', #1054, #249, #319 ) ;
#871 = ORIENTED_EDGE ( 'NONE', *, *, #34, .T. ) ;
#872 = EDGE_CURVE ( 'NONE', #97, #361, #841, .T. ) ;
#873 = LINE ( 'NONE', #1028, #760 ) ;
#874 = CARTESIAN_POINT ( 'NONE',  ( -26.00000000000000355, 16.00000000000000000, 0.000000000000000000 ) ) ;
#875 = LINE ( 'NONE', #1019, #671 ) ;
#876 = LINE ( 'NONE', #469, #74 ) ;
#877 = ORIENTED_EDGE ( 'NONE', *, *, #872, .T. ) ;
#878 = LINE ( 'NONE', #462, #255 ) ;
#879 = EDGE_CURVE ( 'NONE', #200, #1009, #985, .T. ) ;
#880 =( GEOMETRIC_REPRESENTATION_CONTEXT ( 3 ) GLOBAL_UNCERTAINTY_ASSIGNED_CONTEXT ( ( #962 ) ) GLOBAL_UNIT_ASSIGNED_CONTEXT ( ( #123, #33, #754 ) ) REPRESENTATION_CONTEXT ( 'NONE', 'WORKASPACE' ) );
#881 = DIRECTION ( 'NONE',  ( -0.000000000000000000, 1.000000000000000000, -0.000000000000000000 ) ) ;
#882 = ORIENTED_EDGE ( 'NONE', *, *, #989, .T. ) ;
#883 = LINE ( 'NONE', #1060, #766 ) ;
#884 = LINE ( 'NONE', #826, #288 ) ;
#885 = EDGE_CURVE ( 'NONE', #422, #500, #878, .T. ) ;
#886 = LINE ( 'NONE', #1043, #245 ) ;
#887 = ORIENTED_EDGE ( 'NONE', *, *, #122, .F. ) ;
#888 = VECTOR ( 'NONE', #797, 1000.000000000000000 ) ;
#889 = PLANE ( 'NONE',  #724 ) ;
#890 = DIRECTION ( 'NONE',  ( 0.000000000000000000, -0.000000000000000000, -1.000000000000000000 ) ) ;
#891 = DIRECTION ( 'NONE',  ( 0.000000000000000000, 0.000000000000000000, 1.000000000000000000 ) ) ;
#892 = EDGE_CURVE ( 'NONE', #681, #752, #484, .T. ) ;
#893 = STYLED_ITEM ( 'NONE', ( #227 ), #171 ) ;
#894 = FACE_OUTER_BOUND ( 'NONE', #787, .T. ) ;
#895 = ORIENTED_EDGE ( 'NONE', *, *, #73, .F. ) ;
#896 = DIRECTION ( 'NONE',  ( 1.387778780781445478E-15, -1.000000000000000000, 0.000000000000000000 ) ) ;
#897 = LINE ( 'NONE', #903, #603 ) ;
#898 = LINE ( 'NONE', #167, #773 ) ;
#899 = EDGE_LOOP ( 'NONE', ( #572, #922, #825, #680 ) ) ;
#900 = CARTESIAN_POINT ( 'NONE',  ( 25.99999999999999645, -5.406328890415811550, 4.999999999999999112 ) ) ;
#901 = DIRECTION ( 'NONE',  ( 0.000000000000000000, 3.469446951953613696E-16, 1.000000000000000000 ) ) ;
#902 = AXIS2_PLACEMENT_3D ( 'NONE', #1057, #130, #770 ) ;
#903 = CARTESIAN_POINT ( 'NONE',  ( 24.99999999999999645, 13.75000000000000000, 0.000000000000000000 ) ) ;
#904 = DIRECTION ( 'NONE',  ( 0.000000000000000000, 0.000000000000000000, 1.000000000000000000 ) ) ;
#905 = VERTEX_POINT ( 'NONE', #9 ) ;
#906 = EDGE_CURVE ( 'NONE', #616, #286, #584, .T. ) ;
#907 = PLANE ( 'NONE',  #474 ) ;
#908 = FACE_OUTER_BOUND ( 'NONE', #839, .T. ) ;
#909 = ORIENTED_EDGE ( 'NONE', *, *, #814, .T. ) ;
#910 = VECTOR ( 'NONE', #70, 1000.000000000000000 ) ;
#911 = FACE_OUTER_BOUND ( 'NONE', #586, .T. ) ;
#912 = EDGE_CURVE ( 'NONE', #697, #200, #448, .T. ) ;
#913 = CARTESIAN_POINT ( 'NONE',  ( 25.00396715987148255, 0.000000000000000000, 2.000000000000000000 ) ) ;
#914 = ORIENTED_EDGE ( 'NONE', *, *, #485, .T. ) ;
#915 = DIRECTION ( 'NONE',  ( -0.000000000000000000, 0.000000000000000000, 1.000000000000000000 ) ) ;
#916 = AXIS2_PLACEMENT_3D ( 'NONE', #783, #569, #499 ) ;
#917 = EDGE_CURVE ( 'NONE', #142, #519, #794, .T. ) ;
#918 = ORIENTED_EDGE ( 'NONE', *, *, #837, .T. ) ;
#919 = ORIENTED_EDGE ( 'NONE', *, *, #385, .F. ) ;
#920 = CARTESIAN_POINT ( 'NONE',  ( -25.00396715987147545, 15.00000000000000178, 2.000000000000000000 ) ) ;
#921 = VECTOR ( 'NONE', #838, 1000.000000000000000 ) ;
#922 = ORIENTED_EDGE ( 'NONE', *, *, #929, .F. ) ;
#923 = ADVANCED_FACE ( 'NONE', ( #93, #647 ), #889, .T. ) ;
#924 = VERTEX_POINT ( 'NONE', #410 ) ;
#925 = CARTESIAN_POINT ( 'NONE',  ( -25.00396715987147545, -15.00000000000000000, 12.00000000000000000 ) ) ;
#926 = SHAPE_DEFINITION_REPRESENTATION ( #78, #318 ) ;
#927 = ORIENTED_EDGE ( 'NONE', *, *, #1045, .F. ) ;
#928 = ORIENTED_EDGE ( 'NONE', *, *, #155, .T. ) ;
#929 = EDGE_CURVE ( 'NONE', #500, #267, #725, .T. ) ;
#930 = FACE_BOUND ( 'NONE', #483, .T. ) ;
#931 = VERTEX_POINT ( 'NONE', #231 ) ;
#932 = CIRCLE ( 'NONE', #152, 0.9999999999999991118 ) ;
#933 = ORIENTED_EDGE ( 'NONE', *, *, #317, .F. ) ;
#934 = DIRECTION ( 'NONE',  ( 0.000000000000000000, 0.000000000000000000, 1.000000000000000000 ) ) ;
#935 = CYLINDRICAL_SURFACE ( 'NONE', #658, 1.000000000000000888 ) ;
#936 = EDGE_CURVE ( 'NONE', #931, #840, #549, .T. ) ;
#937 = DIRECTION ( 'NONE',  ( 1.000000000000000000, 0.000000000000000000, -0.000000000000000000 ) ) ;
#938 = VECTOR ( 'NONE', #111, 1000.000000000000000 ) ;
#939 = FACE_OUTER_BOUND ( 'NONE', #677, .T. ) ;
#940 = ORIENTED_EDGE ( 'NONE', *, *, #42, .F. ) ;
#941 = DIRECTION ( 'NONE',  ( 0.000000000000000000, -0.000000000000000000, 1.000000000000000000 ) ) ;
#942 = DIRECTION ( 'NONE',  ( 0.000000000000000000, -1.000000000000000000, 0.000000000000000000 ) ) ;
#943 = AXIS2_PLACEMENT_3D ( 'NONE', #613, #956, #459 ) ;
#944 = CARTESIAN_POINT ( 'NONE',  ( 24.99999999999999645, -11.25000000000000000, 0.000000000000000000 ) ) ;
#945 = LINE ( 'NONE', #628, #1025 ) ;
#946 = VERTEX_POINT ( 'NONE', #900 ) ;
#947 = CARTESIAN_POINT ( 'NONE',  ( 25.99999999999999645, -4.406328890415810662, 7.999999999999998224 ) ) ;
#948 = CARTESIAN_POINT ( 'NONE',  ( -25.00396715987147545, 0.000000000000000000, 2.000000000000000000 ) ) ;
#949 = CIRCLE ( 'NONE', #86, 1.000000000000000888 ) ;
#950 = DIRECTION ( 'NONE',  ( 0.000000000000000000, -1.000000000000000000, 1.734723475976807094E-16 ) ) ;
#951 = EDGE_CURVE ( 'NONE', #510, #697, #148, .T. ) ;
#952 = ORIENTED_EDGE ( 'NONE', *, *, #491, .F. ) ;
#953 = VECTOR ( 'NONE', #180, 1000.000000000000000 ) ;
#954 = CARTESIAN_POINT ( 'NONE',  ( 25.99999999999999645, -4.406328890415810662, 4.999999999999999112 ) ) ;
#955 = CARTESIAN_POINT ( 'NONE',  ( -25.00000000000000000, -15.00000000000000000, 2.000000000000000000 ) ) ;
#956 = DIRECTION ( 'NONE',  ( 0.000000000000000000, 1.000000000000000000, 0.000000000000000000 ) ) ;
#957 = PLANE ( 'NONE',  #208 ) ;
#958 = VERTEX_POINT ( 'NONE', #1047 ) ;
#959 = EDGE_CURVE ( 'NONE', #697, #374, #980, .T. ) ;
#960 = FACE_OUTER_BOUND ( 'NONE', #729, .T. ) ;
#961 = CARTESIAN_POINT ( 'NONE',  ( 25.00396715987148255, 3.593671109584188450, 4.000000000000000888 ) ) ;
#962 = UNCERTAINTY_MEASURE_WITH_UNIT (LENGTH_MEASURE( 1.000000000000000082E-05 ), #123, 'distance_accuracy_value', 'NONE');
#963 = DIRECTION ( 'NONE',  ( 1.000000000000000000, 0.000000000000000000, 0.000000000000000000 ) ) ;
#964 = ORIENTED_EDGE ( 'NONE', *, *, #306, .F. ) ;
#965 = VERTEX_POINT ( 'NONE', #160 ) ;
#966 = CARTESIAN_POINT ( 'NONE',  ( 25.00000000000000355, -13.75000000000000000, 2.000000000000000000 ) ) ;
#967 = EDGE_CURVE ( 'NONE', #191, #268, #637, .T. ) ;
#968 = DIRECTION ( 'NONE',  ( 0.000000000000000000, -1.000000000000000000, 0.000000000000000000 ) ) ;
#969 = LINE ( 'NONE', #396, #696 ) ;
#970 = EDGE_LOOP ( 'NONE', ( #595, #262, #43, #82 ) ) ;
#971 = EDGE_LOOP ( 'NONE', ( #238, #344, #799, #992 ) ) ;
#972 = LINE ( 'NONE', #809, #339 ) ;
#973 = DIRECTION ( 'NONE',  ( 0.000000000000000000, 0.000000000000000000, 1.000000000000000000 ) ) ;
#974 = EDGE_CURVE ( 'NONE', #990, #48, #883, .T. ) ;
#975 = LINE ( 'NONE', #944, #566 ) ;
#976 = CIRCLE ( 'NONE', #560, 1.000000000000000888 ) ;
#977 = FACE_OUTER_BOUND ( 'NONE', #558, .T. ) ;
#978 = EDGE_LOOP ( 'NONE', ( #392, #273, #329, #1014 ) ) ;
#979 = VECTOR ( 'NONE', #632, 1000.000000000000000 ) ;
#980 = LINE ( 'NONE', #248, #182 ) ;
#981 = PLANE ( 'NONE',  #241 ) ;
#982 = B_SPLINE_CURVE_WITH_KNOTS ( 'NONE', 3,
 ( #706, #1036, #37, #624 ),
 .UNSPECIFIED., .F., .F.,
 ( 4, 4 ),
 ( 0.000000000000000000, 1.000000000000000000 ),
 .UNSPECIFIED. ) ;
#983 = DIRECTION ( 'NONE',  ( 0.000000000000000000, 1.000000000000000000, -0.000000000000000000 ) ) ;
#984 = ORIENTED_EDGE ( 'NONE', *, *, #216, .F. ) ;
#985 = LINE ( 'NONE', #3, #709 ) ;
#986 = CARTESIAN_POINT ( 'NONE',  ( 25.00000000000000355, -13.75000000000000000, 0.000000000000000000 ) ) ;
#987 = VECTOR ( 'NONE', #848, 1000.000000000000000 ) ;
#988 = DIRECTION ( 'NONE',  ( 1.000000000000000000, -0.000000000000000000, -0.000000000000000000 ) ) ;
#989 = EDGE_CURVE ( 'NONE', #681, #924, #567, .T. ) ;
#990 = VERTEX_POINT ( 'NONE', #316 ) ;
#991 = CARTESIAN_POINT ( 'NONE',  ( 25.00223357993574425, -11.25000000000000000, 2.000000000000000000 ) ) ;
#992 = ORIENTED_EDGE ( 'NONE', *, *, #185, .T. ) ;
#993 = EDGE_CURVE ( 'NONE', #461, #577, #972, .T. ) ;
#994 = AXIS2_PLACEMENT_3D ( 'NONE', #150, #308, #615 ) ;
#995 = FACE_OUTER_BOUND ( 'NONE', #387, .T. ) ;
#996 = LINE ( 'NONE', #408, #817 ) ;
#997 = AXIS2_PLACEMENT_3D ( 'NONE', #607, #540, #60 ) ;
#998 = ORIENTED_EDGE ( 'NONE', *, *, #23, .T. ) ;
#999 = DIRECTION ( 'NONE',  ( 1.000000000000000000, 0.000000000000000000, 0.000000000000000000 ) ) ;
#1000 = EDGE_CURVE ( 'NONE', #519, #958, #15, .T. ) ;
#1001 = PLANE ( 'NONE',  #88 ) ;
#1002 = ORIENTED_EDGE ( 'NONE', *, *, #439, .F. ) ;
#1003 = VECTOR ( 'NONE', #530, 1000.000000000000000 ) ;
#1004 = CARTESIAN_POINT ( 'NONE',  ( 24.99999999999999645, 11.25000000000000000, 2.000000000000000000 ) ) ;
#1005 = VECTOR ( 'NONE', #443, 1000.000000000000000 ) ;
#1006 = EDGE_CURVE ( 'NONE', #851, #946, #470, .T. ) ;
#1007 = CIRCLE ( 'NONE', #539, 1.000000000000000000 ) ;
#1008 = ORIENTED_EDGE ( 'NONE', *, *, #857, .T. ) ;
#1009 = VERTEX_POINT ( 'NONE', #251 ) ;
#1010 = CARTESIAN_POINT ( 'NONE',  ( 0.000000000000000000, 0.000000000000000000, 0.000000000000000000 ) ) ;
#1011 = ORIENTED_EDGE ( 'NONE', *, *, #684, .T. ) ;
#1012 = ORIENTED_EDGE ( 'NONE', *, *, #1031, .T. ) ;
#1013 = CARTESIAN_POINT ( 'NONE',  ( -25.00396715987147545, 15.00000000000000178, 12.00000000000000000 ) ) ;
#1014 = ORIENTED_EDGE ( 'NONE', *, *, #352, .F. ) ;
#1015 = EDGE_LOOP ( 'NONE', ( #895, #940, #441, #761 ) ) ;
#1016 = EDGE_CURVE ( 'NONE', #1046, #307, #897, .T. ) ;
#1017 = DIRECTION ( 'NONE',  ( 0.000000000000000000, -1.000000000000000000, 0.000000000000000000 ) ) ;
#1018 = CYLINDRICAL_SURFACE ( 'NONE', #402, 1.000000000000000000 ) ;
#1019 = CARTESIAN_POINT ( 'NONE',  ( 25.99999999999999645, 15.00000000000000000, 2.000000000000000000 ) ) ;
#1020 = ORIENTED_EDGE ( 'NONE', *, *, #959, .T. ) ;
#1021 = ORIENTED_EDGE ( 'NONE', *, *, #42, .T. ) ;
#1022 = DIRECTION ( 'NONE',  ( -0.000000000000000000, 0.000000000000000000, -1.000000000000000000 ) ) ;
#1023 = DIRECTION ( 'NONE',  ( 0.000000000000000000, 0.000000000000000000, 1.000000000000000000 ) ) ;
#1024 = CIRCLE ( 'NONE', #648, 1.000000000000000888 ) ;
#1025 = VECTOR ( 'NONE', #386, 1000.000000000000000 ) ;
#1026 = PLANE ( 'NONE',  #292 ) ;
#1027 = ORIENTED_EDGE ( 'NONE', *, *, #73, .T. ) ;
#1028 = CARTESIAN_POINT ( 'NONE',  ( -25.00000000000000000, -16.00000000000000000, 2.000000000000000000 ) ) ;
#1029 = DIRECTION ( 'NONE',  ( 1.000000000000000000, 0.000000000000000000, 0.000000000000000000 ) ) ;
#1030 = AXIS2_PLACEMENT_3D ( 'NONE', #321, #727, #644 ) ;
#1031 = EDGE_CURVE ( 'NONE', #793, #634, #932, .T. ) ;
#1032 = LINE ( 'NONE', #237, #562 ) ;
#1033 = VERTEX_POINT ( 'NONE', #818 ) ;
#1034 = ORIENTED_EDGE ( 'NONE', *, *, #337, .F. ) ;
#1035 = AXIS2_PLACEMENT_3D ( 'NONE', #713, #861, #784 ) ;
#1036 = CARTESIAN_POINT ( 'NONE',  ( -25.00000000000001066, -12.08333333333333393, 2.000000000000000000 ) ) ;
#1037 = CARTESIAN_POINT ( 'NONE',  ( 25.99999999999999645, -5.406328890415810662, 7.999999999999998224 ) ) ;
#1038 = PRODUCT_DEFINITION ( 'UNKNOWN', '', #1055, #468 ) ;
#1039 = FACE_OUTER_BOUND ( 'NONE', #652, .T. ) ;
#1040 = CIRCLE ( 'NONE', #845, 1.000000000000000000 ) ;
#1041 = DIRECTION ( 'NONE',  ( 0.000000000000000000, -1.000000000000000000, -1.734723475976806848E-16 ) ) ;
#1042 = DIRECTION ( 'NONE',  ( -2.775557561562890957E-15, 1.000000000000000000, -0.000000000000000000 ) ) ;
#1043 = CARTESIAN_POINT ( 'NONE',  ( -25.00396715987147545, 0.000000000000000000, 2.000000000000000000 ) ) ;
#1044 = ORIENTED_EDGE ( 'NONE', *, *, #59, .F. ) ;
#1045 = EDGE_CURVE ( 'NONE', #716, #1033, #80, .T. ) ;
#1046 = VERTEX_POINT ( 'NONE', #811 ) ;
#1047 = CARTESIAN_POINT ( 'NONE',  ( 25.99999999999999645, -15.00000000000000000, 12.00000000000000000 ) ) ;
#1048 = CARTESIAN_POINT ( 'NONE',  ( -26.00000000000000355, 16.00000000000000000, 2.000000000000000000 ) ) ;
#1049 = FACE_OUTER_BOUND ( 'NONE', #62, .T. ) ;
#1050 = EDGE_LOOP ( 'NONE', ( #2, #704, #275, #301 ) ) ;
#1051 = VECTOR ( 'NONE', #172, 1000.000000000000000 ) ;
#1052 = EDGE_CURVE ( 'NONE', #510, #752, #174, .T. ) ;
#1053 = DIRECTION ( 'NONE',  ( -1.000000000000000000, -0.000000000000000000, -0.000000000000000000 ) ) ;
#1054 = CARTESIAN_POINT ( 'NONE',  ( -25.00000000000000000, 15.00000000000000000, 12.00000000000000000 ) ) ;
#1055 = PRODUCT_DEFINITION_FORMATION_WITH_SPECIFIED_SOURCE ( 'ANY', '', #181, .NOT_KNOWN. ) ;
#1056 = CARTESIAN_POINT ( 'NONE',  ( 25.00223357993574069, 13.75000000000000000, 2.000000000000000000 ) ) ;
#1057 = CARTESIAN_POINT ( 'NONE',  ( 24.99999999999999645, -11.25000000000000000, 2.000000000000000000 ) ) ;
#1058 = AXIS2_PLACEMENT_3D ( 'NONE', #764, #137, #454 ) ;
#1059 = VERTEX_POINT ( 'NONE', #492 ) ;
#1060 = CARTESIAN_POINT ( 'NONE',  ( 25.99999999999999645, 4.593671109584188450, 4.000000000000000000 ) ) ;
#1061 = DIRECTION ( 'NONE',  ( -0.000000000000000000, 0.000000000000000000, 1.000000000000000000 ) ) ;
ENDSEC;
END-ISO-10303-21;
