ISO-10303-21;
HEADER;
FILE_DESCRIPTION (( 'STEP AP214' ),
    '1' );
FILE_NAME ('tail_column.STEP',
    '2026-09-25T08:41:28',
    ( '' ),
    ( '' ),
    'SwSTEP 2.0',
    'SolidWorks 2026',
    '' );
FILE_SCHEMA (( 'AUTOMOTIVE_DESIGN' ));
ENDSEC;

DATA;
#1 = AXIS2_PLACEMENT_3D ( 'NONE', #105, #60, #18 ) ;
#2 = SHAPE_DEFINITION_REPRESENTATION ( #106, #69 ) ;
#3 = EDGE_CURVE ( 'NONE', #111, #48, #70, .T. ) ;
#4 = ORIENTED_EDGE ( 'NONE', *, *, #90, .T. ) ;
#5 = CIRCLE ( 'NONE', #96, 2.399999999999999911 ) ;
#6 = DIRECTION ( 'NONE',  ( 0.000000000000000000, 0.000000000000000000, 1.000000000000000000 ) ) ;
#7 = FILL_AREA_STYLE_COLOUR ( '', #100 ) ;
#8 =( LENGTH_UNIT ( ) NAMED_UNIT ( * ) SI_UNIT ( .MILLI., .METRE. ) );
#9 = AXIS2_PLACEMENT_3D ( 'NONE', #52, #61, #124 ) ;
#10 = VECTOR ( 'NONE', #42, 1000.000000000000000 ) ;
#11 = ADVANCED_FACE ( 'NONE', ( #83 ), #122, .T. ) ;
#12 = ORIENTED_EDGE ( 'NONE', *, *, #63, .T. ) ;
#13 = EDGE_LOOP ( 'NONE', ( #93, #67, #4, #24 ) ) ;
#14 = ORIENTED_EDGE ( 'NONE', *, *, #30, .F. ) ;
#15 = CARTESIAN_POINT ( 'NONE',  ( -2.399999999999999911, 0.000000000000000000, 0.000000000000000000 ) ) ;
#16 = DIRECTION ( 'NONE',  ( -0.000000000000000000, -0.000000000000000000, -1.000000000000000000 ) ) ;
#17 = AXIS2_PLACEMENT_3D ( 'NONE', #23, #84, #92 ) ;
#18 = DIRECTION ( 'NONE',  ( 1.000000000000000000, 0.000000000000000000, -0.000000000000000000 ) ) ;
#19 = FACE_OUTER_BOUND ( 'NONE', #121, .T. ) ;
#20 = VECTOR ( 'NONE', #39, 1000.000000000000000 ) ;
#21 = VERTEX_POINT ( 'NONE', #15 ) ;
#22 = DIRECTION ( 'NONE',  ( 1.000000000000000000, 0.000000000000000000, 0.000000000000000000 ) ) ;
#23 = CARTESIAN_POINT ( 'NONE',  ( 0.000000000000000000, 0.000000000000000000, 44.00000000000000000 ) ) ;
#24 = ORIENTED_EDGE ( 'NONE', *, *, #98, .T. ) ;
#25 = PRODUCT_RELATED_PRODUCT_CATEGORY ( 'part', '', ( #33 ) ) ;
#26 = APPLICATION_PROTOCOL_DEFINITION ( 'draft international standard', 'automotive_design', 1998, #99 ) ;
#27 = CLOSED_SHELL ( 'NONE', ( #112, #35, #11, #65 ) ) ;
#28 = PLANE ( 'NONE',  #1 ) ;
#29 = CARTESIAN_POINT ( 'NONE',  ( 0.000000000000000000, 0.000000000000000000, 44.00000000000000000 ) ) ;
#30 = EDGE_CURVE ( 'NONE', #48, #111, #5, .T. ) ;
#31 =( NAMED_UNIT ( * ) PLANE_ANGLE_UNIT ( ) SI_UNIT ( $, .RADIAN. ) );
#32 = AXIS2_PLACEMENT_3D ( 'NONE', #89, #6, #73 ) ;
#33 = PRODUCT ( 'tail_column', 'tail_column', '', ( #79 ) ) ;
#34 = MANIFOLD_SOLID_BREP ( 'Boss-Extrude1', #27 ) ;
#35 = ADVANCED_FACE ( 'NONE', ( #74 ), #57, .T. ) ;
#36 = DIRECTION ( 'NONE',  ( 0.000000000000000000, 0.000000000000000000, 1.000000000000000000 ) ) ;
#37 = ORIENTED_EDGE ( 'NONE', *, *, #45, .T. ) ;
#38 = AXIS2_PLACEMENT_3D ( 'NONE', #109, #108, #53 ) ;
#39 = DIRECTION ( 'NONE',  ( -0.000000000000000000, -0.000000000000000000, -1.000000000000000000 ) ) ;
#40 = SURFACE_STYLE_USAGE ( .BOTH. , #43 ) ;
#41 = CARTESIAN_POINT ( 'NONE',  ( 2.399999999999999911, 2.939152317953647106E-16, 0.000000000000000000 ) ) ;
#42 = DIRECTION ( 'NONE',  ( -0.000000000000000000, -0.000000000000000000, -1.000000000000000000 ) ) ;
#43 = SURFACE_SIDE_STYLE ('',( #87 ) ) ;
#44 = PRESENTATION_LAYER_ASSIGNMENT (  '', '', ( #54 ) ) ;
#45 = EDGE_CURVE ( 'NONE', #103, #21, #81, .T. ) ;
#46 = MECHANICAL_DESIGN_GEOMETRIC_PRESENTATION_REPRESENTATION (  '', ( #54 ), #77 ) ;
#47 = EDGE_LOOP ( 'NONE', ( #80, #123 ) ) ;
#48 = VERTEX_POINT ( 'NONE', #95 ) ;
#49 =( NAMED_UNIT ( * ) SI_UNIT ( $, .STERADIAN. ) SOLID_ANGLE_UNIT ( ) );
#50 = CARTESIAN_POINT ( 'NONE',  ( -2.399999999999999911, 0.000000000000000000, 44.00000000000000000 ) ) ;
#51 = DIRECTION ( 'NONE',  ( -0.000000000000000000, -0.000000000000000000, -1.000000000000000000 ) ) ;
#52 = CARTESIAN_POINT ( 'NONE',  ( 0.000000000000000000, 0.000000000000000000, 0.000000000000000000 ) ) ;
#53 = DIRECTION ( 'NONE',  ( 1.000000000000000000, 0.000000000000000000, 0.000000000000000000 ) ) ;
#54 = STYLED_ITEM ( 'NONE', ( #97 ), #34 ) ;
#55 = APPLICATION_PROTOCOL_DEFINITION ( 'draft international standard', 'automotive_design', 1998, #104 ) ;
#56 = PRODUCT_DEFINITION_CONTEXT ( 'detailed design', #104, 'design' ) ;
#57 = CYLINDRICAL_SURFACE ( 'NONE', #68, 2.399999999999999911 ) ;
#58 = DIRECTION ( 'NONE',  ( -1.000000000000000000, 0.000000000000000000, 0.000000000000000000 ) ) ;
#59 =( NAMED_UNIT ( * ) PLANE_ANGLE_UNIT ( ) SI_UNIT ( $, .RADIAN. ) );
#60 = DIRECTION ( 'NONE',  ( 0.000000000000000000, 0.000000000000000000, 1.000000000000000000 ) ) ;
#61 = DIRECTION ( 'NONE',  ( 0.000000000000000000, 0.000000000000000000, 1.000000000000000000 ) ) ;
#62 =( NAMED_UNIT ( * ) SI_UNIT ( $, .STERADIAN. ) SOLID_ANGLE_UNIT ( ) );
#63 = EDGE_CURVE ( 'NONE', #48, #103, #88, .T. ) ;
#64 = AXIS2_PLACEMENT_3D ( 'NONE', #101, #36, #102 ) ;
#65 = ADVANCED_FACE ( 'NONE', ( #116 ), #28, .F. ) ;
#66 =( GEOMETRIC_REPRESENTATION_CONTEXT ( 3 ) GLOBAL_UNCERTAINTY_ASSIGNED_CONTEXT ( ( #114 ) ) GLOBAL_UNIT_ASSIGNED_CONTEXT ( ( #115, #31, #62 ) ) REPRESENTATION_CONTEXT ( 'NONE', 'WORKASPACE' ) );
#67 = ORIENTED_EDGE ( 'NONE', *, *, #3, .F. ) ;
#68 = AXIS2_PLACEMENT_3D ( 'NONE', #125, #16, #58 ) ;
#69 = ADVANCED_BREP_SHAPE_REPRESENTATION ( 'tail_column', ( #34, #38 ), #66 ) ;
#70 = CIRCLE ( 'NONE', #17, 2.399999999999999911 ) ;
#71 = DIRECTION ( 'NONE',  ( 0.000000000000000000, 0.000000000000000000, 1.000000000000000000 ) ) ;
#72 = PRODUCT_DEFINITION ( 'UNKNOWN', '', #78, #56 ) ;
#73 = DIRECTION ( 'NONE',  ( 1.000000000000000000, 0.000000000000000000, 0.000000000000000000 ) ) ;
#74 = FACE_OUTER_BOUND ( 'NONE', #13, .T. ) ;
#75 = CARTESIAN_POINT ( 'NONE',  ( -2.399999999999999911, 0.000000000000000000, 44.00000000000000000 ) ) ;
#76 = DIRECTION ( 'NONE',  ( -1.000000000000000000, 0.000000000000000000, 0.000000000000000000 ) ) ;
#77 =( GEOMETRIC_REPRESENTATION_CONTEXT ( 3 ) GLOBAL_UNCERTAINTY_ASSIGNED_CONTEXT ( ( #91 ) ) GLOBAL_UNIT_ASSIGNED_CONTEXT ( ( #8, #59, #49 ) ) REPRESENTATION_CONTEXT ( 'NONE', 'WORKASPACE' ) );
#78 = PRODUCT_DEFINITION_FORMATION_WITH_SPECIFIED_SOURCE ( 'ANY', '', #33, .NOT_KNOWN. ) ;
#79 = PRODUCT_CONTEXT ( 'NONE', #99, 'mechanical' ) ;
#80 = ORIENTED_EDGE ( 'NONE', *, *, #3, .T. ) ;
#81 = CIRCLE ( 'NONE', #9, 2.399999999999999911 ) ;
#82 = ORIENTED_EDGE ( 'NONE', *, *, #98, .F. ) ;
#83 = FACE_OUTER_BOUND ( 'NONE', #47, .T. ) ;
#84 = DIRECTION ( 'NONE',  ( 0.000000000000000000, 0.000000000000000000, 1.000000000000000000 ) ) ;
#85 = CARTESIAN_POINT ( 'NONE',  ( 2.399999999999999911, 2.939152317953647106E-16, 44.00000000000000000 ) ) ;
#86 = CIRCLE ( 'NONE', #32, 2.399999999999999911 ) ;
#87 = SURFACE_STYLE_FILL_AREA ( #107 ) ;
#88 = LINE ( 'NONE', #85, #20 ) ;
#89 = CARTESIAN_POINT ( 'NONE',  ( 0.000000000000000000, 0.000000000000000000, 0.000000000000000000 ) ) ;
#90 = EDGE_CURVE ( 'NONE', #111, #21, #118, .T. ) ;
#91 = UNCERTAINTY_MEASURE_WITH_UNIT (LENGTH_MEASURE( 1.000000000000000082E-05 ), #8, 'distance_accuracy_value', 'NONE');
#92 = DIRECTION ( 'NONE',  ( 1.000000000000000000, 0.000000000000000000, 0.000000000000000000 ) ) ;
#93 = ORIENTED_EDGE ( 'NONE', *, *, #63, .F. ) ;
#94 = ORIENTED_EDGE ( 'NONE', *, *, #45, .F. ) ;
#95 = CARTESIAN_POINT ( 'NONE',  ( 2.399999999999999911, 2.939152317953647106E-16, 44.00000000000000000 ) ) ;
#96 = AXIS2_PLACEMENT_3D ( 'NONE', #120, #71, #22 ) ;
#97 = PRESENTATION_STYLE_ASSIGNMENT (( #40 ) ) ;
#98 = EDGE_CURVE ( 'NONE', #21, #103, #86, .T. ) ;
#99 = APPLICATION_CONTEXT ( 'automotive_design' ) ;
#100 = COLOUR_RGB ( '',0.7921568627450980005, 0.8196078431372548767, 0.9333333333333333481 ) ;
#101 = CARTESIAN_POINT ( 'NONE',  ( 0.000000000000000000, 0.000000000000000000, 44.00000000000000000 ) ) ;
#102 = DIRECTION ( 'NONE',  ( 1.000000000000000000, 0.000000000000000000, -0.000000000000000000 ) ) ;
#103 = VERTEX_POINT ( 'NONE', #41 ) ;
#104 = APPLICATION_CONTEXT ( 'automotive_design' ) ;
#105 = CARTESIAN_POINT ( 'NONE',  ( 0.000000000000000000, 0.000000000000000000, 0.000000000000000000 ) ) ;
#106 = PRODUCT_DEFINITION_SHAPE ( 'NONE', 'NONE',  #72 ) ;
#107 = FILL_AREA_STYLE ('',( #7 ) ) ;
#108 = DIRECTION ( 'NONE',  ( 0.000000000000000000, 0.000000000000000000, 1.000000000000000000 ) ) ;
#109 = CARTESIAN_POINT ( 'NONE',  ( 0.000000000000000000, 0.000000000000000000, 0.000000000000000000 ) ) ;
#110 = ORIENTED_EDGE ( 'NONE', *, *, #90, .F. ) ;
#111 = VERTEX_POINT ( 'NONE', #75 ) ;
#112 = ADVANCED_FACE ( 'NONE', ( #19 ), #117, .T. ) ;
#113 = EDGE_LOOP ( 'NONE', ( #82, #94 ) ) ;
#114 = UNCERTAINTY_MEASURE_WITH_UNIT (LENGTH_MEASURE( 1.000000000000000082E-05 ), #115, 'distance_accuracy_value', 'NONE');
#115 =( LENGTH_UNIT ( ) NAMED_UNIT ( * ) SI_UNIT ( .MILLI., .METRE. ) );
#116 = FACE_OUTER_BOUND ( 'NONE', #113, .T. ) ;
#117 = CYLINDRICAL_SURFACE ( 'NONE', #119, 2.399999999999999911 ) ;
#118 = LINE ( 'NONE', #50, #10 ) ;
#119 = AXIS2_PLACEMENT_3D ( 'NONE', #29, #51, #76 ) ;
#120 = CARTESIAN_POINT ( 'NONE',  ( 0.000000000000000000, 0.000000000000000000, 44.00000000000000000 ) ) ;
#121 = EDGE_LOOP ( 'NONE', ( #14, #12, #37, #110 ) ) ;
#122 = PLANE ( 'NONE',  #64 ) ;
#123 = ORIENTED_EDGE ( 'NONE', *, *, #30, .T. ) ;
#124 = DIRECTION ( 'NONE',  ( 1.000000000000000000, 0.000000000000000000, 0.000000000000000000 ) ) ;
#125 = CARTESIAN_POINT ( 'NONE',  ( 0.000000000000000000, 0.000000000000000000, 44.00000000000000000 ) ) ;
ENDSEC;
END-ISO-10303-21;
